<?xml version="1.0" encoding="utf-8"?>
<!-- Generator: Adobe Illustrator 16.0.0, SVG Export Plug-In . SVG Version: 6.00 Build 0)  -->
<!DOCTYPE svg PUBLIC "-//W3C//DTD SVG 1.1//EN" "http://www.w3.org/Graphics/SVG/1.1/DTD/svg11.dtd">
<svg version="1.1" id="Layer_1" xmlns="http://www.w3.org/2000/svg" xmlns:xlink="http://www.w3.org/1999/xlink" x="0px" y="0px"
	 width="50px" height="50px" viewBox="0 0 50 50" enable-background="new 0 0 50 50" xml:space="preserve">
<g>
	<g>
		<g>
			<path fill="#0069A8" d="M24.932,3.607C13.118,3.607,3.539,13.186,3.539,25c0,11.815,9.579,21.393,21.393,21.393
				c11.813,0,21.393-9.577,21.393-21.393C46.324,13.186,36.745,3.607,24.932,3.607z"/>
		</g>
	</g>
</g>
<path fill="#FFFFFF" d="M40.37,20.144L23.232,37.28c-0.35,0.354-0.92,0.354-1.268,0l-2.533-2.559
	c-0.348-0.35-0.92-0.924-1.266-1.277l-5.893-6.196c-0.173-0.174-0.267-0.418-0.267-0.651c0-0.228,0.093-0.451,0.267-0.625
	l2.582-2.328c0.175-0.179,0.408-0.266,0.64-0.266c0.226,0.002,0.453,0.091,0.626,0.266l5.845,5.965c0.35,0.354,0.92,0.354,1.27,0
	l13.34-13.304c0.351-0.352,0.918-0.352,1.265,0l2.531,2.559C40.72,19.213,40.72,19.791,40.37,20.144z"/>
<path fill="#FFFFFF" d="M24.932,48.785C11.816,48.785,1.146,38.115,1.146,25S11.816,1.215,24.932,1.215S48.717,11.885,48.717,25
	S38.047,48.785,24.932,48.785z M24.932,5.293C14.065,5.293,5.225,14.133,5.225,25c0,10.866,8.84,19.707,19.707,19.707
	c10.866,0,19.707-8.841,19.707-19.707C44.639,14.133,35.798,5.293,24.932,5.293z"/>
</svg>
