<?xml version="1.0" encoding="utf-8"?>
<!-- Generator: Adobe Illustrator 16.0.0, SVG Export Plug-In . SVG Version: 6.00 Build 0)  -->
<!DOCTYPE svg PUBLIC "-//W3C//DTD SVG 1.1//EN" "http://www.w3.org/Graphics/SVG/1.1/DTD/svg11.dtd">
<svg version="1.1" id="Layer_1" xmlns="http://www.w3.org/2000/svg" xmlns:xlink="http://www.w3.org/1999/xlink" x="0px" y="0px"
	 width="1000px" height="1000px" viewBox="0 0 1000 1000" enable-background="new 0 0 1000 1000" xml:space="preserve">
<circle fill="#3C525C" cx="50" cy="50" r="50"/>
<path fill="#435A66" d="M100,50c0,27.614-22.386,50-50,50C22.386,100,22.386,0,50,0C77.614,0,100,22.386,100,50z"/>
<circle fill="#7F9BA3" cx="150" cy="50" r="50"/>
<path fill="#88A6AF" d="M200,50c0,27.614-22.386,50-50,50c-27.615,0-27.615-100,0-100C177.614,0,200,22.386,200,50z"/>
<circle fill="#BFB199" cx="250" cy="50" r="50"/>
<path fill="#C7B99F" d="M300,50c0,27.614-22.386,50-50,50c-27.615,0-27.615-100,0-100C277.614,0,300,22.386,300,50z"/>
<circle fill="#BDB097" cx="550" cy="50" r="50"/>
<path fill="#C7B99F" d="M550,0c27.614,0,50,22.386,50,50c0,27.615-22.386,50-50,50S522.386,0,550,0z"/>
<circle fill="#3A3B3A" cx="450" cy="50" r="50"/>
<path fill="#424342" d="M450,0c27.615,0,50,22.386,50,50c0,27.615-22.386,50-50,50C422.386,100,422.386,0,450,0z"/>
<circle fill="#A11628" cx="350" cy="50" r="50"/>
<path fill="#AC162C" d="M400,50c0,27.614-22.387,50-50,50c-27.615,0-27.615-100,0-100C377.614,0,400,22.386,400,50z"/>
<circle fill="#3B5059" cx="650" cy="50" r="50"/>
<path fill="#435A66" d="M700,50c0,27.614-22.385,50-49.999,50s-27.614-100,0-100S700,22.386,700,50z"/>
<circle fill="#88A6AF" cx="750" cy="50" r="50"/>
<circle fill="#F5F2EB" cx="850" cy="50" r="50"/>
<circle fill="#D9CDB8" cx="950" cy="50" r="50"/>
<circle fill="#435A66" cx="950" cy="150" r="50"/>
<circle fill="#88A6AF" cx="850" cy="150" r="50"/>
<circle fill="#F5F2EB" cx="750" cy="150" r="50"/>
<circle fill="#D9CDB8" cx="450" cy="150" r="50"/>
<circle fill="#424342" cx="550" cy="150" r="50"/>
<circle fill="#AC162C" cx="650" cy="150" r="50"/>
<circle fill="#435A66" cx="350" cy="150" r="50"/>
<circle fill="#88A6AF" cx="250" cy="150" r="50"/>
<circle fill="#F5F2EB" cx="150" cy="150" r="50"/>
<circle fill="#D9CDB8" cx="50" cy="150" r="50"/>
<linearGradient id="SVGID_1_" gradientUnits="userSpaceOnUse" x1="55.0913" y1="52.2861" x2="78.8135" y2="67.5077">
	<stop  offset="0" style="stop-color:#2F3F47"/>
	<stop  offset="1" style="stop-color:#435A66"/>
</linearGradient>
<polygon fill="url(#SVGID_1_)" points="74.876,32.438 97.826,47.958 68.568,93.477 50.439,78.347 50,34.17 "/>
<linearGradient id="SVGID_2_" gradientUnits="userSpaceOnUse" x1="146.9385" y1="49.7964" x2="178.9237" y2="70.32">
	<stop  offset="0" style="stop-color:#6B838A"/>
	<stop  offset="1" style="stop-color:#88A6AF"/>
</linearGradient>
<polygon fill="url(#SVGID_2_)" points="162.872,29.071 198.063,54.078 169.229,95.049 138.549,70.454 137.445,29.464 148.188,30.25 
	"/>
<linearGradient id="SVGID_3_" gradientUnits="userSpaceOnUse" x1="547.3877" y1="50.8315" x2="574.3329" y2="68.1212">
	<stop  offset="0" style="stop-color:#948B7E"/>
	<stop  offset="1" style="stop-color:#C7B99F"/>
</linearGradient>
<polygon fill="url(#SVGID_3_)" points="556,24.729 592.191,51.737 563.357,92.708 531.855,71.421 540.667,31.714 "/>
<linearGradient id="SVGID_4_" gradientUnits="userSpaceOnUse" x1="645.1543" y1="53.0278" x2="678.1202" y2="74.1806">
	<stop  offset="0" style="stop-color:#253138"/>
	<stop  offset="1" style="stop-color:#435A66"/>
</linearGradient>
<polygon fill="url(#SVGID_4_)" points="665.365,26.091 699.806,54.39 656.168,100 617.925,74.286 638.38,27.385 "/>
<linearGradient id="SVGID_5_" gradientUnits="userSpaceOnUse" x1="353.5361" y1="51.7568" x2="376.4448" y2="66.4564">
	<stop  offset="0" style="stop-color:#801021"/>
	<stop  offset="1" style="stop-color:#AC162C"/>
</linearGradient>
<polygon fill="url(#SVGID_5_)" points="356.872,21.4 394,46.444 367.333,90.389 333,71.076 342.165,49.069 354.333,28.463 "/>
<linearGradient id="SVGID_6_" gradientUnits="userSpaceOnUse" x1="460.6992" y1="53.1875" x2="481.0526" y2="66.2474">
	<stop  offset="0" style="stop-color:#272927"/>
	<stop  offset="1" style="stop-color:#424342"/>
</linearGradient>
<polygon fill="url(#SVGID_6_)" points="465.872,22.773 494.452,45.503 469.65,92.664 442,72.449 451.165,50.442 463.333,29.836 "/>
<linearGradient id="SVGID_7_" gradientUnits="userSpaceOnUse" x1="246.8594" y1="48.5571" x2="274.848" y2="68.7149">
	<stop  offset="0" style="stop-color:#948B7E"/>
	<stop  offset="1" style="stop-color:#C7B99F"/>
</linearGradient>
<polygon fill="url(#SVGID_7_)" points="256.122,24.411 291.313,49.418 262.479,90.389 244.684,78.145 252.667,67.335 "/>
<g>
	<circle fill="#DFEDF5" cx="50.033" cy="23.971" r="2.674"/>
	<path fill="#DFEDF5" d="M50.924,27.035h-1.782c-0.2,0-0.362,0.162-0.362,0.362s0.162,0.362,0.362,0.362h1.782
		c0.201,0,0.362-0.162,0.362-0.362S51.125,27.035,50.924,27.035z"/>
	<path fill="#DFEDF5" d="M50.033,28.15c-0.33,0-0.596,0.106-0.596,0.582l0.099,17.712c0.005-0.003,0.01-0.004,0.015-0.006
		c0.205-0.105,0.409-0.212,0.614-0.318c0.096-0.052,0.192-0.081,0.286-0.094c0.037-0.019,0.075-0.037,0.113-0.056l0.066-17.238
		C50.629,28.256,50.362,28.15,50.033,28.15z"/>
	<path fill="#DFEDF5" d="M49.589,55.791c0.309-0.113,0.625-0.193,0.938-0.195l0.007-1.866c-0.315,0.059-0.636,0.083-0.956,0.086
		L49.589,55.791z"/>
	<path fill="#DFEDF5" d="M50.217,66.39c-0.188,0.083-0.376,0.163-0.567,0.235l0.01,1.765c0.023,0.02,0.047,0.041,0.068,0.062
		c0.006,0.005,0.01,0.013,0.015,0.018c0.014,0.012,0.028,0.024,0.041,0.038c0.019,0.018,0.032,0.04,0.048,0.058
		c0.168-0.105,0.344-0.191,0.532-0.246c0.039-0.011,0.077-0.019,0.114-0.025l0.007-1.823c-0.041-0.005-0.081-0.011-0.121-0.022
		C50.313,66.43,50.264,66.411,50.217,66.39z"/>
	<path fill="#DFEDF5" d="M49.674,70.897l0.01,1.801c0.038,0.03,0.075,0.064,0.106,0.102c0.03,0.02,0.057,0.044,0.083,0.07
		c0.005-0.003,0.009-0.007,0.014-0.009c0.201-0.118,0.398-0.144,0.574-0.104l0.009-2.244c-0.105-0.008-0.209-0.023-0.31-0.044
		C49.999,70.614,49.838,70.758,49.674,70.897z"/>
	<path fill="#DFEDF5" d="M50.061,74.707c-0.122,0.072-0.242,0.143-0.366,0.208l0.021,3.432c0,0.476,0.724,0.476,0.724,0l0.014-3.519
		c-0.071-0.004-0.14-0.023-0.207-0.048C50.182,74.763,50.12,74.738,50.061,74.707z"/>
	<path fill="#DFEDF5" d="M50.416,62.131c-0.003-0.002-0.005-0.004-0.008-0.006c-0.101-0.047-0.19-0.104-0.284-0.192
		c-0.168,0.047-0.335,0.093-0.501,0.148l0.013,2.075c0.119,0.039,0.228,0.101,0.319,0.185c0.161-0.048,0.325-0.089,0.492-0.115
		c0.017-0.002,0.032-0.002,0.047-0.004l0.008-2.053c-0.029-0.013-0.058-0.025-0.086-0.039V62.131z"/>
	<path fill="#DFEDF5" d="M49.609,59.552c0.053,0.052,0.099,0.11,0.138,0.174c0.015,0.026,0.026,0.053,0.038,0.081
		c0.21-0.074,0.42-0.145,0.635-0.207c0.031-0.009,0.062-0.016,0.092-0.021l0.005-1.555c-0.303,0.09-0.61,0.172-0.914,0.262
		L49.609,59.552z"/>
	<path fill="#DFEDF5" d="M49.555,49.684l0.008,1.696c0.269-0.068,0.536-0.138,0.801-0.22c0.063-0.019,0.123-0.03,0.18-0.037
		l0.006-1.671c-0.117-0.009-0.23-0.024-0.345-0.044C49.992,49.508,49.776,49.601,49.555,49.684z"/>
	<g>
		<path fill="#DFEDF5" d="M46.24,31.979c-1.045-0.524-0.11-1.259,0.265-1.936c0.384-0.692,0.835-1.832,0.67-2.619
			c-0.222-1.052-1.394-1.795-2.38-1.951c-1.245-0.196-1.933,0.261-2.913,0.893c-1.03,0.665-1.884,1.2-3.051,1.668
			c-3.819,1.536-9.583,4.014-13.706,4.403c0.92,1.179,2.492,2.213,3.947,2.294c-0.081,0.733,1.306,1.505,1.891,1.706
			c0.71,0.243,1.795,0.229,2.449-0.146c0.919,1.398,3.046,1.892,4.404,0.777c0.079,0.679,1.279,1.043,1.81,1.165
			c0.989,0.224,1.529-0.117,2.437-0.325c0.569-0.13,0.812,0.236,1.432,0.379c0.73,0.168,1.247,0.104,1.91-0.222
			c0.291-0.144,0.178-0.233,0.488-0.209c0.184,0.013,0.462,0.23,0.68,0.265c0.601,0.092,1.011-0.359,1.338-0.781
			c0.328-0.42,0.71-1.325,1.058-2.288l-0.015-2.929C47.949,32.243,46.572,32.146,46.24,31.979z"/>
		<path fill="#DFEDF5" d="M58.12,26.366c-0.98-0.632-1.668-1.089-2.913-0.893c-0.986,0.156-2.158,0.899-2.38,1.951
			c-0.167,0.787,0.286,1.926,0.67,2.619c0.375,0.676,1.31,1.411,0.265,1.936c-0.324,0.163-1.646,0.26-2.644,0.153l-0.012,3.125
			c0.329,0.885,0.679,1.694,0.984,2.084c0.327,0.421,0.737,0.873,1.338,0.781c0.22-0.034,0.497-0.252,0.68-0.265
			c0.31-0.024,0.197,0.065,0.488,0.209c0.664,0.325,1.18,0.39,1.91,0.222c0.619-0.143,0.862-0.509,1.432-0.379
			c0.908,0.208,1.448,0.548,2.437,0.325c0.531-0.122,1.731-0.486,1.81-1.165c1.358,1.115,3.485,0.622,4.404-0.777
			c0.654,0.375,1.739,0.39,2.449,0.146c0.585-0.201,1.972-0.973,1.89-1.706c1.456-0.081,3.027-1.115,3.948-2.294
			c-4.123-0.39-9.886-2.868-13.706-4.403C60.004,27.566,59.15,27.031,58.12,26.366z"/>
	</g>
	<path fill="#DFEDF5" d="M43.498,43.643c-0.823-0.562,0.196-1.13,0.597-1.272c1.075-0.381,2.25-0.785,3.137-1.577
		c0.335-0.301,0.861-1.216,0.324-1.591c-0.396-0.275-1.557,0.021-1.998,0.085c-0.59,0.087-1.338,0.164-1.85,0.523
		c-0.304,0.212-1.952,0.805-2.555,2.362c-0.302,0.78-0.192,1.816,0.37,2.506c1.109,1.254,2.271,1.706,3.527,2.324
		c0.337,0.152,0.88,0.391,1.6,0.696c0.103-0.1,2.025-0.788,2.74-1.284c-1.66-0.695-2.845-1.224-3.407-1.477
		C44.847,44.435,44.033,44.01,43.498,43.643z"/>
	<path fill="#DFEDF5" d="M50.62,73.987c-0.166,0.173-0.228,0.28-0.403,0.452c0.054,0.061,0.172,0.177,0.219,0.238
		c0.979,1.109,0.366,1.976,0.485,1.998c0.019,0.016,0.22-0.118,0.356-0.536c0.144-0.413,0.035-1.125-0.411-1.772
		C50.823,74.272,50.689,74.082,50.62,73.987z"/>
	<path fill="#DFEDF5" d="M51.765,65.533c-0.01,0.008-0.021,0.017-0.033,0.025c-0.414,0.293-0.84,0.563-1.283,0.805
		c0.605,0.286,1.102,0.615,1.242,0.705c0.103,0.065-0.377,0.785-0.852,1.108c-0.495,0.425-1.044,0.809-1.561,1.224
		c-0.506,0.424-1.044,0.845-1.35,1.559c-0.34,0.796,0.089,1.532,0.576,1.929c0.231,0.19,0.599,0.599,0.801,0.772
		c0.039-0.103,0.334-0.307,0.424-0.523c-1.067-0.891-1.719-1.972,0.147-2.95c0.503-0.362,1.074-0.715,1.654-1.164
		c0.29-0.227,0.584-0.479,0.858-0.811c0.215-0.319,0.724-0.777,0.428-1.538C52.568,66.034,52.171,65.73,51.765,65.533z"/>
	<path fill="#DFEDF5" d="M53.269,57.134c-0.073,0.052-1.74,0.691-2.456,1.03c0.349,0.098,0.696,0.196,1.031,0.301
		c0.229,0.057,0.432,0.146,0.552,0.199c-0.031,0.047-0.075,0.102-0.142,0.157c-0.208,0.214-0.477,0.342-0.894,0.541
		c-0.774,0.364-1.579,0.723-2.366,1.11c-0.8,0.487-1.577,0.54-2.427,1.69c-0.49,0.662-0.091,1.642,0.265,1.97
		c0.358,0.414,0.735,0.677,1.106,0.919c0.133,0.085,0.265,0.162,0.396,0.237c0.419-0.334,0.913-0.504,1.348-0.791
		c-0.341-0.189-0.677-0.384-0.983-0.597c-0.647-0.393-1.072-1.05-0.869-0.996c0.147-0.237,1.133-0.723,1.825-1.035
		c0.769-0.349,1.562-0.674,2.38-1.031c0.375-0.163,0.922-0.397,1.349-0.801c0.337-0.335,1.186-1.067,0.595-2.159
		C53.767,57.483,53.517,57.267,53.269,57.134z"/>
	<path fill="#DFEDF5" d="M54.679,48.52c-0.443-0.22-0.921-0.405-1.351-0.562c-0.46,0.356-2.428,1.115-2.851,1.286
		c0.488,0.188,1.006,0.38,1.557,0.573c0.641,0.215,1.149,0.386,1.719,0.651c0.141,0.066,0.282,0.136,0.413,0.208
		c-0.198,0.071-0.408,0.136-0.62,0.199c-0.676,0.189-1.418,0.331-2.186,0.455c-1.482,0.262-3.338,0.231-5.125,1.194
		c-0.463,0.249-0.94,0.486-1.391,1.172c-0.222,0.336-0.325,0.968-0.151,1.409c0.18,0.45,0.42,0.706,0.642,0.917
		c0.447,0.369,0.881,0.623,1.311,0.824c0.514-0.111,0.973-0.343,1.464-0.532c0.106-0.041,0.214-0.078,0.322-0.114
		c0.274-0.113,0.548-0.227,0.823-0.337c-0.223-0.069-0.442-0.14-0.653-0.219c-0.762-0.274-1.575-0.638-1.991-1.018
		c-0.017-0.009-0.03-0.018-0.041-0.028c0.109-0.088,0.324-0.236,0.534-0.335c1.288-0.633,2.895-0.673,4.56-0.914
		c0.815-0.117,1.623-0.253,2.427-0.461c0.403-0.113,0.797-0.237,1.21-0.398c0.714-0.28,1.179-0.633,1.445-1.498
		C57.145,49.694,55.02,48.687,54.679,48.52z"/>
	<path fill="#DFEDF5" d="M51.045,69.673c-0.236,0.198-0.597,0.551-0.725,0.626c2.521,1.464-0.598,2.78-1.188,4.068
		c-0.446,0.647-0.555,1.36-0.411,1.772c0.137,0.418,0.337,0.552,0.356,0.536c0.12-0.022-0.494-0.889,0.484-1.998
		c0.44-0.553,1.123-1.079,1.932-1.79c0.407-0.337,0.917-1.133,0.576-1.929C51.829,70.396,51.444,70.016,51.045,69.673z"/>
	<path fill="#DFEDF5" d="M52.209,61.031c-0.004,0.002-1.205,0.634-1.755,0.89c0.682,0.312,1.573,0.76,1.712,0.984
		c0.204-0.054-0.222,0.604-0.869,0.996c-0.608,0.423-1.331,0.777-1.996,1.165c-0.589,0.387-1.635,0.36-2.121,1.608
		c-0.296,0.761,0.214,1.219,0.428,1.538c0.273,0.332,0.568,0.583,0.858,0.811c0.11,0.084,0.219,0.165,0.327,0.243
		c0.327-0.201,0.658-0.393,0.986-0.592c-0.211-0.163-0.42-0.325-0.62-0.498c-0.475-0.323-0.954-1.043-0.852-1.108
		c0.166-0.106,0.828-0.545,1.578-0.854c0.696-0.37,1.424-0.687,2.173-1.162c0.371-0.242,0.749-0.505,1.106-0.919
		c0.356-0.328,0.754-1.308,0.266-1.97C52.981,61.554,52.632,61.253,52.209,61.031z"/>
	<path fill="#DFEDF5" d="M54.533,53c-0.554,0.205-2.746,0.649-3.246,0.753c0.572,0.112,1.113,0.268,1.605,0.51
		c0.21,0.099,0.427,0.247,0.534,0.335c-0.01,0.01-0.023,0.019-0.041,0.028c-0.416,0.379-1.229,0.744-1.991,1.018
		c-0.769,0.283-1.623,0.496-2.487,0.763c-0.429,0.13-0.858,0.263-1.295,0.412c-0.38,0.187-1.091,0.128-1.596,1.06
		c-0.591,1.092,0.258,1.824,0.595,2.159c0.333,0.315,0.738,0.526,1.079,0.681c0.62-0.268,1.258-0.491,1.881-0.753
		c0.055-0.031,0.109-0.063,0.162-0.095c-0.369-0.17-0.735-0.339-1.096-0.508c-0.417-0.199-0.685-0.327-0.892-0.541
		c-0.067-0.055-0.113-0.11-0.144-0.157c0.121-0.053,0.324-0.142,0.553-0.199c0.403-0.125,0.823-0.245,1.243-0.36
		c0.832-0.236,1.703-0.428,2.598-0.731c0.885-0.321,1.75-0.596,2.667-1.353c0.223-0.211,0.462-0.467,0.642-0.917
		c0.176-0.44,0.071-1.072-0.151-1.409C54.951,53.385,54.742,53.168,54.533,53z"/>
	<path fill="#DFEDF5" d="M56.29,39.81c-0.513-0.359-1.261-0.436-1.851-0.523c-0.44-0.064-1.602-0.36-1.996-0.085
		c-0.538,0.375-0.013,1.29,0.324,1.591c0.888,0.792,2.062,1.196,3.136,1.577c0.401,0.142,1.42,0.71,0.597,1.272
		c-0.535,0.367-1.349,0.792-2.485,1.295c-0.595,0.269-1.884,0.844-3.7,1.6c-0.906,0.375-1.95,0.802-3.084,1.221
		c-0.536,0.188-1.262,0.441-1.913,0.762c-0.339,0.167-2.464,1.174-2.067,2.472c0.265,0.864,0.73,1.218,1.444,1.498
		c0.262,0.102,0.517,0.188,0.771,0.268c0.044-0.053,0.096-0.102,0.157-0.148c0.72-0.54,1.519-1.096,2.386-1.389
		c-0.543-0.099-1.068-0.21-1.559-0.347c-0.212-0.063-0.422-0.127-0.62-0.199c0.131-0.072,0.272-0.142,0.413-0.208
		c0.57-0.265,1.079-0.436,1.719-0.651c1.209-0.426,2.265-0.843,3.195-1.215c1.854-0.746,3.17-1.32,3.79-1.6
		c1.255-0.619,2.419-1.07,3.527-2.324c0.563-0.69,0.672-1.727,0.37-2.506C58.242,40.614,56.594,40.022,56.29,39.81z"/>
</g>
<path fill="#FFFFFF" d="M157.904,27.075c-5.614-0.217-5.122,2.33-9.717,2.403c-4.593-0.073-4.102-2.62-9.716-2.403
	c-10.013,0.385-6.092,12.76-4.896,15.95c3.466,9.244,3.49,11.549,3.355,15.822c-0.385,12.229,1.443,12.231,4.332,12.229
	c2.028-0.001,2.654-10.379,2.545-14.147c-0.154-5.351,8.463-6.122,8.758,0c0.182,3.766,0.518,14.146,2.546,14.147
	c2.888,0.002,4.717-0.001,4.332-12.229c-0.134-4.273-0.111-6.578,3.355-15.822C163.996,39.835,167.917,27.459,157.904,27.075z
	 M155.487,32.839c-3.999,1.172-8.721,2.722-11.821,5.698c-0.806,0.774-2.033-0.45-1.226-1.226c1.098-1.052,2.377-1.941,3.752-2.707
	c-0.292-0.327-0.611-0.628-0.94-0.917c-1.02-0.896-2.253-1.481-3.584-1.724c-1.099-0.201-0.632-1.871,0.46-1.672
	c2.208,0.404,4.241,1.746,5.634,3.506c2.372-1.121,4.919-1.943,7.265-2.631C156.101,30.853,156.557,32.524,155.487,32.839z"/>
<g>
	<path fill="#F5F2EB" d="M250,78.145c-9.021,0-16.359-7.339-16.359-16.359c0-7.235,4.643-13.52,11.553-15.641l0.771-0.236V29.078
		c0-1.156,0.7-2.132,1.527-2.132h5.017c0.828,0,1.527,0.976,1.527,2.132v16.831l0.77,0.236c6.911,2.121,11.554,8.406,11.554,15.641
		C266.36,70.806,259.021,78.145,250,78.145z"/>
	<path fill="#6C6E6C" d="M255.774,44.901V30.747c0-2.209-1.544-4.006-3.444-4.006h-4.66c-1.899,0-3.444,1.797-3.444,4.006v14.154
		c-3.16,1.128-5.982,3.202-8.006,5.898c-2.251,2.998-3.441,6.57-3.441,10.329c0,9.496,7.725,17.222,17.222,17.222
		c9.496,0,17.222-7.726,17.222-17.222c0-3.759-1.19-7.331-3.441-10.329C261.756,48.103,258.935,46.029,255.774,44.901z M250,76.324
		c-8.379,0-15.195-6.817-15.195-15.196c0-6.72,4.312-12.558,10.731-14.528l0.716-0.219V30.747c0-1.073,0.65-1.98,1.418-1.98h4.66
		c0.769,0,1.418,0.907,1.418,1.98v15.634l0.715,0.219c6.419,1.97,10.732,7.808,10.732,14.528
		C265.196,69.507,258.379,76.324,250,76.324z"/>
	<path fill="#6C6E6C" d="M255.445,24.411h-10.889c-0.787,0-1.424,0.907-1.424,2.026c0,1.12,0.638,2.026,1.424,2.026h10.889
		c0.786,0,1.424-0.907,1.424-2.026C256.869,25.317,256.231,24.411,255.445,24.411z"/>
	<path fill="#6C6E6C" d="M236.292,59.766c-0.043,0.449-0.069,0.903-0.069,1.363c0,7.597,6.181,13.777,13.777,13.777
		s13.777-6.18,13.777-13.777c0-0.459-0.025-0.914-0.068-1.363H236.292z"/>
</g>
<path fill="none" stroke="#E3F1FA" stroke-width="3" stroke-linecap="square" stroke-miterlimit="10" d="M466.223,22.467
	c0.092,0,0.184,0,0.276,0c0.053,0.96,0.106,1.92,0.156,2.841c0.35-0.442,0.723-0.913,1.095-1.384
	c0.059,0.021,0.117,0.041,0.176,0.061c0.066,0.627,0.132,1.255,0.198,1.889c0.399-0.132,0.651,0.016,0.754,0.438
	c0.339,1.392,0.339,2.701-0.846,3.672c0.448,0.518,0.914,1.003,1.312,1.54c0.218,0.294,0.479,0.712,0.147,1.046
	c-0.315,0.315-0.71,0.068-1.066-0.078c-0.223-0.091-0.468-0.128-0.735-0.198c0,0.609,0.046,1.118-0.009,1.615
	c-0.136,1.229-1,1.849-2.195,1.566c-0.442-0.104-0.856-0.33-1.325-0.516c0.063,0.406,0.126,0.797,0.182,1.189
	c0.149,1.054,0.611,2.069,0.382,3.167c-0.241,1.154-0.449,2.317-0.742,3.458c-0.148,0.575-0.132,1.075,0.16,1.585
	c0.211,0.37,0.301,0.763,0.125,1.188c-0.056,0.135-0.054,0.3-0.056,0.451c-0.037,2.953-0.759,5.75-1.838,8.484
	c-0.56,1.419-1.521,2.423-2.89,2.979c-0.832,0.338-1.151,0.851-1.296,1.695c-0.319,1.857-0.9,3.629-2.137,5.115
	c-0.353,0.424-0.72,0.836-1.052,1.276c-0.572,0.756-1.099,1.547-1.691,2.287c-0.249,0.311-0.614,0.529-0.959,0.817
	c0.844,1.815,1.846,3.635,3.083,5.321c0.149,0.204,0.293,0.21,0.506,0.13c0.358-0.135,0.727-0.24,1.088-0.365
	c0.714-0.246,1.44-0.29,2.171-0.102c0.136,0.035,0.25,0.156,0.374,0.237c-0.12,0.063-0.234,0.146-0.362,0.185
	c-0.169,0.053-0.348,0.072-0.523,0.105c0.917,0.056,1.823-0.289,2.738-0.09c0.017,0.056,0.034,0.111,0.051,0.167
	c-1.061,0.49-2.122,0.98-3.183,1.47c-0.006,0.043-0.014,0.087-0.021,0.13c0.92-0.008,1.415,0.616,1.951,1.189
	c0.178,0.191,0.151,0.334,0.013,0.506c-0.031,0-0.061,0-0.092,0c-0.633-0.244-1.249-0.58-1.905-0.711
	c-0.988-0.199-2.007-0.243-3.008-0.381c-0.211-0.029-0.441-0.14-0.601-0.283c-0.526-0.467-1.242-0.531-1.863-0.191
	c-0.336,0.185-0.727,0.271-1.114,0.41c0.229-1.049,0.916-1.51,1.865-1.661c-0.555-0.922-1.066-1.771-1.561-2.592
	c-1.182,0.24-2.325,0.473-3.47,0.706c-0.019,0.038-0.038,0.077-0.057,0.115c0.874,0.224,1.27,0.895,1.609,1.609
	c0.053,0.111,0.021,0.261,0.028,0.393c-0.118-0.033-0.252-0.039-0.351-0.103c-0.424-0.272-0.806-0.639-1.262-0.829
	c-1.031-0.428-2.084-0.816-3.155-1.129c-0.54-0.158-1.126-0.188-1.626,0.293c-0.253,0.243-0.647,0.339-0.985,0.506
	c0.047-1.169,0.838-1.614,1.64-1.901c-0.703-2.368-1.384-4.669-2.074-6.967c-0.031-0.104-0.118-0.208-0.207-0.276
	c-0.487-0.37-0.966-0.756-1.479-1.085c-0.872-0.561-1.723-1.192-2.668-1.59c-0.872-0.367-1.56-0.826-1.955-1.682
	c-0.237-0.513-0.429-1.047-0.674-1.556c-0.082-0.169-0.238-0.344-0.405-0.424c-0.523-0.251-1.068-0.459-1.605-0.684
	c-1.483-0.619-2.581-1.621-3.147-3.156c-0.13-0.354-0.28-0.699-0.402-1c-0.708,0.076-1.36,0.197-2.012,0.203
	c-0.697,0.006-0.978-0.344-0.974-1.056c-0.075,0-0.151,0.007-0.225-0.001c-0.528-0.062-1.075-0.061-1.579-0.208
	c-0.522-0.152-0.572-0.644-0.146-0.978c0.221-0.173,0.475-0.304,0.752-0.477c-0.293-0.088-0.544-0.15-0.787-0.24
	c-0.316-0.115-0.657-0.317-0.568-0.669c0.066-0.259,0.348-0.55,0.603-0.653c0.408-0.164,0.874-0.183,1.363-0.271
	c-0.184-0.048-0.33-0.083-0.473-0.125c-0.817-0.242-1.634-0.486-2.451-0.729c0-0.092,0-0.185,0-0.276
	c0.713-0.73,1.668-0.532,2.589-0.648c-0.127-0.18-0.238-0.322-0.335-0.472c-0.566-0.874-1.148-1.739-1.685-2.631
	c-0.21-0.349-0.364-0.749-0.453-1.146c-0.048-0.214,0.025-0.554,0.176-0.684c0.115-0.099,0.461-0.006,0.662,0.09
	c0.243,0.116,0.45,0.315,0.656,0.498c0.376,0.334,0.739,0.683,1.108,1.025c-0.007-0.152-0.069-0.253-0.126-0.356
	c-0.61-1.08-1.259-2.141-1.812-3.25c-0.267-0.535-0.41-1.15-0.503-1.745c-0.074-0.476,0.261-0.682,0.734-0.552
	c0.084,0.022,0.222,0.085,0.248,0.055c0.339-0.395,0.682-0.169,1.091,0.042c-0.241-0.648-0.485-1.208-0.656-1.789
	c-0.181-0.613-0.316-1.243-0.418-1.874c-0.027-0.169,0.093-0.462,0.229-0.53c0.139-0.07,0.448,0.002,0.567,0.125
	c0.468,0.48,0.893,1.002,1.328,1.515c0.114,0.133,0.207,0.286,0.31,0.429c0.022-0.207-0.057-0.356-0.095-0.516
	c-0.2-0.829-0.43-1.654-0.558-2.495c-0.036-0.234,0.175-0.618,0.386-0.743c0.178-0.105,0.555,0.003,0.779,0.13
	c0.303,0.17,0.544,0.45,0.812,0.682c-0.025-0.249-0.132-0.449-0.206-0.66c-0.207-0.591-0.444-1.178-0.579-1.786
	c-0.06-0.271,0.002-0.686,0.18-0.867c0.275-0.282,0.719-0.205,1.017,0.04c0.35,0.289,0.721,0.61,0.927,1
	c0.737,1.392,1.438,2.806,2.097,4.236c0.903,1.962,1.718,3.969,2.962,5.752c0.328,0.471,0.684,1.101,1.156,1.251
	c0.756,0.24,1.621,0.19,2.438,0.17c0.805-0.02,1.608-0.235,2.411-0.224c1.286,0.018,2.57,0.171,3.856,0.226
	c0.386,0.016,0.826-0.014,1.159-0.185c1.143-0.584,2.256-1.229,3.366-1.875c0.376-0.219,0.721-0.426,1.193-0.346
	c0.223,0.038,0.483-0.06,0.709-0.142c0.997-0.363,1.799-1.033,2.588-1.71c0.26-0.223,0.498-0.519,0.631-0.831
	c0.49-1.139,0.914-2.306,1.399-3.446c0.389-0.914,0.759-1.849,1.266-2.697c0.767-1.282,2.022-2.069,3.239-2.877
	c0.666-0.443,1.324-0.888,2.151-0.969c0.191-0.019,0.381-0.049,0.55-0.071c-0.283-0.869-0.575-1.705-0.82-2.555
	c-0.072-0.249-0.011-0.536-0.011-0.805c0.042-0.009,0.083-0.019,0.125-0.028c0.432,0.393,0.864,0.786,1.321,1.201
	c0.143-0.695,0.269-1.311,0.396-1.926c0.069-0.012,0.137-0.024,0.205-0.036c0.321,0.657,0.642,1.314,0.971,1.987
	C465.381,24.056,465.802,23.261,466.223,22.467z M451.785,71.804c-0.598-1.115-1.166-2.18-1.743-3.24
	c-0.053-0.097-0.157-0.207-0.257-0.231c-0.431-0.107-0.658-0.422-0.857-0.776c-0.398-0.707-0.8-1.411-1.192-2.121
	c-0.315-0.571-0.892-0.808-1.44-0.994c-0.229-0.078-0.588,0.222-0.885,0.357c-0.209,0.095-0.406,0.22-0.62,0.298
	c-0.283,0.103-0.371,0.262-0.279,0.555c0.433,1.37,0.798,2.764,1.296,4.109c0.461,1.248,0.131,1.011,1.47,0.894
	c0.916-0.081,1.807-0.053,2.634,0.4c0.095,0.052,0.146,0.184,0.218,0.279c-0.1,0.04-0.2,0.115-0.299,0.114
	c-0.316-0.006-0.632-0.042-0.949-0.065c-0.002,0.018-0.003,0.036-0.005,0.054C449.829,71.556,450.781,71.677,451.785,71.804z"/>
<g>
	<path fill-rule="evenodd" clip-rule="evenodd" fill="#E3F1FA" d="M351.111,19.156c1.043,0.38,1.881,1.146,2.142,2.302
		c6.418-1.284,6.141,1.957,3.722,5.97c-1.288,2.137-1.953,4.233-1.953,4.233s-1.788,0.014-3.912,0.026v-1.65
		c3.036-3.85,2.253-7.536,0-9.542V19.156L351.111,19.156z M351.111,28.836c0.669-2.222,0.625-4.533,0-6.429V28.836z M344.161,31.702
		c0,0-0.69-2.183-2.285-4.653c-2.546-3.946-2.325-7.252,3.438-5.385c0.645-2.438,3.654-3.288,5.798-2.508v1.34
		c-0.581-0.517-1.259-0.922-1.996-1.19c0.898,0.747,1.577,1.832,1.996,3.102v6.429c-0.241,0.8-0.574,1.587-1.006,2.34
		c0.375-0.379,0.708-0.759,1.006-1.138v1.65C348.008,31.708,344.185,31.727,344.161,31.702z"/>
	<path fill-rule="evenodd" clip-rule="evenodd" fill="#E3F1FA" d="M343.187,32.625h12.504c0.562,0,1.023,0.46,1.023,1.022v1.494
		c0,0.562-0.46,1.022-1.023,1.022h-12.504c-0.562,0-1.022-0.46-1.022-1.022v-1.494C342.165,33.086,342.625,32.625,343.187,32.625z"
		/>
	<g>
		<path fill="#E3F1FA" d="M351.644,53.528c-0.243-0.134-0.546-0.259-0.909-0.378v4.117c0.342-0.042,0.645-0.153,0.909-0.333
			c0.142-0.097,0.273-0.213,0.394-0.35c0.343-0.39,0.516-0.875,0.516-1.452c0-0.49-0.123-0.885-0.364-1.183
			C352.067,53.803,351.885,53.662,351.644,53.528z"/>
		<path fill="#E3F1FA" d="M348.693,48.552c-0.303,0.341-0.454,0.744-0.454,1.21c0,0.459,0.128,0.846,0.388,1.157
			c0.117,0.141,0.271,0.269,0.461,0.384c0.229,0.139,0.512,0.259,0.849,0.36v-3.742c-0.326,0.049-0.609,0.147-0.849,0.297
			C348.94,48.311,348.808,48.423,348.693,48.552z"/>
		<path fill="#E3F1FA" d="M368.973,64.89c0.825-8.22-0.575-16.034-6.94-22.338c-1.756-1.739-3.89-3.364-6.459-4.849h-11.72
			c0,0-15.455,7.131-14.113,27.188c0,0,0.137,6.186,3.26,6.186h29.033h3.806C369.187,71.076,368.973,64.89,368.973,64.89z
			 M353.047,57.388c-0.391,0.413-0.86,0.699-1.404,0.859c-0.283,0.084-0.586,0.133-0.909,0.149v1.367h-0.797v-1.352
			c-0.31-0.039-0.593-0.091-0.849-0.158c-0.304-0.079-0.571-0.178-0.8-0.296c-0.423-0.218-0.791-0.572-1.098-1.057
			c-0.307-0.487-0.487-1.08-0.536-1.78l1.359-0.256c0.105,0.726,0.29,1.259,0.557,1.601c0.159,0.202,0.332,0.366,0.518,0.493
			c0.257,0.175,0.541,0.279,0.849,0.31v-4.304c-0.28-0.053-0.563-0.134-0.849-0.243c-0.283-0.107-0.567-0.241-0.857-0.403
			c-0.431-0.241-0.761-0.575-0.995-1.001c-0.234-0.426-0.349-0.908-0.349-1.449c0-0.962,0.341-1.741,1.021-2.336
			c0.298-0.264,0.692-0.459,1.18-0.588c0.256-0.067,0.54-0.117,0.849-0.147v-0.647h0.797v0.647c0.332,0.031,0.635,0.09,0.909,0.177
			c0.374,0.119,0.695,0.29,0.96,0.512c0.592,0.49,0.946,1.164,1.067,2.021l-1.398,0.21c-0.08-0.531-0.246-0.938-0.5-1.221
			c-0.041-0.045-0.084-0.089-0.13-0.129c-0.237-0.21-0.54-0.354-0.909-0.43v3.899c0.371,0.093,0.674,0.176,0.909,0.246
			c0.195,0.059,0.343,0.11,0.442,0.153c0.421,0.186,0.765,0.411,1.029,0.675c0.267,0.267,0.471,0.583,0.613,0.947
			c0.144,0.367,0.215,0.762,0.215,1.188C353.943,55.982,353.643,56.762,353.047,57.388z M362.981,68.469
			c3.498-6.356,1.901-14.133-0.949-19.96c-1.605-3.281-3.606-5.944-5.319-7.387c1.664,0.807,3.578,2.422,5.319,4.531
			C366.991,51.658,370.554,61.676,362.981,68.469z"/>
	</g>
</g>
<g>
	<path fill="#FAF4E9" d="M566.815,46.868h-2.468v-8.22c0-4.099-1.557-7.858-4.122-10.603c-2.556-2.741-6.207-4.508-10.226-4.499
		c-4.024-0.009-7.673,1.758-10.228,4.499c-2.569,2.744-4.125,6.504-4.125,10.603v8.22h-2.47c-1.015,0-1.846,0.827-1.846,1.846
		v21.731c0,1.027,0.831,1.854,1.846,1.854h33.638c1.024,0,1.852-0.826,1.852-1.854V48.714
		C568.667,47.694,567.84,46.868,566.815,46.868z M554.081,66.254c0,2.265-1.837,4.101-4.1,4.101c-2.265,0-4.1-1.836-4.1-4.101
		v-7.527c0-2.265,1.835-4.101,4.1-4.101c2.263,0,4.1,1.836,4.1,4.101V66.254z M557.533,46.868H542.46v-8.22
		c0-2.362,0.902-4.461,2.29-5.946c1.399-1.486,3.227-2.344,5.25-2.344c2.021,0,3.846,0.858,5.242,2.344
		c1.397,1.484,2.291,3.584,2.291,5.946V46.868z"/>
	<path fill="#FAF4E9" d="M550,56.811c-1.306,0-2.362,1.058-2.362,2.362v6.299c0,1.305,1.057,2.362,2.362,2.362
		c1.305,0,2.361-1.057,2.361-2.362v-6.299C552.361,57.869,551.305,56.811,550,56.811z"/>
</g>
<g>
	<polygon fill="#DFEDF5" points="681.5,59.515 677.692,59.515 676.801,65.635 676.734,53.865 623.271,53.865 623.271,65.635 
		622.309,59.515 618.5,59.515 621.076,67.055 618.5,74.286 631.872,74.286 631.872,68.752 623.271,68.086 676.731,68.086 
		668.129,68.752 668.129,74.286 681.5,74.286 678.924,67.055 	"/>
	<path fill="#DFEDF5" d="M636.004,70.316l3.257-0.537h-5.585C634.354,70.255,635.188,70.449,636.004,70.316z"/>
	<path fill="#DFEDF5" d="M643.698,70.375l3.549,3.594c0.596,0.604,1.407,0.944,2.253,0.944c0.842,0,1.657-0.34,2.248-0.944
		l3.551-3.594c0.254-0.257,0.553-0.444,0.869-0.596h-13.34C643.146,69.931,643.444,70.118,643.698,70.375z"/>
	<path fill="#DFEDF5" d="M662.995,70.316c0.815,0.133,1.651-0.061,2.326-0.537h-5.585L662.995,70.316z"/>
	<path fill="#DFEDF5" d="M626.346,46.497c0.464,0.895,0.464,1.958,0,2.85l-1.464,2.828h6.5c-0.396-1.512-0.628-3.091-0.628-4.727
		c0-10.335,8.408-18.746,18.746-18.746s18.745,8.41,18.745,18.746c0,1.636-0.233,3.214-0.628,4.727h6.499l-1.467-2.828
		c-0.467-0.891-0.467-1.955,0-2.85l2.323-4.487c0.388-0.749,0.457-1.623,0.195-2.428c-0.261-0.804-0.837-1.471-1.59-1.85
		l-4.511-2.259c-0.905-0.453-1.532-1.317-1.685-2.31l-0.752-4.988c-0.121-0.837-0.579-1.59-1.266-2.084
		c-0.682-0.499-1.537-0.7-2.37-0.563l-4.988,0.823c-0.993,0.162-2.003-0.166-2.708-0.883l-3.551-3.598
		c-0.591-0.599-1.406-0.939-2.248-0.939c-0.846,0-1.657,0.34-2.253,0.939l-3.549,3.598c-0.703,0.718-1.718,1.045-2.711,0.883
		l-4.983-0.823c-0.835-0.136-1.69,0.065-2.374,0.563c-0.686,0.494-1.142,1.247-1.267,2.084l-0.752,4.988
		c-0.15,0.993-0.775,1.856-1.681,2.31l-4.512,2.259c-0.755,0.378-1.329,1.045-1.59,1.85c-0.264,0.805-0.193,1.679,0.196,2.428
		L626.346,46.497z"/>
	<path fill="#DFEDF5" d="M664.932,52.174c0.467-1.507,0.717-3.106,0.717-4.765c0-8.884-7.225-16.11-16.106-16.11
		c-8.885,0-16.11,7.226-16.11,16.11c0,1.658,0.251,3.257,0.719,4.765h3.596c-0.595-1.475-0.932-3.079-0.932-4.765
		c0-7.018,5.709-12.727,12.728-12.727c7.016,0,12.725,5.709,12.725,12.727c0,1.686-0.337,3.29-0.935,4.765H664.932z"/>
</g>
</svg>
