<svg id="Layer_1" data-name="Layer 1" xmlns="http://www.w3.org/2000/svg" viewBox="0 0 541 333.02"><defs><style>.cls-1{fill:#17172b;}.cls-2,.cls-3{fill:#927a2e;}.cls-3{font-size:29px;font-family:MyriadPro-Semibold, Myriad Pro;font-weight:700;letter-spacing:0.25em;}.cls-4{letter-spacing:0.28em;}</style></defs><title>Canapi-Coming-Soon</title><path class="cls-1" d="M137.44,225.16a32.73,32.73,0,0,1-8.85,3.75,39.84,39.84,0,0,1-23.14-.78,30.68,30.68,0,0,1-10.13-5.93,26.23,26.23,0,0,1-6.57-9,28.75,28.75,0,0,1,0-22.63,26.36,26.36,0,0,1,6.57-9,30.83,30.83,0,0,1,10.13-5.92,38.2,38.2,0,0,1,13.09-2.13,35.18,35.18,0,0,1,9.73,1.31,42.5,42.5,0,0,1,8.61,3.48l-4.17,10.8a34,34,0,0,0-6.84-2.7,27.11,27.11,0,0,0-7.17-1,23,23,0,0,0-7.41,1.13,15.13,15.13,0,0,0-5.6,3.26,14.32,14.32,0,0,0-3.53,5.21,18.15,18.15,0,0,0-1.24,6.89,17.92,17.92,0,0,0,1.24,6.86,14.42,14.42,0,0,0,3.53,5.17,15.63,15.63,0,0,0,5.6,3.3,22.5,22.5,0,0,0,7.41,1.16,28.29,28.29,0,0,0,7.45-1,30.08,30.08,0,0,0,7.2-3Z"/><path class="cls-1" d="M196.23,229.36l-4.41-10H171.56l-4.4,10H153.31L180.93,174h1.85l27.62,55.38Zm-14.5-32.9-5.84,13.19H187.5Z"/><path class="cls-1" d="M279.12,230.41l-35.39-29.75v28.7H230.11V173.68l1.85-.3,34.91,29.53V174.43h13.61v55.76Z"/><path class="cls-1" d="M343.12,229.36l-4.41-10H318.45l-4.4,10H300.2L327.82,174h1.85l27.62,55.38Zm-14.5-32.9-5.84,13.19h11.61Z"/><path class="cls-1" d="M419.45,193.61a19.77,19.77,0,0,1-1.52,7.83,16.7,16.7,0,0,1-4.53,6.15,21.69,21.69,0,0,1-7.45,4,33.06,33.06,0,0,1-10.29,1.46c-1,0-1.81,0-2.56,0s-1.57-.06-2.48-.11v16.41H377V175q9-.9,16.33-.9a38.12,38.12,0,0,1,11.25,1.5,25,25,0,0,1,8.17,4.12,17.39,17.39,0,0,1,5,6.18A18,18,0,0,1,419.45,193.61Zm-13.94.23a7.36,7.36,0,0,0-2.4-5.62q-2.4-2.25-7.45-2.25c-.9,0-1.71,0-2.4.07s-1.57.13-2.64.23v15.66l2.28.11c.56,0,1.16,0,1.8,0q5.44,0,8.13-2.1A7.3,7.3,0,0,0,405.51,193.84Z"/><path class="cls-1" d="M443.24,229.36V174.43h13.62v54.93Z"/><path class="cls-2" d="M245.17,94.34a27,27,0,0,1,52.94,0h6.72a33.58,33.58,0,0,0-66.38,0Z"/><path class="cls-2" d="M298.44,102.32a27,27,0,0,1-53.6,0H238.2a33.56,33.56,0,0,0,66.88,0Z"/><path class="cls-1" d="M246.55,144.52l3.31-11.2a39.85,39.85,0,1,1,43.56,0l3.31,11.2a51.14,51.14,0,1,0-50.18,0Z"/><text class="cls-3" transform="translate(136.66 287.61)">C<tspan class="cls-4" x="24.42" y="0">OMING SOON</tspan></text></svg>