<?xml version="1.0" encoding="utf-8"?>
<!-- Generator: Adobe Illustrator 16.0.0, SVG Export Plug-In . SVG Version: 6.00 Build 0)  -->
<!DOCTYPE svg PUBLIC "-//W3C//DTD SVG 1.1//EN" "http://www.w3.org/Graphics/SVG/1.1/DTD/svg11.dtd">
<svg version="1.1" id="Layer_1" xmlns="http://www.w3.org/2000/svg" xmlns:xlink="http://www.w3.org/1999/xlink" x="0px" y="0px"
	 width="24px" height="362px" viewBox="0 0 24 362" enable-background="new 0 0 24 362" xml:space="preserve">
<g>
	<path fill="#FFFFFF" d="M4,23c-1.7,0-3-1.3-3-3V4c0-1.7,1.3-3,3-3h16c1.7,0,3,1.3,3,3v16c0,1.7-1.3,3-3,3H4z"/>
	<path fill="#D0D0D0" d="M20,2c1.1,0,2,0.9,2,2v16c0,1.1-0.9,2-2,2H4c-1.1,0-2-0.9-2-2V4c0-1.1,0.9-2,2-2H20 M20,0H4
		C1.8,0,0,1.8,0,4v16c0,2.2,1.8,4,4,4h16c2.2,0,4-1.8,4-4V4C24,1.8,22.2,0,20,0L20,0z"/>
</g>
<g>
	<path fill="#FFFFFF" d="M4,49c-1.7,0-3-1.3-3-3V30c0-1.7,1.3-3,3-3h16c1.7,0,3,1.3,3,3v16c0,1.7-1.3,3-3,3H4z"/>
	<path fill="#B7B7B7" d="M20,28c1.1,0,2,0.9,2,2v16c0,1.1-0.9,2-2,2H4c-1.1,0-2-0.9-2-2V30c0-1.1,0.9-2,2-2H20 M20,26H4
		c-2.2,0-4,1.8-4,4v16c0,2.2,1.8,4,4,4h16c2.2,0,4-1.8,4-4V30C24,27.8,22.2,26,20,26L20,26z"/>
</g>
<g>
	<path fill="#EAEAEA" d="M4,75c-1.7,0-3-1.3-3-3V56c0-1.7,1.3-3,3-3h16c1.7,0,3,1.3,3,3v16c0,1.7-1.3,3-3,3H4z"/>
	<path fill="#D0D0D0" d="M20,54c1.1,0,2,0.9,2,2v16c0,1.1-0.9,2-2,2H4c-1.1,0-2-0.9-2-2V56c0-1.1,0.9-2,2-2H20 M20,52H4
		c-2.2,0-4,1.8-4,4v16c0,2.2,1.8,4,4,4h16c2.2,0,4-1.8,4-4V56C24,53.8,22.2,52,20,52L20,52z"/>
</g>
<linearGradient id="SVGID_1_" gradientUnits="userSpaceOnUse" x1="621" y1="-575.667" x2="621" y2="-594.3402" gradientTransform="matrix(1 0 0 -1 -609 -443)">
	<stop  offset="0" style="stop-color:#E6F4F7"/>
	<stop  offset="1" style="stop-color:#D3E8ED"/>
</linearGradient>
<path fill="url(#SVGID_1_)" d="M20,132c1.1,0,2,0.9,2,2v16c0,1.1-0.9,2-2,2H4c-1.1,0-2-0.9-2-2v-16c0-1.1,0.9-2,2-2H20"/>
<path opacity="0.7" fill="#FFFFFF" stroke="#000000" stroke-width="0.2" stroke-miterlimit="10" enable-background="new    " d="
	M20,132c1.1,0,2,0.9,2,2v16c0,1.1-0.9,2-2,2H4c-1.1,0-2-0.9-2-2v-16c0-1.1,0.9-2,2-2H20 M20,130H4c-2.2,0-4,1.8-4,4v16
	c0,2.2,1.8,4,4,4h16c2.2,0,4-1.8,4-4v-16C24,131.8,22.2,130,20,130L20,130z"/>
<g>
	<path fill="#212121" d="M17.109,148.06c0,0.083,0,0.167,0,0.251c-0.084,0.17-0.223,0.292-0.42,0.364c-3.125,0-6.253,0-9.38,0
		c-0.197-0.072-0.336-0.193-0.42-0.364c0-0.084,0-0.167,0-0.251c0.125-0.234,0.312-0.387,0.645-0.367c0-0.055,0-0.1,0-0.146
		c0-0.457-0.001-0.914,0-1.371c0.001-0.274,0.085-0.533,0.215-0.782c0.371-0.709,1.042-1.205,1.654-1.743
		c0.453-0.398,0.581-0.767,0.994-1.194c0.285-0.295,0.335-0.523,0.034-0.912c-0.4-0.518-0.607-0.9-1.118-1.324
		c-0.457-0.381-0.909-0.76-1.274-1.216c-0.339-0.421-0.522-0.871-0.507-1.388c0.013-0.396,0.002-0.792,0.002-1.188
		c0-0.049,0-0.099,0-0.156c-0.327,0.028-0.509-0.121-0.645-0.334c0-0.094,0-0.187,0-0.279c0.096-0.154,0.227-0.274,0.42-0.335
		c3.127,0,6.255,0,9.38,0c0.193,0.061,0.326,0.182,0.42,0.335c0,0.093,0,0.186,0,0.279c-0.142,0.232-0.348,0.37-0.678,0.335
		c0,0.514,0,1.013,0,1.509c0,0.28-0.08,0.544-0.216,0.795c-0.286,0.539-0.739,0.965-1.229,1.372
		c-0.496,0.417-1.227,1.599-1.348,1.779c-0.084,0.127-0.121,0.287-0.031,0.422c0.135,0.209,0.885,1.426,1.377,1.839
		c0.377,0.317,0.725,0.661,1.013,1.045c0.274,0.373,0.444,0.773,0.437,1.225c-0.008,0.261-0.002,0.521-0.002,0.783
		c0,0.212,0,0.427,0,0.655C16.779,147.659,16.98,147.815,17.109,148.06z"/>
	<path fill="#FFFFFF" d="M14.953,147.134c-1.977,0-3.932,0-5.904,0c0-0.196-0.017-0.39,0.005-0.58
		c0.018-0.138,0.161-0.208,0.292-0.271c0.416-0.202,0.856-0.351,1.314-0.465c0.408-0.102,0.815-0.202,1.243-0.229
		c0.342-0.021,0.666,0.053,0.992,0.12c0.572,0.118,1.125,0.292,1.654,0.516c0.076,0.033,0.156,0.075,0.225,0.123
		c0.117,0.081,0.199,0.172,0.182,0.32C14.938,146.818,14.953,146.972,14.953,147.134z"/>
	<path fill="#FFFFFF" d="M9.482,138.783c1.68,0.272,3.358,0.275,5.036,0c0.006,0.012,0.008,0.025,0.015,0.036
		c-0.048,0.051-0.091,0.107-0.146,0.152c-0.289,0.246-0.58,0.49-0.873,0.734c-0.127,0.108-0.262,0.212-0.394,0.318
		c-0.378,0.305-0.696,0.646-0.887,1.068c-0.043,0.096-0.087,0.218-0.239,0.213c-0.142-0.003-0.188-0.119-0.228-0.213
		c-0.232-0.546-0.712-0.923-1.172-1.314c-0.329-0.278-0.668-0.548-1-0.824c-0.046-0.037-0.08-0.085-0.12-0.127
		C9.477,138.812,9.479,138.798,9.482,138.783z"/>
</g>
<g>
	<path fill="#FFFFFF" d="M12,231c-6.1,0-11-4.9-11-11s4.9-11,11-11c6.1,0,11,4.9,11,11S18.1,231,12,231z"/>
	<g>
		<path fill="#D0D0D0" d="M12,210c5.5,0,10,4.5,10,10s-4.5,10-10,10s-10-4.5-10-10S6.5,210,12,210 M12,208c-6.6,0-12,5.4-12,12
			s5.4,12,12,12c6.6,0,12-5.4,12-12S18.6,208,12,208L12,208z"/>
	</g>
</g>
<g>
	<path fill="#FFFFFF" d="M12,257c-6.1,0-11-4.9-11-11s4.9-11,11-11c6.1,0,11,4.9,11,11S18.1,257,12,257z"/>
	<g>
		<path fill="#B7B7B7" d="M12,236c5.5,0,10,4.5,10,10s-4.5,10-10,10s-10-4.5-10-10S6.5,236,12,236 M12,234c-6.6,0-12,5.4-12,12
			s5.4,12,12,12c6.6,0,12-5.4,12-12S18.6,234,12,234L12,234z"/>
	</g>
</g>
<g>
	<path fill="#EAEAEA" d="M12,283c-6.1,0-11-4.9-11-11s4.9-11,11-11c6.1,0,11,4.9,11,11S18.1,283,12,283z"/>
	<path fill="#D0D0D0" d="M12,262c5.5,0,10,4.5,10,10s-4.5,10-10,10s-10-4.5-10-10S6.5,262,12,262 M12,260c-6.6,0-12,5.4-12,12
		s5.4,12,12,12c6.6,0,12-5.4,12-12S18.6,260,12,260L12,260z"/>
</g>
<g>
	<g>
		<path fill="#B3E2ED" d="M12,309c-6.1,0-11-4.9-11-11s4.9-11,11-11c6.1,0,11,4.9,11,11S18.1,309,12,309z"/>
		<path fill="#5F6B7B" d="M12,288c5.5,0,10,4.5,10,10s-4.5,10-10,10s-10-4.5-10-10S6.5,288,12,288 M12,286c-6.6,0-12,5.4-12,12
			s5.4,12,12,12c6.6,0,12-5.4,12-12S18.6,286,12,286L12,286z"/>
	</g>
	<circle fill="#231F20" cx="12" cy="298" r="5"/>
</g>
<g>
	<path fill="#FFFFFF" d="M12,335c-6.1,0-11-4.9-11-11s4.9-11,11-11c6.1,0,11,4.9,11,11S18.1,335,12,335z"/>
	<path fill="#5F6B7B" d="M12,314c5.5,0,10,4.5,10,10s-4.5,10-10,10s-10-4.5-10-10S6.5,314,12,314 M12,312c-6.6,0-12,5.4-12,12
		s5.4,12,12,12c6.6,0,12-5.4,12-12S18.6,312,12,312L12,312z"/>
	<circle fill="#231F20" cx="12" cy="324" r="5"/>
</g>
<g>
	<path fill="#FFFFFF" d="M12,361c-6.1,0-11-4.9-11-11s4.9-11,11-11c6.1,0,11,4.9,11,11S18.1,361,12,361z"/>
	<path fill="#5F6B7B" d="M12,340c5.5,0,10,4.5,10,10s-4.5,10-10,10s-10-4.5-10-10S6.5,340,12,340 M12,338c-6.6,0-12,5.4-12,12
		s5.4,12,12,12c6.6,0,12-5.4,12-12S18.6,338,12,338L12,338z"/>
</g>
<g>
	
		<linearGradient id="SVGID_2_" gradientUnits="userSpaceOnUse" x1="258" y1="-61.5" x2="258" y2="-134.6386" gradientTransform="matrix(1 0 0 -1 -246 107)">
		<stop  offset="0" style="stop-color:#E6F4F7"/>
		<stop  offset="1" style="stop-color:#D3E8ED"/>
	</linearGradient>
	<path fill="url(#SVGID_2_)" d="M4,179c-1.7,0-3-1.3-3-3v-16c0-1.7,1.3-3,3-3h16c1.7,0,3,1.3,3,3v16c0,1.7-1.3,3-3,3H4z"/>
	<path fill="#5F6B7B" d="M20,158c1.1,0,2,0.9,2,2v16c0,1.1-0.9,2-2,2H4c-1.1,0-2-0.9-2-2v-16c0-1.1,0.9-2,2-2H20 M20,156H4
		c-2.2,0-4,1.8-4,4v16c0,2.2,1.8,4,4,4h16c2.2,0,4-1.8,4-4v-16C24,157.8,22.2,156,20,156L20,156z"/>
</g>
<g>
	
		<linearGradient id="SVGID_3_" gradientUnits="userSpaceOnUse" x1="258" y1="-87.5005" x2="258" y2="-160.639" gradientTransform="matrix(1 0 0 -1 -246 107)">
		<stop  offset="0" style="stop-color:#E6F4F7"/>
		<stop  offset="1" style="stop-color:#D3E8ED"/>
	</linearGradient>
	<path fill="url(#SVGID_3_)" d="M4,205c-1.7,0-3-1.3-3-3v-16c0-1.7,1.3-3,3-3h16c1.7,0,3,1.3,3,3v16c0,1.7-1.3,3-3,3H4z"/>
	<path fill="#5F6B7B" d="M20,184c1.1,0,2,0.9,2,2v16c0,1.1-0.9,2-2,2H4c-1.1,0-2-0.9-2-2v-16c0-1.1,0.9-2,2-2H20 M20,182H4
		c-2.2,0-4,1.8-4,4v16c0,2.2,1.8,4,4,4h16c2.2,0,4-1.8,4-4v-16C24,183.8,22.2,182,20,182L20,182z"/>
</g>
<g>
	
		<linearGradient id="SVGID_4_" gradientUnits="userSpaceOnUse" x1="258" y1="-9.5005" x2="258" y2="-82.6391" gradientTransform="matrix(-1 0 0 1 270 125)">
		<stop  offset="0" style="stop-color:#E6F4F7"/>
		<stop  offset="1" style="stop-color:#D3E8ED"/>
	</linearGradient>
	<path fill="url(#SVGID_4_)" d="M20,105c1.7,0,3,1.3,3,3v16c0,1.7-1.3,3-3,3H4c-1.7,0-3-1.3-3-3v-16c0-1.7,1.3-3,3-3H20z"/>
	<path fill="#5F6B7B" d="M2.83,125.619c0,0-0.83-0.955-0.83-1.619v-16c0-1.1,0.9-2,2-2h16c0.679,0,1.644,0.864,1.644,0.864
		L2.83,125.619z M4,128h16c2.2,0,4-1.8,4-4v-16c0-2.2-1.8-4-4-4H4c-2.2,0-4,1.8-4,4v16C0,126.2,1.8,128,4,128L4,128z"/>
</g>
<g>
	
		<linearGradient id="SVGID_5_" gradientUnits="userSpaceOnUse" x1="258" y1="16.5" x2="258" y2="-56.6386" gradientTransform="matrix(1 0 0 -1 -246 107)">
		<stop  offset="0" style="stop-color:#E6F4F7"/>
		<stop  offset="1" style="stop-color:#D3E8ED"/>
	</linearGradient>
	<path fill="url(#SVGID_5_)" d="M4,101c-1.7,0-3-1.3-3-3V82c0-1.7,1.3-3,3-3h16c1.7,0,3,1.3,3,3v16c0,1.7-1.3,3-3,3H4z"/>
	<path fill="#5F6B7B" d="M20,78H4c-2.2,0-4,1.8-4,4v16c0,2.2,1.8,4,4,4h16c2.2,0,4-1.8,4-4V82C24,79.8,22.2,78,20,78L20,78z"/>
	<polygon fill="#FFFFFF" points="17.223,84.155 10.136,90.657 7.149,87.655 4.095,90.554 9.578,96.545 19.913,87.079 	"/>
</g>
</svg>
