<?xml version="1.0" encoding="utf-8"?>
<!-- Generator: Adobe Illustrator 23.0.4, SVG Export Plug-In . SVG Version: 6.00 Build 0)  -->
<svg version="1.1" id="Layer_1" xmlns="http://www.w3.org/2000/svg" xmlns:xlink="http://www.w3.org/1999/xlink" x="0px" y="0px"
	 viewBox="0 0 216 216" style="enable-background:new 0 0 216 216;" xml:space="preserve">
<style type="text/css">
	.st0{fill-rule:evenodd;clip-rule:evenodd;fill:#ffffff;}
</style>
<path class="st0" d="M73.3,43.3H41.2c-0.8,0-1.5,0.3-2,0.8c-0.5,0.5-0.8,1.2-0.8,2v122.8c0,0.8,0.3,1.5,0.8,2l0,0
	c0.5,0.5,1.2,0.8,2,0.8h32.1c0.8,0,1.5-0.3,2-0.8c0.5-0.5,0.8-1.2,0.8-2V46.1c0-0.8-0.3-1.5-0.8-2L75.2,44
	C74.7,43.5,74,43.3,73.3,43.3L73.3,43.3z M161.1,125.8c0.1,1-0.6,2-1.6,2.1c-1,0.1-2-0.6-2.1-1.6l-8.8-64.3c-0.1-1,0.6-2,1.6-2.1
	c1-0.1,2,0.6,2.1,1.6L161.1,125.8L161.1,125.8z M93.5,129.5c0,1-0.8,1.9-1.9,1.9c-1,0-1.9-0.8-1.9-1.9V63.5c0-1,0.8-1.9,1.9-1.9
	c1,0,1.9,0.8,1.9,1.9V129.5L93.5,129.5z M107.7,151.5c0,1-0.8,1.9-1.9,1.9c-1,0-1.9-0.8-1.9-1.9V63.5c0-1,0.8-1.9,1.9-1.9
	c1,0,1.9,0.8,1.9,1.9V151.5L107.7,151.5z M163.5,39.5l-31.7,4.3l0,0c-0.8,0.1-1.4,0.5-1.8,1.1v0c-0.4,0.6-0.7,1.3-0.6,2.1v0
	L146,168.7l0,0c0.1,0.8,0.5,1.4,1.1,1.8l0,0c0.6,0.4,1.3,0.7,2.1,0.6l0,0l31.7-4.4h0c0.8-0.1,1.4-0.5,1.8-1.1l0,0
	c0.4-0.6,0.7-1.3,0.6-2.1l0,0L166.7,41.9v0c-0.1-0.8-0.5-1.4-1.1-1.8h0C165,39.6,164.3,39.4,163.5,39.5L163.5,39.5L163.5,39.5z
	 M131.4,40.1c-0.1,0-0.2,0-0.3,0c-1.7,0.3-3.2,1.2-4.2,2.5l0,0v0c-1,1.3-1.5,3-1.3,4.7c0,0.1,0,0.2,0,0.3l16.7,121.4
	c0,0.1,0,0.2,0,0.3c0.3,1.7,1.2,3.2,2.5,4.2v0l0,0c1.3,1,3,1.5,4.7,1.3c0.1,0,0.2,0,0.3,0l31.5-4.3c0.1,0,0.2,0,0.3,0
	c1.7-0.3,3.2-1.2,4.2-2.5v0l0,0c1-1.3,1.5-3,1.3-4.7c0-0.1,0-0.2,0-0.3L170.4,41.5c0-0.1,0-0.2-0.1-0.3c-0.3-1.7-1.2-3.2-2.5-4.2
	l0,0l0,0c-1.3-1-3-1.5-4.7-1.3c-0.1,0-0.2,0-0.3,0L131.4,40.1L131.4,40.1z M114.7,43.3H82.7c-0.8,0-1.5,0.3-2,0.8
	c-0.5,0.5-0.8,1.2-0.8,2v122.8c0,0.8,0.3,1.5,0.8,2v0c0.5,0.5,1.2,0.8,2,0.8h32.1c0.8,0,1.5-0.3,2-0.8c0.5-0.5,0.8-1.2,0.8-2V46.1
	c0-0.8-0.3-1.5-0.8-2l-0.1-0.1C116.2,43.5,115.5,43.3,114.7,43.3L114.7,43.3z M82.7,39.5h32.1c1.8,0,3.4,0.7,4.5,1.8
	c0,0,0.1,0.1,0.1,0.1c1.2,1.2,1.9,2.8,1.9,4.7v122.8c0,1.8-0.7,3.5-1.9,4.7c-1.2,1.2-2.8,1.9-4.7,1.9H82.7c-1.8,0-3.5-0.7-4.7-1.9v0
	l0,0l-0.1-0.1l-0.1,0.1c-1.2,1.2-2.8,1.9-4.7,1.9H41.2c-1.8,0-3.5-0.7-4.7-1.9v0l0,0c-1.2-1.2-1.9-2.8-1.9-4.7V46.1
	c0-1.8,0.7-3.5,1.9-4.7l0,0c1.2-1.2,2.8-1.9,4.7-1.9h32.1c1.8,0,3.4,0.7,4.5,1.8c0,0,0.1,0.1,0.1,0.1l0.1,0.1l0.1,0v0
	C79.2,40.2,80.9,39.5,82.7,39.5L82.7,39.5z M59.1,129.5c0,1-0.8,1.9-1.9,1.9c-1,0-1.9-0.8-1.9-1.9V63.5c0-1,0.8-1.9,1.9-1.9
	c1,0,1.9,0.8,1.9,1.9V129.5z"/>
</svg>
