<?xml version="1.0" encoding="utf-8"?>
<!-- Generator: Adobe Illustrator 23.0.4, SVG Export Plug-In . SVG Version: 6.00 Build 0)  -->
<svg version="1.1" id="Layer_1" xmlns="http://www.w3.org/2000/svg" xmlns:xlink="http://www.w3.org/1999/xlink" x="0px" y="0px"
	 viewBox="0 0 216 216" style="enable-background:new 0 0 216 216;" xml:space="preserve">
<style type="text/css">
	.st0{fill-rule:evenodd;clip-rule:evenodd;fill:#ffffff;}
</style>
<path class="st0" d="M130.5,149.9H66l-32.3,24.5c-0.7,0.5-1.8,0.4-2.3-0.3c-0.3-0.4-0.4-0.9-0.3-1.3l0,0l4.3-22.9h-0.6
	c-2.7,0-5.2-1.1-7-2.9v0h0l0,0c-1.8-1.8-2.9-4.3-2.9-7V72.4c0-2.7,1.1-5.2,2.9-7.1c1.8-1.8,4.3-2.9,7.1-2.9h41.2v-6.5
	c0-2.8,1.1-5.2,2.9-7.1c1.8-1.8,4.3-2.9,7.1-2.9h95.9c2.7,0,5.2,1.1,7,2.9l0,0c1.8,1.8,2.9,4.3,2.9,7v67.5c0,2.8-1.1,5.2-2.9,7.1
	c-1.8,1.8-4.3,2.9-7.1,2.9h-0.6l4.3,22.9h0c0.1,0.4,0,0.9-0.3,1.3c-0.5,0.7-1.6,0.9-2.3,0.3l-32.3-24.5h-9.9v6.5
	c0,2.7-1.1,5.2-2.9,7.1C135.7,148.8,133.3,149.9,130.5,149.9L130.5,149.9z M93.3,120.7H45.2c-0.9,0-1.7,0.7-1.7,1.7
	c0,0.9,0.7,1.7,1.7,1.7h48.2c0.9,0,1.7-0.7,1.7-1.7C95,121.5,94.3,120.7,93.3,120.7L93.3,120.7z M120,102.5H45.2
	c-0.9,0-1.7,0.7-1.7,1.7c0,0.9,0.8,1.7,1.7,1.7H120c0.9,0,1.7-0.7,1.7-1.7C121.7,103.2,120.9,102.5,120,102.5L120,102.5z
	 M111.3,85.3H45.2c-0.9,0-1.7,0.7-1.7,1.7c0,0.9,0.7,1.7,1.7,1.7h66.1c0.9,0,1.7-0.7,1.7-1.7C112.9,86,112.2,85.3,111.3,85.3
	L111.3,85.3z M170.7,104.8c0.9,0,1.7,0.7,1.7,1.7c0,0.9-0.7,1.7-1.7,1.7h-30.2v21.9h10.4c0.4,0,0.8,0.2,1.1,0.4l29.2,22.2l-3.8-20.7
	c-0.2-0.9,0.4-1.8,1.3-1.9c0.1,0,0.2,0,0.3,0l0,0h2.6c1.8,0,3.5-0.8,4.7-2c1.2-1.2,2-2.9,2-4.7V55.9c0-1.8-0.8-3.5-1.9-4.7l0,0
	c-1.2-1.2-2.9-1.9-4.7-1.9H85.9c-1.8,0-3.5,0.7-4.7,1.9c-1.2,1.2-1.9,2.9-1.9,4.7v6.5h51.3c2.7,0,5.2,1.1,7,2.9l0,0
	c1.1,1.1,2,2.5,2.5,4h30.7c0.9,0,1.7,0.7,1.7,1.7c0,0.9-0.7,1.7-1.7,1.7h-30.2v13.9H165c0.9,0,1.7,0.7,1.7,1.7
	c0,0.9-0.8,1.7-1.7,1.7h-24.6v14.9H170.7L170.7,104.8z M65.4,146.5h65.1c1.8,0,3.5-0.7,4.7-1.9c1.2-1.2,2-2.9,2-4.7v-8.2V72.4
	c0-1.8-0.8-3.5-1.9-4.7l0,0c-1.2-1.2-2.9-1.9-4.7-1.9h-53H34.6c-1.8,0-3.5,0.7-4.7,2c-1.2,1.2-2,2.9-2,4.7v67.5
	c0,1.8,0.7,3.5,1.9,4.7h0c1.2,1.2,2.9,1.9,4.7,1.9h2.6v0c0.1,0,0.2,0,0.3,0c0.9,0.2,1.5,1,1.3,1.9l-3.8,20.7L64.3,147
	C64.6,146.7,65,146.5,65.4,146.5z"/>
</svg>
