<?xml version="1.0" encoding="utf-8"?>
<!-- Generator: Adobe Illustrator 23.0.4, SVG Export Plug-In . SVG Version: 6.00 Build 0)  -->
<svg version="1.1" id="Layer_1" xmlns="http://www.w3.org/2000/svg" xmlns:xlink="http://www.w3.org/1999/xlink" x="0px" y="0px"
	 viewBox="0 0 216 216" style="enable-background:new 0 0 216 216;" xml:space="preserve">
<style type="text/css">
	.st0{fill-rule:evenodd;clip-rule:evenodd;fill:#ffffff;}
</style>
<path class="st0" d="M114.6,174.4c3.4,3.4,7.6,6.2,12.1,8.1c4.4,1.8,9.2,2.8,14.3,2.8c5.1,0,9.9-1,14.3-2.8
	c4.5-1.9,8.7-4.7,12.1-8.1c3.4-3.4,6.2-7.6,8.1-12.1c1.8-4.4,2.8-9.2,2.8-14.3c0-5.1-1-9.9-2.8-14.3c-1.9-4.6-4.7-8.7-8.1-12.1
	c-3.4-3.4-7.5-6.2-12.1-8.1c-1.4-0.6-2.9-1.1-4.4-1.5c-0.1,0-0.1,0-0.2-0.1c-7.9-2.1-16.4-1.6-23.9,1.6c-4.6,1.9-8.7,4.7-12.1,8.1
	c-3.5,3.5-6.2,7.6-8.1,12.1c-1.8,4.4-2.8,9.2-2.8,14.3c0,5.1,1,9.9,2.8,14.3c0.1,0.3,0.2,0.5,0.3,0.8c0,0.1,0.1,0.2,0.1,0.2
	C108.8,167.4,111.4,171.2,114.6,174.4L114.6,174.4z M127.2,103.4c0.9,0,1.6,0.7,1.6,1.6s-0.7,1.6-1.6,1.6H76.7
	c-0.9,0-1.6-0.7-1.6-1.6s0.7-1.6,1.6-1.6H127.2L127.2,103.4z M107.8,124.6c-1.7,2.4-3.2,5.1-4.3,7.9c-2,4.8-3.1,10-3.1,15.5
	c0,5,0.9,9.8,2.6,14.2H53.1V43.2h19.1v5.2c0,0.9,0.7,1.6,1.6,1.6h43.2c0.9,0,1.6-0.7,1.6-1.6v-5.2h19.1v64.4
	c-4.4,0.3-8.5,1.3-12.4,3c-5,2.1-9.4,5.1-13.2,8.8c-0.7,0.7-1.3,1.3-1.9,2H76.7c-0.9,0-1.6,0.7-1.6,1.6c0,0.9,0.7,1.6,1.6,1.6H107.8
	L107.8,124.6z M127.2,86.6H76.7c-0.9,0-1.6,0.7-1.6,1.6c0,0.9,0.7,1.6,1.6,1.6h50.5c0.9,0,1.6-0.7,1.6-1.6
	C128.8,87.3,128.1,86.6,127.2,86.6L127.2,86.6z M127.2,69.7H76.7c-0.9,0-1.6,0.7-1.6,1.6c0,0.9,0.7,1.6,1.6,1.6h50.5
	c0.9,0,1.6-0.7,1.6-1.6C128.8,70.4,128.1,69.7,127.2,69.7L127.2,69.7z M111.5,175.9H48c-5.4,0-9.8-4.4-9.8-9.8V39.3
	c0-2.7,1.1-5.1,2.9-6.9c1.8-1.8,4.2-2.9,6.9-2.9h24.3v-1.8c0-0.9,0.7-1.6,1.6-1.6h43.2c0.9,0,1.6,0.7,1.6,1.6v1.8H143
	c5.4,0,9.8,4.4,9.8,9.8v69.9c1.3,0.4,2.5,0.8,3.7,1.3c5,2.1,9.4,5.1,13.2,8.8c3.8,3.8,6.8,8.3,8.8,13.2c2,4.8,3.1,10,3.1,15.5
	c0,5.5-1.1,10.7-3.1,15.5c-2.1,5-5.1,9.4-8.8,13.2c-3.7,3.7-8.2,6.7-13.2,8.8c-4.8,2-10,3.1-15.5,3.1c-5.5,0-10.7-1.1-15.5-3.1
	C120.2,183.3,115.4,180,111.5,175.9L111.5,175.9z M149.5,108.3v-69c0-3.6-2.9-6.5-6.5-6.5h-24.3v7.1h20.8c0.9,0,1.6,0.7,1.6,1.6
	v65.9C144,107.5,146.8,107.8,149.5,108.3L149.5,108.3z M104.4,165.5c1.2,2.5,2.7,4.9,4.4,7.1H48c-3.6,0-6.5-2.9-6.5-6.5V39.3
	c0-1.8,0.7-3.4,1.9-4.6c1.2-1.2,2.8-1.9,4.6-1.9h24.3v7.1H51.5c-0.9,0-1.6,0.7-1.6,1.6v122.3c0,0.9,0.7,1.6,1.6,1.6H104.4
	L104.4,165.5z M138.2,139.6c-0.1-0.9,0.5-1.7,1.4-1.8c0.9-0.1,1.7,0.5,1.8,1.4l0.8,5.5l19.3-19.3c0.6-0.6,1.7-0.6,2.3,0
	c0.6,0.6,0.6,1.7,0,2.3l-20.2,20.2l2.2,1.7c0.7,0.5,0.9,1.6,0.3,2.3c-0.5,0.7-1.6,0.9-2.3,0.3l-0.7-0.5l3.6,26
	c0.1,0.9-0.5,1.7-1.4,1.8c-0.9,0.1-1.7-0.5-1.8-1.4l-3.7-26.5l-3.3,3.3c-0.6,0.6-1.7,0.6-2.3,0c-0.6-0.6-0.6-1.7,0-2.3l4.4-4.4
	l-18.3-13.7c-0.7-0.5-0.9-1.6-0.3-2.3c0.5-0.7,1.6-0.9,2.3-0.3l16.6,12.4L138.2,139.6L138.2,139.6z M62.6,73h4.9
	c0.9,0,1.6-0.7,1.6-1.6c0-0.9-0.7-1.6-1.6-1.6h-4.9c-0.9,0-1.6,0.7-1.6,1.6C60.9,72.2,61.7,73,62.6,73L62.6,73z M62.6,89.8h4.9
	c0.9,0,1.6-0.7,1.6-1.6c0-0.9-0.7-1.6-1.6-1.6h-4.9c-0.9,0-1.6,0.7-1.6,1.6C60.9,89.1,61.7,89.8,62.6,89.8L62.6,89.8z M62.6,106.7
	h4.9c0.9,0,1.6-0.7,1.6-1.6c0-0.9-0.7-1.6-1.6-1.6h-4.9c-0.9,0-1.6,0.7-1.6,1.6C60.9,106,61.7,106.7,62.6,106.7L62.6,106.7z
	 M62.6,124.6h4.9c0.9,0,1.6-0.7,1.6-1.6c0-0.9-0.7-1.6-1.6-1.6h-4.9c-0.9,0-1.6,0.7-1.6,1.6C60.9,123.9,61.7,124.6,62.6,124.6
	L62.6,124.6z M75.5,46.8h40c0-5.8,0-11.6,0-17.4h-40C75.5,35.2,75.5,41,75.5,46.8z"/>
</svg>
