<?xml version="1.0" encoding="utf-8"?>
<!-- Generator: Adobe Illustrator 23.0.4, SVG Export Plug-In . SVG Version: 6.00 Build 0)  -->
<svg version="1.1" id="Layer_1" xmlns="http://www.w3.org/2000/svg" xmlns:xlink="http://www.w3.org/1999/xlink" x="0px" y="0px"
	 viewBox="0 0 216 216" style="enable-background:new 0 0 216 216;" xml:space="preserve">
<style type="text/css">
	.st0{fill-rule:evenodd;clip-rule:evenodd;fill:#ffffff;}
</style>
<path class="st0" d="M97.3,39.3c-15.5,2.3-29.5,9.6-40,20.1c-4.4,4.4-8.2,9.4-11.3,14.8c8.4-1.8,17.6-3.3,27.3-4.3l0.1,0
	c1.2-3,2.5-5.8,3.9-8.5C82.6,51.5,89.5,44,97.3,39.3L97.3,39.3z M118.2,39.3c7.8,4.8,14.7,12.2,20,22.1c1.4,2.7,2.7,5.5,3.9,8.5
	l0.1,0c9.7,1,18.9,2.5,27.3,4.3c-3.1-5.4-7-10.4-11.3-14.8C147.6,48.8,133.7,41.5,118.2,39.3L118.2,39.3z M143.5,73.8
	c10.1,1.1,19.7,2.8,28.4,4.8c4.4,8.9,6.9,18.9,7.2,29.4H149C148.8,95.1,146.9,83.6,143.5,73.8L143.5,73.8z M149,111.8
	c-0.2,12.9-2.1,24.4-5.4,34.2c10.1-1.1,19.7-2.8,28.4-4.8c4.4-8.9,6.9-18.9,7.2-29.4H149L149,111.8z M142.1,149.9l0.1,0
	c9.7-1,18.9-2.5,27.3-4.3c-3.1,5.4-7,10.4-11.3,14.8c-10.6,10.6-24.5,17.9-40,20.1c7.8-4.8,14.7-12.2,20-22.1
	C139.6,155.8,140.9,152.9,142.1,149.9L142.1,149.9z M109.6,180.5c9.9-3.8,18.8-11.9,25.2-23.9c1.1-2,2.1-4.1,3-6.3
	c-9,0.8-18.5,1.3-28.2,1.4V180.5L109.6,180.5z M139.4,146.4c-9.5,0.9-19.4,1.5-29.7,1.5v-36.1h35.6C145,125,142.9,136.6,139.4,146.4
	L139.4,146.4z M145.2,108h-35.6V71.8c10.3,0.1,20.3,0.6,29.7,1.5C142.9,83.2,145,94.8,145.2,108L145.2,108z M137.8,69.4
	c-9-0.8-18.5-1.3-28.2-1.4V39.3c9.9,3.8,18.8,11.9,25.2,23.9C135.9,65.1,136.9,67.2,137.8,69.4L137.8,69.4z M77.6,69.4
	c0.9-2.2,1.9-4.3,3-6.3c6.4-11.9,15.3-20.1,25.2-23.9v28.8C96.1,68.1,86.7,68.6,77.6,69.4L77.6,69.4z M76.1,73.4
	c9.5-0.9,19.4-1.5,29.7-1.5V108H70.3C70.5,94.8,72.6,83.2,76.1,73.4L76.1,73.4z M70.3,111.8c0.2,13.2,2.3,24.8,5.8,34.6
	c9.5,0.9,19.4,1.5,29.7,1.5v-36.1H70.3L70.3,111.8z M77.6,150.3c0.9,2.2,1.9,4.3,3,6.3c6.4,11.9,15.3,20.1,25.2,23.9v-28.8
	C96.1,151.6,86.7,151.2,77.6,150.3L77.6,150.3z M97.3,180.5c-15.5-2.3-29.5-9.5-40-20.1c-4.4-4.4-8.2-9.4-11.3-14.8
	c8.4,1.8,17.6,3.3,27.3,4.3l0.1,0c1.2,3,2.5,5.8,3.9,8.5C82.6,168.3,89.5,175.7,97.3,180.5L97.3,180.5z M71.9,145.9
	c-10.1-1.1-19.7-2.8-28.4-4.8c-4.4-8.9-6.9-18.9-7.2-29.4h30.1C66.7,124.7,68.6,136.1,71.9,145.9L71.9,145.9z M66.5,108H36.4
	c0.3-10.5,2.8-20.5,7.2-29.4c8.7-2,18.2-3.7,28.4-4.8C68.6,83.6,66.7,95.1,66.5,108L66.5,108z M54.6,56.7c13.6-13.6,32.4-22,53.1-22
	c20.8,0,39.5,8.4,53.1,22c13.6,13.6,22,32.4,22,53.2c0,20.8-8.4,39.5-22,53.1c-13.6,13.6-32.4,22-53.1,22c-20.8,0-39.5-8.4-53.1-22
	c-13.6-13.6-22-32.4-22-53.1C32.6,89.1,41,70.3,54.6,56.7z"/>
</svg>
