<?xml version="1.0" encoding="utf-8"?>
<!-- Generator: Adobe Illustrator 23.0.4, SVG Export Plug-In . SVG Version: 6.00 Build 0)  -->
<svg version="1.1" id="Layer_1" xmlns="http://www.w3.org/2000/svg" xmlns:xlink="http://www.w3.org/1999/xlink" x="0px" y="0px"
	 viewBox="0 0 216 216" style="enable-background:new 0 0 216 216;" xml:space="preserve">
<style type="text/css">
	.st0{fill-rule:evenodd;clip-rule:evenodd;fill:#ffffff;}
</style>
<path class="st0" d="M105.7,146.2c-1,0-1.8-0.8-1.8-1.8c0-1,0.8-1.8,1.8-1.8h54.6c1,0,1.8,0.8,1.8,1.8c0,1-0.8,1.8-1.8,1.8H105.7
	L105.7,146.2z M105.7,68.6c2.5,0,4.8,1,6.4,2.7l0.1,0.1c1.6,1.6,2.5,3.9,2.5,6.3c0,2.5-1,4.8-2.7,6.4l-0.1,0.1
	c-1.6,1.6-3.9,2.6-6.3,2.6c-2.5,0-4.8-1-6.4-2.7c-1.6-1.6-2.7-3.9-2.7-6.4c0-2.5,1-4.8,2.7-6.4C100.9,69.6,103.1,68.6,105.7,68.6
	L105.7,68.6z M109.5,73.8c-1-1-2.4-1.6-3.9-1.6c-1.5,0-2.9,0.6-3.9,1.6c-1,1-1.6,2.4-1.6,3.9s0.6,2.9,1.6,3.9s2.4,1.6,3.9,1.6
	c1.5,0,2.8-0.6,3.8-1.5l0.1-0.1c1-1,1.6-2.4,1.6-3.9C111.1,76.2,110.5,74.8,109.5,73.8L109.5,73.8L109.5,73.8z M39.3,56.4
	c-3,0-5.7,1.2-7.7,3.2c-2,2-3.2,4.7-3.2,7.7v88.5c0,3,1.2,5.7,3.2,7.6l0,0l0,0h0c2,2,4.7,3.2,7.6,3.2h137.1c3,0,5.7-1.2,7.7-3.2
	c2-2,3.2-4.7,3.2-7.7V67.2c0-3-1.2-5.7-3.2-7.6l0,0c-2-2-4.7-3.2-7.6-3.2H39.3L39.3,56.4z M176.3,60H39.3c-2,0-3.8,0.8-5.1,2.1
	c-1.3,1.3-2.1,3.1-2.1,5.1v88.5c0,2,0.8,3.8,2.1,5.1l0,0c1.3,1.3,3.1,2.1,5.1,2.1h137.1c2,0,3.8-0.8,5.1-2.1
	c1.3-1.3,2.1-3.1,2.1-5.1V67.2c0-2-0.8-3.8-2.1-5.1l0,0C180.1,60.8,178.3,60,176.3,60L176.3,60z M65.1,120.3h-0.6
	c-3.1-0.1-5.8-1.4-7.8-3.5c-2.2-2.1-3.5-5.1-3.5-8.4c0-3.3,1.3-6.2,3.5-8.4c2.1-2.1,5.1-3.5,8.4-3.5c3.3,0,6.3,1.3,8.4,3.5
	c2.1,2.2,3.5,5.1,3.5,8.4c0,3.3-1.3,6.3-3.5,8.4c-2,2-4.8,3.3-7.8,3.5H65.1L65.1,120.3z M73.2,121.7c3.4,1.2,6.5,3.2,9,5.7l0.1,0.1
	c4.3,4.4,7,10.3,7,16.9c0,1-0.8,1.8-1.8,1.8H42.9c-1,0-1.8-0.8-1.8-1.8c0-6.6,2.7-12.7,7.1-17l0,0c2.5-2.5,5.6-4.5,9-5.7
	c-1.1-0.6-2-1.4-2.9-2.3c-2.8-2.8-4.5-6.7-4.5-11c0-4.3,1.7-8.2,4.5-11c2.8-2.8,6.7-4.5,11-4.5c4.3,0,8.2,1.7,11,4.5
	c2.8,2.8,4.5,6.7,4.5,11c0,4.3-1.7,8.2-4.5,11C75.2,120.3,74.2,121,73.2,121.7L73.2,121.7z M79.6,129.9L79.6,129.9
	c3.4,3.4,5.5,7.8,5.9,12.7H44.8c0.4-4.9,2.6-9.4,5.9-12.7c3.6-3.6,8.5-5.8,13.9-6c0.2,0,0.4,0,0.6,0c0.2,0,0.4,0,0.6,0
	C71.1,124.1,76,126.3,79.6,129.9L79.6,129.9z M105.7,131.1c-1,0-1.8-0.8-1.8-1.8c0-1,0.8-1.8,1.8-1.8h66c1,0,1.8,0.8,1.8,1.8
	c0,1-0.8,1.8-1.8,1.8H105.7z"/>
</svg>
