<?xml version="1.0" encoding="utf-8"?>
<!-- Generator: Adobe Illustrator 23.0.4, SVG Export Plug-In . SVG Version: 6.00 Build 0)  -->
<svg version="1.1" id="Layer_1" xmlns="http://www.w3.org/2000/svg" xmlns:xlink="http://www.w3.org/1999/xlink" x="0px" y="0px"
	 viewBox="0 0 216 216" style="enable-background:new 0 0 216 216;" xml:space="preserve">
<style type="text/css">
	.st0{fill-rule:evenodd;clip-rule:evenodd;fill:#ffffff;}
</style>
<path class="st0" d="M127.4,164.1V81.3V33.5c0-0.8-0.3-1.5-0.9-2.1c-0.5-0.5-1.3-0.9-2.1-0.9H91.9c-0.8,0-1.5,0.3-2.1,0.9l0,0
	c-0.5,0.5-0.9,1.3-0.9,2.1v75.7v54.9H127.4L127.4,164.1z M28.3,164.1h14.3v-54.9c0-1.9,0.8-3.6,2-4.8l0,0v0c1.2-1.2,2.9-2,4.8-2
	h32.6c1.1,0,2,0.2,2.9,0.7V33.5c0-1.9,0.8-3.6,2-4.8l0,0h0c1.2-1.2,2.9-2,4.8-2h32.6c1.9,0,3.6,0.8,4.8,2c1.2,1.2,2,3,2,4.8v41.7
	c0.9-0.4,1.9-0.7,2.9-0.7h32.6c1.9,0,3.6,0.8,4.8,2c0,0,0.1,0.1,0.1,0.1c1.2,1.2,1.9,2.9,1.9,4.7v82.7H188c1.1,0,2,0.9,2,2v18
	c0,1.1-0.9,2-2,2H28.3c-1.1,0-2-0.9-2-2v-18C26.4,164.9,27.2,164.1,28.3,164.1L28.3,164.1z M131.3,164.1h38.5V81.3
	c0-0.8-0.3-1.5-0.8-2l-0.1-0.1c-0.5-0.5-1.3-0.9-2.1-0.9h-32.6c-0.8,0-1.5,0.3-2.1,0.9c-0.5,0.5-0.8,1.2-0.9,2v0V164.1L131.3,164.1z
	 M186.1,168h-14.2h0h-42.4l0,0h-0.1H87H44.6H30.3v14.1h155.8V168L186.1,168z M85,164.1v-54.9v0c0-0.8-0.3-1.5-0.9-2l-0.1-0.1
	c-0.5-0.5-1.2-0.8-2-0.8H49.4c-0.8,0-1.5,0.3-2.1,0.9h0c-0.5,0.5-0.9,1.3-0.9,2.1v54.9H85z"/>
</svg>
