<?xml version="1.0" encoding="utf-8"?>
<!-- Generator: Adobe Illustrator 23.0.4, SVG Export Plug-In . SVG Version: 6.00 Build 0)  -->
<svg version="1.1" id="Layer_1" xmlns="http://www.w3.org/2000/svg" xmlns:xlink="http://www.w3.org/1999/xlink" x="0px" y="0px"
	 viewBox="0 0 216 216" style="enable-background:new 0 0 216 216;" xml:space="preserve">
<style type="text/css">
	.st0{fill-rule:evenodd;clip-rule:evenodd;fill:#ffffff;}
</style>
<path class="st0" d="M74.5,37h107.2c0.9,0,1.6,0.7,1.6,1.6v25.3v25.3v25.3v25.3v25.3c0,0.9-0.7,1.6-1.6,1.6h-50.9
	c-0.7,0.8-1.5,1.6-2.3,2.4c-10.5,10.5-25,17-41,17c-16,0-30.5-6.5-41-17c-10.5-10.5-17-25-17-41c0-16,6.5-30.5,17-41
	c7.2-7.2,16.2-12.5,26.3-15.1v-8.2V38.6C72.8,37.7,73.6,37,74.5,37L74.5,37z M87.5,169.5c5.6,0,10.9-1.1,15.8-3.1
	c5-2.1,9.6-5.1,13.4-9c3.8-3.8,6.9-8.4,9-13.4c2-4.9,3.1-10.2,3.1-15.8c0-5.6-1.1-10.9-3.1-15.8c-2.1-5-5.2-9.6-9-13.4
	c-3.8-3.8-8.4-6.9-13.4-9c-4.9-2-10.2-3.1-15.8-3.1c-5.6,0-10.9,1.1-15.8,3.1c-5,2.1-9.6,5.2-13.4,9c-3.8,3.8-6.9,8.4-9,13.4
	c-2,4.9-3.1,10.2-3.1,15.8c0,5.6,1.1,10.9,3.1,15.8c2.1,5,5.2,9.6,9,13.4c3.8,3.8,8.4,6.9,13.4,9C76.6,168.4,81.9,169.5,87.5,169.5
	L87.5,169.5z M104.6,169.4c5.5-2.3,10.4-5.6,14.5-9.7c4.1-4.1,7.4-9,9.7-14.5c2.2-5.3,3.4-11,3.4-17c0-6-1.2-11.8-3.4-17
	c-2.3-5.5-5.6-10.4-9.7-14.5c-4.1-4.1-9-7.4-14.5-9.7c-5.3-2.2-11-3.4-17-3.4c-6,0-11.8,1.2-17,3.4C65,89.3,60.1,92.6,56,96.7
	c-4.1,4.1-7.4,9-9.7,14.5c-2.2,5.3-3.4,11-3.4,17c0,6,1.2,11.8,3.4,17c2.3,5.5,5.6,10.4,9.7,14.5c4.1,4.1,9,7.4,14.5,9.7
	c5.2,2.2,11,3.4,17,3.4C93.5,172.8,99.3,171.6,104.6,169.4L104.6,169.4z M128.8,164.2L128.8,164.2L128.8,164.2L128.8,164.2
	L128.8,164.2L128.8,164.2L128.8,164.2L128.8,164.2l0.1-0.1l0-0.1l0-0.1l0,0l0-0.1l0,0l0-0.1h0l0-0.1l0-0.1c2.9-3.4,5.3-7.1,7.3-11.1
	c2.9-5.8,4.7-12.2,5.4-18.7c0.2-1.8,0.3-3.7,0.3-5.7c0-2.3-0.1-4.5-0.4-6.7c-0.3-2.2-0.7-4.4-1.2-6.5c0-0.1,0-0.1,0-0.2
	c-1.2-4.6-2.9-9-5.2-13.1c-2.3-4.1-5.1-8-8.4-11.3c-0.1,0-0.1-0.1-0.1-0.1c-5.1-5.2-11.2-9.5-18-12.4c-6.6-2.8-13.8-4.4-21.4-4.4
	c-2.2,0-4.3,0.1-6.4,0.4c-2.1,0.2-4.2,0.6-6.3,1.1l-0.1,0c-10,2.4-18.9,7.5-25.9,14.5c-9.9,9.9-16,23.6-16,38.7
	c0,15.1,6.1,28.8,16,38.7c9.9,9.9,23.6,16,38.7,16c15.1,0,28.8-6.1,38.7-16C127.1,166,127.9,165.1,128.8,164.2L128.8,164.2z
	 M85.9,97.3v4.8h-7.7c-2.7,0-5.2,1.1-6.9,2.9c-1.8,1.8-2.9,4.2-2.9,6.9v8.2c0,5.4,4.4,9.8,9.8,9.8h7.7v21.2H70
	c-0.9,0-1.6,0.7-1.6,1.6c0,0.9,0.7,1.6,1.6,1.6h15.9v4.7c0,0.9,0.7,1.6,1.6,1.6s1.6-0.7,1.6-1.6v-4.7h7.7c5.4,0,9.8-4.4,9.8-9.8
	v-8.2c0-2.7-1.1-5.2-2.9-6.9v0c-1.8-1.8-4.2-2.9-6.9-2.9h-7.7v-21.2h12.9c0.9,0,1.6-0.7,1.6-1.6c0-0.9-0.7-1.6-1.6-1.6H89.2v-4.8
	c0-0.9-0.7-1.6-1.6-1.6S85.9,96.4,85.9,97.3L85.9,97.3z M89.2,129.9v21.2h7.7c3.6,0,6.5-2.9,6.5-6.5v-8.2c0-1.8-0.7-3.4-1.9-4.6l0,0
	c-1.2-1.2-2.8-1.9-4.6-1.9H89.2L89.2,129.9z M85.9,126.6v-21.2h-7.7c-1.8,0-3.4,0.7-4.6,1.9c-1.2,1.2-1.9,2.8-1.9,4.6v8.2
	c0,3.6,2.9,6.5,6.6,6.5H85.9L85.9,126.6z M180,141.5H144c-1,4.4-2.6,8.6-4.5,12.5c-1.7,3.4-3.7,6.6-5.9,9.5H180V141.5L180,141.5z
	 M180,116.2h-35.8c0.3,1.6,0.6,3.3,0.8,5c0.3,2.3,0.4,4.7,0.4,7.1c0,2-0.1,4-0.3,6c-0.1,1.3-0.3,2.7-0.6,4H180V116.2L180,116.2z
	 M180,90.9h-48.2c2.4,2.9,4.6,6,6.4,9.3c2.2,4,4,8.2,5.2,12.7H180V90.9L180,90.9z M180,65.5H76.1v5.9l0,0c1.5-0.3,3.1-0.5,4.7-0.7
	c2.2-0.3,4.5-0.4,6.8-0.4c8,0,15.7,1.6,22.7,4.6c7,3,13.3,7.3,18.6,12.7H180V65.5L180,65.5z M180,40.2H76.1v22.1H180V40.2z"/>
</svg>
