<?xml version="1.0" encoding="utf-8"?>
<!-- Generator: Adobe Illustrator 23.0.4, SVG Export Plug-In . SVG Version: 6.00 Build 0)  -->
<svg version="1.1" id="Layer_1" xmlns="http://www.w3.org/2000/svg" xmlns:xlink="http://www.w3.org/1999/xlink" x="0px" y="0px"
	 viewBox="0 0 216 216" style="enable-background:new 0 0 216 216;" xml:space="preserve">
<style type="text/css">
	.st0{fill-rule:evenodd;clip-rule:evenodd;fill:#ffffff;}
</style>
<g>
	<path class="st0" d="M80.5,94.7L80.5,94.7L80.5,94.7L80.5,94.7z M73.3,144l9-15.2c-0.7-0.2-1.3-0.5-1.9-0.7l-2.1-0.8
		c-0.6-0.2-1.2-0.2-1.8-0.1l0,0c-0.5,0.1-0.9,0.4-1.2,0.8l-1,1.5l-6.2,9.2c-0.1,0.4-0.1,0.7,0,1.1c0.1,0.4,0.2,0.7,0.4,1
		c0.2,0.3,0.5,0.5,0.8,0.7L73.3,144L73.3,144z M163.6,57.2H190c1,0,1.8,0.8,1.8,1.8v72.2c0,1-0.8,1.8-1.8,1.8h-26.4
		c-1,0-1.8-0.8-1.8-1.8V128l-8.2,5.4l-0.1,0c0.3,0.6,0.5,1.2,0.7,1.9c0.2,1.1,0.1,2.3-0.4,3.5l-0.6,1.3c-1.5,3.7-3.4,6.9-5.6,9.8
		c-2.2,2.9-4.9,5.6-8,8l-12.6,9.8c-1,0.8-2.2,1.3-3.5,1.3c-1.2,0.1-2.5-0.2-3.6-0.9l-11.7-6.9c-0.4,0.6-0.9,1.1-1.4,1.6l-0.1,0
		c-0.6,0.5-1.4,0.9-2.2,1.1c-0.8,0.2-1.7,0.3-2.5,0.2c-0.8-0.1-1.6-0.4-2.3-0.8l0,0l-32.2-18.6c-0.8-0.5-1.4-1-1.9-1.7
		c-0.5-0.7-0.9-1.5-1.1-2.4c-0.2-0.9-0.2-1.8,0-2.6c0.1-0.3,0.1-0.6,0.3-0.9l-9.5-8.4v2.4c0,1-0.8,1.8-1.8,1.8H27.1
		c-1,0-1.8-0.8-1.8-1.8V59c0-1,0.8-1.8,1.8-1.8h26.4c1,0,1.8,0.8,1.8,1.8v1.4l13.1,4.1c1.7,0.5,2.9,1.7,3.7,3.1
		c0.7,1.4,0.9,3.1,0.4,4.8l-0.1,0.3L88,74.1l0.1,0l30.2,3.6c2.5-0.7,5-1.4,7.8-2l19-4.3c-0.3-1.4,0-2.8,0.6-4.1
		c0.7-1.4,2-2.6,3.7-3.1l12.3-3.9V59C161.8,58,162.6,57.2,163.6,57.2L163.6,57.2z M151.3,130.7c0.1-0.1,0.2-0.2,0.3-0.3l9.5-6.3
		c0.1-0.1,0.3-0.2,0.4-0.2l-15.4-49l-19.3,4.3c-2.7,0.6-5.3,1.3-7.8,2l0,0l0,0l-0.1,0l0,0c-0.6,0.2-1.2,0.4-1.8,0.5
		c-3.1,1-6.2,2.1-9.5,3.4l-23.1,9.5l0.9,2c0.9,2,2.5,3.5,4.3,4.3c1.8,0.9,4,1.1,6.1,0.5l22.2-5.9c0.7-0.2,1.4,0.1,1.8,0.6
		L151.3,130.7L151.3,130.7z M85.7,130.1c0.4,0.2,0.9,0.4,1.3,0.6c1.1,0.5,2.2,1,3.2,1.6c1,0.6,2,1.2,3,1.9l-9.7,15.7l-7.2-4.1
		L85.7,130.1L85.7,130.1z M86.7,151.7l7.6,4.4l8.7-14.4l-6.9-5.4L86.7,151.7L86.7,151.7z M97.4,157.9l4.1,2.4h0l0,0
		c0.3,0.2,0.7,0.3,1,0.4c0.3,0,0.7,0,1.1-0.1c0.4-0.1,0.7-0.3,1-0.5l0,0c0.2-0.2,0.5-0.5,0.6-0.8l5.1-8.9c0.3-0.6,0.4-1.2,0.3-1.9
		c-0.1-0.6-0.5-1.2-1-1.6l-3.8-2.9L97.4,157.9L97.4,157.9z M56.1,124.7l10.6,9.4l5.5-7.8l0,0c0.8-1.2,2-2,3.3-2.4l0,0l0,0
		c1.3-0.4,2.7-0.4,4.1,0.1l6.2,2.3c2.3,0.8,4.3,1.8,6.2,2.8c1.6,0.9,3.1,1.9,4.6,3l0,0c0.1,0.1,0.2,0.1,0.3,0.2
		c0.2,0.2,0.5,0.4,0.7,0.6l14.1,11.1c0.7,0.5,1.2,1.2,1.6,1.9l18.9,13.1l5-3.9c0.6-0.5,1.3-1,1.8-1.5l-27-20.7
		c-0.8-0.6-0.9-1.7-0.3-2.5c0.6-0.8,1.7-0.9,2.5-0.3l27.5,21c1-1.1,2-2.2,2.9-3.3c0.7-1,1.4-2,2.1-3.1l-24.2-21.5
		c-0.7-0.7-0.8-1.8-0.1-2.5c0.7-0.7,1.8-0.8,2.5-0.1l23.6,21c0.4-0.9,0.9-1.8,1.3-2.7l0.6-1.3c0.2-0.5,0.3-1,0.2-1.5
		c-0.1-0.5-0.3-0.9-0.7-1.4L118,99.4l-21.2,5.7c-3,0.8-6,0.5-8.6-0.7c-2.6-1.2-4.8-3.3-6.1-6.1l-1.7-3.6l-0.1-0.1
		c-0.4-0.9,0.1-2,1-2.3L106.3,82c1.4-0.6,2.7-1.1,4-1.6l-22.6-2.7h0l-16.3-1.4h0L56.1,124.7L56.1,124.7z M114,150.7
		c-0.1,0.5-0.3,1-0.6,1.4l-3.4,6.1l11.8,7c0.5,0.3,1,0.4,1.5,0.4c0.5,0,1-0.2,1.5-0.6l4.6-3.6L114,150.7L114,150.7z M55.3,115.3
		l13.8-44c0.2-0.7,0.1-1.5-0.2-2.1c-0.3-0.6-0.9-1.1-1.6-1.3l-12.1-3.8V115.3L55.3,115.3z M51.7,60.8H28.9v68.6h22.8V127V61.7V60.8
		L51.7,60.8z M161.8,112.5V64.2l-11.3,3.5c-0.7,0.2-1.3,0.7-1.6,1.3c-0.3,0.6-0.4,1.4-0.2,2.1L161.8,112.5L161.8,112.5z
		 M165.4,124.2L165.4,124.2l0,5.2h22.8V60.8h-22.8v0.9l0,0V124.2z"/>
</g>
</svg>
