<?xml version="1.0" encoding="utf-8"?>
<!-- Generator: Adobe Illustrator 23.0.4, SVG Export Plug-In . SVG Version: 6.00 Build 0)  -->
<svg version="1.1" id="Layer_1" xmlns="http://www.w3.org/2000/svg" xmlns:xlink="http://www.w3.org/1999/xlink" x="0px" y="0px"
	 viewBox="0 0 216 216" style="enable-background:new 0 0 216 216;" xml:space="preserve">
<style type="text/css">
	.st0{fill-rule:evenodd;clip-rule:evenodd;fill:#ffffff;}
</style>
<path class="st0" d="M72.6,148.5c2.7,0,5.2,1.1,7,2.9c1.8,1.8,2.9,4.3,2.9,7c0,2.7-1.1,5.2-2.9,7l-0.1,0.1c-1.8,1.7-4.2,2.8-6.9,2.8
	c-2.7,0-5.2-1.1-7-2.9c-1.8-1.8-2.9-4.3-2.9-7c0-2.7,1.1-5.2,2.9-7C67.4,149.6,69.9,148.5,72.6,148.5L72.6,148.5z M102.5,86.1v-0.3
	c0-0.9-0.8-1.7-1.7-1.7H44.5c-2.8,0-5.4,1.2-7.3,3c-1.9,1.9-3,4.4-3,7.2v71.8c0,2.8,1.1,5.4,3,7.2c1.9,1.9,4.4,3,7.3,3h56.2
	c0.9,0,1.7-0.8,1.7-1.7v-1.6H141c10.4,0,19.9-4.2,26.7-11.1c6.8-6.8,11.1-16.3,11.1-26.7v-33.7c0-2.8-1.1-5.4-3-7.2l0,0l0,0v0
	c-1.9-1.9-4.4-3-7.3-3h-28.2l5.4-38.7c0.2-1.5,0.1-3-0.3-4.3c-0.4-1.4-1.1-2.7-2.1-3.8c-1-1.2-2.2-2-3.5-2.6v0
	c-1.3-0.6-2.7-0.9-4.3-0.9h-3.4c-1.9,0-3.8,0.5-5.3,1.5c-1.6,0.9-2.9,2.3-3.8,4.1L102.5,86.1L102.5,86.1z M126.1,48.1
	c0.6-1.2,1.5-2.1,2.5-2.7c1-0.6,2.2-1,3.6-1h3.4c1,0,2,0.2,2.8,0.6l0,0h0c0.9,0.4,1.6,1,2.3,1.8c0.7,0.8,1.2,1.6,1.4,2.5
	c0.3,0.9,0.3,1.9,0.2,2.9l-5.6,40.6c-0.1,0.9,0.5,1.8,1.5,1.9c0.1,0,0.2,0,0.2,0v0h30.1c1.9,0,3.6,0.8,4.8,2l0,0
	c1.2,1.2,2,2.9,2,4.8v33.7c0,9.5-3.9,18.1-10.1,24.3c-6.2,6.2-14.8,10.1-24.3,10.1h-38.5V93.5L126.1,48.1L126.1,48.1z M99,87.5H44.5
	c-1.9,0-3.6,0.8-4.8,2c-1.2,1.2-2,3-2,4.9v71.8c0,1.9,0.8,3.6,2,4.9c1.2,1.2,2.9,2,4.8,2H99V87.5L99,87.5z M77.2,153.8
	c-1.2-1.2-2.8-1.9-4.6-1.9c-1.8,0-3.4,0.7-4.6,1.9c-1.2,1.2-1.9,2.8-1.9,4.6c0,1.8,0.7,3.4,1.9,4.6c1.2,1.2,2.8,1.9,4.6,1.9
	c1.7,0,3.3-0.7,4.5-1.8l0.1-0.1c1.2-1.2,1.9-2.8,1.9-4.6C79.1,156.6,78.3,155,77.2,153.8z"/>
</svg>
