<?xml version="1.0" encoding="utf-8"?>
<!-- Generator: Adobe Illustrator 23.0.4, SVG Export Plug-In . SVG Version: 6.00 Build 0)  -->
<svg version="1.1" id="Layer_1" xmlns="http://www.w3.org/2000/svg" xmlns:xlink="http://www.w3.org/1999/xlink" x="0px" y="0px"
	 viewBox="0 0 216 216" style="enable-background:new 0 0 216 216;" xml:space="preserve">
<style type="text/css">
	.st0{fill-rule:evenodd;clip-rule:evenodd;fill:#ffffff;}
</style>
<g>
	<path class="st0" d="M127.9,47.1l6.1,2.5l0,0v0c0.4,0.2,0.8,0.2,1.2,0.2c0.4,0,0.7-0.1,1.1-0.3l13-6.7c1.2-0.6,2.6-0.8,3.9-0.6
		c1.3,0.2,2.5,0.8,3.5,1.8v0l0,0l13.5,13.5c1,1,1.6,2.2,1.8,3.5c0.2,1.3,0,2.6-0.6,3.9l-6.7,13c-0.2,0.4-0.3,0.8-0.3,1.1
		c0,0.4,0.1,0.8,0.2,1.2l2.6,6.2c0.2,0.4,0.4,0.7,0.7,1c0.3,0.3,0.6,0.5,1,0.6l13.9,4.4c1.3,0.4,2.4,1.2,3.2,2.3l0,0
		c0.8,1.1,1.2,2.4,1.2,3.7v19.1c0,1.4-0.4,2.7-1.2,3.7l0,0h0c-0.8,1-1.9,1.9-3.2,2.3l-13.9,4.4c-0.4,0.1-0.7,0.3-1,0.6
		c-0.3,0.3-0.5,0.6-0.7,1l0,0.1l-2.5,6.1c-0.2,0.4-0.2,0.8-0.2,1.2c0,0.4,0.1,0.7,0.3,1.1l6.7,13c0.6,1.2,0.8,2.6,0.6,3.9
		c-0.2,1.3-0.8,2.5-1.8,3.5L156.7,172c-1,1-2.2,1.6-3.5,1.8c-1.3,0.2-2.6,0-3.9-0.6l-13-6.7c-0.4-0.2-0.8-0.3-1.1-0.3
		c-0.4,0-0.8,0.1-1.2,0.2l-6.2,2.6c-0.4,0.2-0.7,0.4-1,0.7c-0.3,0.3-0.4,0.6-0.6,1l-4.4,13.9v0l0,0c-0.4,1.3-1.2,2.4-2.3,3.2
		c-1.1,0.8-2.4,1.2-3.7,1.2H96.7c-1.4,0-2.7-0.4-3.7-1.2c-1.1-0.8-1.9-1.9-2.3-3.2l0-0.1l-4.4-13.8c-0.1-0.4-0.3-0.7-0.6-1
		c-0.3-0.3-0.6-0.5-1-0.7l-0.1,0l-6.1-2.5c-0.4-0.2-0.8-0.2-1.2-0.2c-0.4,0-0.8,0.1-1.1,0.3l-13,6.7c-1.2,0.6-2.6,0.8-3.9,0.6
		c-1.3-0.2-2.5-0.8-3.5-1.8l-13.5-13.5l-0.1-0.1c-0.9-1-1.5-2.1-1.7-3.4c-0.2-1.3,0-2.6,0.6-3.9l6.7-13c0.2-0.4,0.3-0.8,0.3-1.1
		c0-0.4-0.1-0.8-0.2-1.2l-2.6-6.2c-0.2-0.4-0.4-0.7-0.7-1c-0.3-0.3-0.6-0.5-1-0.6l-13.9-4.4c-1.3-0.4-2.4-1.2-3.2-2.3l-0.1-0.1
		c-0.7-1-1.1-2.3-1.1-3.6V98.5c0-1.4,0.4-2.7,1.2-3.7h0h0c0.8-1.1,1.9-1.9,3.2-2.3L43.6,88l0,0c0.4-0.1,0.7-0.3,1-0.6
		c0.3-0.3,0.5-0.6,0.7-1l2.6-6.2c0.2-0.4,0.2-0.8,0.2-1.2c0-0.4-0.1-0.8-0.3-1.1l-6.7-13c-0.6-1.2-0.8-2.6-0.6-3.9
		c0.2-1.3,0.8-2.5,1.8-3.5v0L55.8,44c1-1,2.2-1.6,3.5-1.8c1.3-0.2,2.6,0,3.9,0.6l13,6.7c0.4,0.2,0.8,0.3,1.1,0.3
		c0.4,0,0.8-0.1,1.2-0.2v0l6.2-2.6l0.1,0c0.4-0.2,0.7-0.4,0.9-0.6c0.3-0.3,0.5-0.6,0.6-1l0-0.1l4.4-13.8l0,0h0
		c0.4-1.3,1.2-2.4,2.3-3.2c1.1-0.8,2.4-1.2,3.7-1.2h19.1c1.4,0,2.7,0.4,3.7,1.2c1.1,0.8,1.9,1.9,2.3,3.2l0,0.1l4.4,13.8
		c0.1,0.4,0.3,0.7,0.6,1C127.1,46.7,127.4,46.9,127.9,47.1L127.9,47.1L127.9,47.1z M106.2,147.8c11,0,20.9-4.5,28.1-11.7
		c7.2-7.2,11.7-17.2,11.7-28.1c0-11-4.5-20.9-11.7-28.1c-7.2-7.2-17.1-11.7-28.1-11.7c-11,0-20.9,4.5-28.1,11.7
		C70.9,87.1,66.5,97,66.5,108c0,11,4.4,20.9,11.7,28.1C85.3,143.3,95.3,147.8,106.2,147.8L106.2,147.8z M136.9,138.7
		c7.9-7.9,12.7-18.7,12.7-30.7s-4.9-22.8-12.7-30.7c-7.9-7.8-18.7-12.7-30.7-12.7c-12,0-22.8,4.9-30.7,12.7
		C67.7,85.2,62.8,96,62.8,108s4.9,22.8,12.7,30.7c7.9,7.9,18.7,12.7,30.7,12.7C118.2,151.4,129.1,146.6,136.9,138.7L136.9,138.7z
		 M132.7,53l-6.1-2.5l-0.1,0c-0.9-0.4-1.6-0.9-2.2-1.6c-0.6-0.7-1.1-1.5-1.4-2.4l-4.4-13.8l0-0.1c-0.2-0.6-0.5-1.1-1-1.4
		c-0.4-0.3-1-0.5-1.6-0.5H96.7c-0.6,0-1.2,0.2-1.6,0.5c-0.4,0.3-0.8,0.8-1,1.4v0l-4.4,13.8l0,0.1c-0.3,0.9-0.7,1.7-1.4,2.4
		c-0.6,0.6-1.3,1.1-2.1,1.5l-0.1,0L79.8,53l0,0h0c-0.9,0.4-1.8,0.5-2.7,0.5c-0.9,0-1.8-0.3-2.6-0.7l-13-6.7
		c-0.5-0.3-1.1-0.4-1.7-0.3c-0.5,0.1-1.1,0.3-1.5,0.8L44.8,60.1l0,0h0c-0.4,0.4-0.7,1-0.8,1.5c-0.1,0.5,0,1.1,0.3,1.7l6.7,13
		c0.4,0.8,0.7,1.7,0.7,2.6c0,0.9-0.1,1.8-0.5,2.7l-2.6,6.2c-0.4,0.9-0.9,1.6-1.6,2.2c-0.7,0.6-1.5,1.1-2.4,1.4l0,0h0l-13.9,4.4
		c-0.6,0.2-1,0.5-1.4,1v0c-0.3,0.4-0.5,1-0.5,1.6v19.1c0,0.6,0.2,1.1,0.5,1.5l0.1,0.1c0.3,0.4,0.8,0.8,1.4,1l13.9,4.4
		c0.9,0.3,1.7,0.7,2.4,1.4c0.7,0.6,1.2,1.4,1.6,2.2l2.6,6.2c0.4,0.9,0.5,1.8,0.5,2.7c0,0.9-0.3,1.8-0.7,2.6l-6.7,13
		c-0.3,0.5-0.4,1.1-0.3,1.7c0.1,0.5,0.3,1,0.7,1.4l0.1,0.1l13.5,13.5c0.4,0.4,1,0.7,1.5,0.8c0.6,0.1,1.1,0,1.7-0.3l13-6.7
		c0.8-0.4,1.7-0.7,2.6-0.7c0.9,0,1.8,0.1,2.7,0.5l6.1,2.5l0.1,0c0.9,0.4,1.6,0.9,2.2,1.6c0.6,0.7,1.1,1.5,1.4,2.4l4.4,13.8l0,0.1
		c0.2,0.6,0.5,1.1,1,1.4c0.4,0.3,1,0.5,1.6,0.5h19.1c0.6,0,1.2-0.2,1.6-0.5c0.4-0.3,0.8-0.8,1-1.4l0,0l4.4-13.9
		c0.3-0.9,0.7-1.7,1.4-2.4c0.6-0.7,1.4-1.2,2.3-1.6l6.2-2.6c0.9-0.4,1.8-0.5,2.7-0.5c0.9,0,1.8,0.3,2.6,0.7l13,6.7
		c0.5,0.3,1.1,0.4,1.7,0.3c0.5-0.1,1.1-0.4,1.5-0.8l13.5-13.5c0.4-0.4,0.7-1,0.8-1.5c0.1-0.5,0-1.1-0.3-1.7l-6.7-13
		c-0.4-0.8-0.7-1.7-0.7-2.6c0-0.9,0.1-1.8,0.5-2.7l2.5-6.1l0-0.1c0.4-0.9,0.9-1.6,1.6-2.2c0.7-0.6,1.5-1.1,2.4-1.4l13.9-4.4
		c0.6-0.2,1.1-0.5,1.4-1v0c0.3-0.4,0.5-1,0.5-1.6V98.5c0-0.6-0.2-1.2-0.5-1.6v0l0,0c-0.3-0.4-0.8-0.8-1.4-1l-13.9-4.4
		c-0.9-0.3-1.7-0.8-2.4-1.4c-0.7-0.6-1.2-1.4-1.6-2.3l-2.6-6.2c-0.4-0.9-0.5-1.8-0.5-2.7c0-0.9,0.3-1.8,0.7-2.6l6.7-13
		c0.3-0.5,0.4-1.1,0.3-1.7c-0.1-0.5-0.4-1.1-0.8-1.5l-13.5-13.5v0c-0.4-0.4-1-0.7-1.5-0.8c-0.5-0.1-1.1,0-1.7,0.3l-13,6.7
		c-0.8,0.4-1.7,0.7-2.6,0.7C134.5,53.5,133.5,53.4,132.7,53L132.7,53L132.7,53z M121.8,31.6l-1.2,2.2
		C121.6,33.4,122.1,32.5,121.8,31.6L121.8,31.6z M106.2,89.9c-5,0-9.5,2-12.8,5.3v0v0c-3.3,3.3-5.3,7.8-5.3,12.8
		c0,4.9,2,9.4,5.2,12.7l0.1,0.1c3.3,3.3,7.8,5.3,12.8,5.3c4.9,0,9.4-2,12.7-5.2l0.1-0.1c3.3-3.3,5.3-7.8,5.3-12.8
		c0-5-2-9.5-5.3-12.8C115.8,91.9,111.2,89.9,106.2,89.9L106.2,89.9z M116.5,97.8c-2.6-2.6-6.2-4.2-10.2-4.2c-4,0-7.6,1.6-10.2,4.2v0
		c-2.6,2.6-4.2,6.2-4.2,10.2c0,4,1.6,7.5,4.1,10.1l0.1,0.1c2.6,2.6,6.2,4.2,10.2,4.2c3.9,0,7.5-1.6,10.1-4.1l0.1-0.1
		c2.6-2.6,4.2-6.2,4.2-10.2C120.7,104,119.1,100.4,116.5,97.8z"/>
</g>
</svg>
