<?xml version="1.0" encoding="utf-8"?>
<!-- Generator: Adobe Illustrator 23.0.4, SVG Export Plug-In . SVG Version: 6.00 Build 0)  -->
<svg version="1.1" id="Layer_1" xmlns="http://www.w3.org/2000/svg" xmlns:xlink="http://www.w3.org/1999/xlink" x="0px" y="0px"
	 viewBox="0 0 216 216" style="enable-background:new 0 0 216 216;" xml:space="preserve">
<style type="text/css">
	.st0{fill-rule:evenodd;clip-rule:evenodd;fill:#ffffff;}
</style>
<path class="st0" d="M173.4,53.8l18.4,18.4V59.7c0-1.6-0.7-3.1-1.7-4.1c-1.1-1.1-2.5-1.7-4.1-1.7H173.4L173.4,53.8z M180.1,99.4
	c0.8,0,1.5,0.7,1.5,1.5c0,0.8-0.7,1.5-1.5,1.5H121c-0.8,0-1.5-0.7-1.5-1.5c0-0.8,0.7-1.5,1.5-1.5H180.1L180.1,99.4z M180.1,83.2
	c0.8,0,1.5,0.6,1.5,1.5c0,0.8-0.7,1.4-1.5,1.4H121c-0.8,0-1.5-0.6-1.5-1.4c0-0.8,0.7-1.5,1.5-1.5H180.1L180.1,83.2z M180.1,131.9
	c0.8,0,1.5,0.7,1.5,1.5c0,0.8-0.7,1.5-1.5,1.5H121c-0.8,0-1.5-0.7-1.5-1.5c0-0.8,0.7-1.5,1.5-1.5H180.1L180.1,131.9z M180.1,115.7
	c0.8,0,1.5,0.7,1.5,1.5c0,0.8-0.7,1.5-1.5,1.5H121c-0.8,0-1.5-0.7-1.5-1.5c0-0.8,0.7-1.5,1.5-1.5H180.1L180.1,115.7z M62.2,94.4
	l-5.9-3.5l-8.9,6.7c-0.4,0.3-0.9,0.4-1.4,0.2l0,0l-9-3.5v6.4h25.2V94.4L62.2,94.4z M37,91v-7.8h25.2V91l-5.2-3.1
	c-0.6-0.3-1.2-0.3-1.7,0.2l-8.9,6.7L37,91L37,91z M35.5,80.3h28.1c0.8,0,1.5,0.6,1.5,1.5V102c0,0.8-0.7,1.5-1.5,1.5H35.5
	c-0.8,0-1.5-0.7-1.5-1.5V81.7C34.1,80.9,34.7,80.3,35.5,80.3L35.5,80.3z M72.9,102.3c-0.8,0-1.5-0.7-1.5-1.5c0-0.8,0.7-1.5,1.5-1.5
	h21.8c0.8,0,1.5,0.7,1.5,1.5c0,0.8-0.7,1.5-1.5,1.5H72.9L72.9,102.3z M72.9,86.1c-0.8,0-1.5-0.6-1.5-1.4c0-0.8,0.7-1.5,1.5-1.5h21.8
	c0.8,0,1.5,0.6,1.5,1.5c0,0.8-0.7,1.4-1.5,1.4H72.9L72.9,86.1z M35.5,134.8c-0.8,0-1.5-0.7-1.5-1.5c0-0.8,0.7-1.5,1.5-1.5h59.2
	c0.8,0,1.5,0.7,1.5,1.5c0,0.8-0.7,1.5-1.5,1.5H35.5L35.5,134.8z M35.5,118.6c-0.8,0-1.5-0.7-1.5-1.5c0-0.8,0.7-1.5,1.5-1.5h59.2
	c0.8,0,1.5,0.7,1.5,1.5c0,0.8-0.7,1.5-1.5,1.5H35.5L35.5,118.6z M29.7,164.2c-1.6,0-3.1-0.7-4.1-1.7c-1.1-1.1-1.7-2.5-1.7-4.1V59.7
	c0-1.6,0.7-3.1,1.7-4.1l0,0c1.1-1.1,2.5-1.7,4.1-1.7h76.7v110.4H29.7L29.7,164.2z M107.8,167.1H29.7c-2.4,0-4.6-1-6.2-2.6
	c-1.6-1.6-2.6-3.8-2.6-6.2V59.7c0-2.4,1-4.6,2.6-6.2l0,0l0,0l0,0c1.6-1.6,3.8-2.6,6.2-2.6h78.1H186c2.4,0,4.6,1,6.2,2.6
	c1.6,1.6,2.6,3.8,2.6,6.2v15.9c0,0.2,0,0.4,0,0.6v82.2c0,2.4-1,4.6-2.6,6.2l0,0c-1.6,1.6-3.8,2.6-6.2,2.6H107.8L107.8,167.1z
	 M191.8,77.3v81.1c0,1.6-0.7,3.1-1.7,4.1l0,0c-1.1,1.1-2.5,1.7-4.1,1.7h-76.7V53.8h59.1v14.7c0,2.4,1,4.6,2.6,6.2
	c1.6,1.6,3.8,2.6,6.2,2.6H191.8L191.8,77.3z M189.8,74.4h-12.6c-1.6,0-3.1-0.7-4.1-1.7c-1.1-1.1-1.7-2.5-1.7-4.1V55.9L189.8,74.4z"
	/>
</svg>
