<?xml version="1.0" encoding="utf-8"?>
<!-- Generator: Adobe Illustrator 23.0.4, SVG Export Plug-In . SVG Version: 6.00 Build 0)  -->
<svg version="1.1" id="Layer_1" xmlns="http://www.w3.org/2000/svg" xmlns:xlink="http://www.w3.org/1999/xlink" x="0px" y="0px"
	 viewBox="0 0 216 216" style="enable-background:new 0 0 216 216;" xml:space="preserve">
<style type="text/css">
	.st0{fill-rule:evenodd;clip-rule:evenodd;fill:#ffffff;}
</style>
<path class="st0" d="M91.8,45.7l-13-14.5c-0.7-0.8-0.6-2,0.1-2.7c0.4-0.3,0.8-0.5,1.3-0.5v0h52.6c1.1,0,1.9,0.9,1.9,1.9
	c0,0.5-0.2,1-0.5,1.3l-12.9,14.5v10.8l34.2,28.3c1.4,1.1,2.4,2.5,3.1,3.9c0.7,1.5,1.1,3.2,1.1,4.9v82.8c0,3.2-1.3,6-3.4,8.1
	l-0.1,0.1c-2.1,2-4.9,3.3-8,3.3H64.9c-3.2,0-6-1.3-8.1-3.4v0h0l0,0c-2.1-2.1-3.4-4.9-3.4-8.1V93.7c0-1.8,0.4-3.4,1.1-4.9
	c0.7-1.5,1.7-2.8,3.1-3.9l34.2-28.3V45.7L91.8,45.7z M117.5,47.5H95.6v7.6h21.8V47.5L117.5,47.5z M104.6,95v8.6h-9.5
	c-1.8,0-3.5,0.8-4.7,2l0,0h0c-1.2,1.2-2,2.9-2,4.7v13.1c0,1.8,0.8,3.5,2,4.7l0,0c1.2,1.2,2.9,2,4.7,2h9.5V149H90.3
	c-1.1,0-1.9,0.9-1.9,1.9s0.9,1.9,1.9,1.9h14.3v8.6c0,1.1,0.9,1.9,1.9,1.9s1.9-0.9,1.9-1.9v-8.6h9.5c1.8,0,3.5-0.8,4.7-2l0,0l0,0
	c1.2-1.2,2-2.9,2-4.7V133c0-1.8-0.8-3.5-2-4.7c-1.2-1.2-2.9-2-4.7-2h-9.5v-18.9h11.8c1.1,0,1.9-0.9,1.9-1.9c0-1.1-0.9-1.9-1.9-1.9
	h-11.8V95c0-1.1-0.9-1.9-1.9-1.9S104.6,93.9,104.6,95L104.6,95z M108.5,130.1V149h9.5c0.8,0,1.5-0.3,2-0.8l0,0
	c0.5-0.5,0.8-1.2,0.8-2V133c0-0.8-0.3-1.5-0.8-2c-0.5-0.5-1.2-0.8-2-0.8H108.5L108.5,130.1z M104.6,126.3v-18.9h-9.5
	c-0.8,0-1.5,0.3-2,0.8l0,0c-0.5,0.5-0.8,1.2-0.8,2v13.1c0,0.8,0.3,1.5,0.8,2c0.5,0.5,1.2,0.8,2,0.8H104.6L104.6,126.3z M84.5,31.8
	l10.6,11.9H118l10.6-11.9H84.5L84.5,31.8z M153.1,87.8l-34.9-28.8H94.9L60,87.8c-0.9,0.8-1.6,1.7-2.1,2.6c-0.5,1-0.7,2.1-0.7,3.3
	v82.8c0,2.1,0.9,4,2.2,5.4h0c1.4,1.4,3.3,2.2,5.4,2.2h83.3c2.1,0,4-0.8,5.3-2.2l0.1-0.1c1.4-1.4,2.3-3.3,2.3-5.4V93.7
	c0-1.2-0.2-2.3-0.7-3.3C154.7,89.4,154,88.5,153.1,87.8z"/>
</svg>
