<?xml version="1.0" encoding="utf-8"?>
<!-- Generator: Adobe Illustrator 23.0.4, SVG Export Plug-In . SVG Version: 6.00 Build 0)  -->
<svg version="1.1" id="Layer_1" xmlns="http://www.w3.org/2000/svg" xmlns:xlink="http://www.w3.org/1999/xlink" x="0px" y="0px"
	 viewBox="0 0 216 216" style="enable-background:new 0 0 216 216;" xml:space="preserve">
<style type="text/css">
	.st0{fill-rule:evenodd;clip-rule:evenodd;fill:#ffffff;}
</style>
<path class="st0" d="M106.8,33.2c-11.7,0.1-22.7,2.9-32.5,7.7c-2.6,7.4-4.3,15.2-5,23.2c-0.1,1.4-0.2,2.7-0.3,4.1
	c11.3,1.6,22.6,4.6,33.5,8.8c8.1-3.5,16.6-5.9,25.2-7.3c0.4-2.9,1.7-5.5,3.6-7.5l0.1-0.1c0.6-0.6,1.3-1.2,2-1.6
	c-2.9-4.6-6.5-9.2-10.8-13.7C118.2,42.2,112.9,37.6,106.8,33.2L106.8,33.2z M34.2,123c0.5,0.2,1,0.3,1.5,0.5c4,1.2,9.2,2.3,15.1,3.2
	c2.7-6.1,6-11.8,9.9-17.1l-0.1-0.1l0,0l0,0c-2.4-2.4-3.9-5.7-3.9-9.3c0-3.6,1.5-7,3.9-9.3c1.4-1.4,3.2-2.6,5.2-3.2
	c-0.7-5.3-1-10.6-1-15.9c-7.7-0.9-15.3-1-22.7-0.3c-6.1,10.8-9.5,23.3-9.5,36.5C32.7,113.1,33.2,118.2,34.2,123L34.2,123z M55,127.3
	c2.5-5.5,5.5-10.6,9-15.3c1.8,0.9,3.9,1.5,6.1,1.5c1.1,0,2.1-0.1,3.1-0.4c2.5,5.6,5.6,10.9,9.4,15.9C72.5,128.9,63.1,128.3,55,127.3
	L55,127.3z M87.4,128.9c8.7-0.1,17.6-0.7,26.4-1.9c8.4-1.1,16.7-2.8,24.5-5.1c1.1-2.5,2-5,2.8-7.5c0.9-3,1.6-6.1,2.1-9.1
	c-6.5-5.3-13.7-10.3-21.4-14.6c-6.2-3.5-12.6-6.5-19.3-9.2c-7.5,3.3-14.5,7.5-21,12.5c1,1.9,1.6,4,1.6,6.3c0,3.6-1.4,6.8-3.8,9.2
	l-0.1,0.1c-0.8,0.8-1.7,1.5-2.6,2C79.5,117.7,83.1,123.6,87.4,128.9L87.4,128.9z M143.3,120.3c3.9-1.3,7.7-2.9,11.2-4.6
	c-2.4-2.6-5-5.1-7.7-7.5c-0.5,2.5-1.1,4.9-1.8,7.3C144.5,117.1,143.9,118.7,143.3,120.3L143.3,120.3z M158.2,113.7
	c-3.2-3.5-6.8-6.9-10.6-10.2c0.8-6.6,0.6-13.4-0.7-20.2c1.2-0.6,2.4-1.5,3.4-2.4l0,0h0c2.1-2.1,3.4-4.8,3.8-7.8
	c3.6,0.4,7.2,1,10.7,1.8c3.9,0.9,7.7,2.1,11.4,3.6c1.7,4,3.1,8.2,4.1,12.6C176.1,100.7,168.2,108.1,158.2,113.7L158.2,113.7z
	 M184.2,90.3l0.6,0.2c-0.1,0.3-0.2,0.6-0.3,0.9c1.1,5.3,1.8,10.9,1.8,16.6c0,21.7-8.8,41.4-23.1,55.7
	c-14.2,14.2-33.9,23.1-55.7,23.1c-21.7,0-41.4-8.8-55.7-23.1c-2.6-2.6-5.1-5.4-7.3-8.4l0,0c-9.9-13.2-15.7-29.5-15.7-47.2
	c0-21.7,8.8-41.4,23.1-55.7C66,38.1,85.7,29.3,107.5,29.3c21.7,0,41.4,8.8,55.7,23.1C173.4,62.6,180.8,75.7,184.2,90.3L184.2,90.3z
	 M181.5,97.4c-4.7,8-11.9,14.3-20.6,19.3c6.2,7.3,11.1,15.1,14.3,23c4.5-9.6,7.1-20.4,7.1-31.8C182.2,104.4,182,100.9,181.5,97.4
	L181.5,97.4z M157.3,118.7c7.1,8.2,12.5,16.9,15.4,25.9c-2.8,5-6.2,9.7-10.1,13.9c-6.3,0.1-12.2-0.1-17.8-0.7
	c-5.3-0.6-10.3-1.5-15-2.7c0.2-0.9,0.3-1.9,0.3-2.9c0-2.7-0.8-5.2-2.2-7.3c5.4-6,10-12.7,13.3-19.8
	C146.9,123.3,152.3,121.2,157.3,118.7L157.3,118.7z M136.1,126.6c-2.9,5.5-6.6,10.6-10.8,15.3c-2.3-1.9-5.2-3-8.4-3
	c-3.6,0-7,1.5-9.3,3.9c-0.7,0.7-1.2,1.4-1.8,2.2c-5.7-3.5-10.7-7.7-15-12.2c7.8-0.2,15.7-0.8,23.6-1.9
	C121.8,129.9,129.1,128.5,136.1,126.6L136.1,126.6z M85.6,132.9c-11.7,0.1-22.8-0.6-32.3-1.8l-0.1,0.2c-2.7,6.9-4.5,14.3-5.2,22.2
	c2,2.6,4.2,5.1,6.5,7.4c3.1,3.1,6.4,5.8,9.9,8.3c7.4,0,14.6-1,21.5-2.9c6.7-1.9,13.2-4.6,19.1-8c-0.9-1.8-1.5-3.9-1.5-6
	c0-1.2,0.2-2.4,0.5-3.5c-7.1-4.3-13.1-9.5-18.2-15.3L85.6,132.9L85.6,132.9z M49.3,130.5c-5.5-0.8-10.2-1.9-14.1-3
	c2,7.6,5.2,14.7,9.4,21.1C45.6,142.3,47.2,136.2,49.3,130.5L49.3,130.5z M69.2,43.7c-1.9,6.4-3.2,13.2-3.9,20.1
	c-0.1,1.3-0.2,2.6-0.3,4c-6.9-0.7-13.7-0.9-20.3-0.5c2.9-4.4,6.2-8.5,9.9-12.2C59,50.8,63.9,46.9,69.2,43.7L69.2,43.7z M68.9,72.3
	c9.6,1.4,19.2,3.8,28.6,7.2c-6.4,3.1-12.6,6.9-18.2,11.3C76.9,88.4,73.6,87,70,87h-0.2C69.1,82.1,68.8,77.2,68.9,72.3L68.9,72.3z
	 M158.6,162.5c-5,0-9.7-0.3-14.3-0.8c-5.7-0.6-11-1.6-16-2.9c-0.6,1-1.3,1.9-2.1,2.7c-2.4,2.4-5.7,3.9-9.4,3.9c-3.6,0-7-1.5-9.3-3.9
	l-0.1-0.1c-6.3,3.7-13.2,6.6-20.4,8.6c-5.4,1.5-11,2.5-16.7,2.9c10.9,6.2,23.6,9.8,37,9.8C127.3,182.8,145.3,175.1,158.6,162.5
	L158.6,162.5z M137.1,58.9c-3.1-5-7-9.9-11.6-14.7c-3.5-3.6-7.4-7.2-11.8-10.6c18.1,1.5,34.4,9.5,46.5,21.6
	c5.3,5.3,9.9,11.5,13.4,18.3c-2.7-0.9-5.3-1.7-8-2.3c-3.9-0.9-7.8-1.6-11.8-2c-0.5-2.6-1.8-5-3.6-6.9l0,0v0l0,0
	c-2.4-2.4-5.7-3.9-9.3-3.9C139.6,58.3,138.3,58.5,137.1,58.9L137.1,58.9z M143.9,100.5c-6.2-4.9-12.9-9.4-20.1-13.4
	c-5.1-2.9-10.5-5.5-16-7.9c6.5-2.5,13.2-4.3,20.1-5.4c0.5,2.7,1.8,5.2,3.7,7.1c2.4,2.4,5.7,3.9,9.3,3.9c0.7,0,1.5-0.1,2.2-0.2
	C144,89.9,144.3,95.3,143.9,100.5L143.9,100.5z M140.9,80.8c-2.5,0-4.9-1-6.5-2.7c-1.7-1.7-2.7-4-2.7-6.5c0-2.5,1-4.8,2.6-6.5
	l0.1-0.1c1.7-1.7,4-2.7,6.5-2.7c2.6,0,4.9,1,6.5,2.7h0c1.5,1.5,2.5,3.6,2.7,5.9v0l0,0v0v0c0,0.2,0,0.3,0,0.5c0,2.6-1,4.9-2.7,6.5
	l0,0c-1,1-2.2,1.7-3.5,2.2l0,0C143,80.6,142,80.8,140.9,80.8L140.9,80.8z M70,109.5c-2.6,0-4.9-1-6.5-2.7v0c-1.7-1.7-2.7-4-2.7-6.5
	c0-2.6,1-4.9,2.7-6.5c1.7-1.7,4-2.7,6.5-2.7s4.9,1,6.5,2.7c1.7,1.7,2.7,4,2.7,6.5c0,2.5-1,4.8-2.6,6.5l-0.1,0.1
	C74.9,108.4,72.6,109.5,70,109.5L70,109.5z M116.9,161.4c2.6,0,4.9-1,6.5-2.7c1.7-1.7,2.7-4,2.7-6.5c0-2.6-1-4.9-2.7-6.5
	c-1.7-1.7-4-2.7-6.5-2.7c-2.5,0-4.9,1-6.5,2.7c-1.7,1.7-2.7,4-2.7,6.5c0,2.5,1,4.9,2.7,6.5C112,160.4,114.3,161.4,116.9,161.4z"/>
</svg>
