<?xml version="1.0" encoding="utf-8"?>
<!-- Generator: Adobe Illustrator 23.0.4, SVG Export Plug-In . SVG Version: 6.00 Build 0)  -->
<svg version="1.1" id="Layer_1" xmlns="http://www.w3.org/2000/svg" xmlns:xlink="http://www.w3.org/1999/xlink" x="0px" y="0px"
	 viewBox="0 0 216 216" style="enable-background:new 0 0 216 216;" xml:space="preserve">
<style type="text/css">
	.st0{fill-rule:evenodd;clip-rule:evenodd;fill:#ffffff;}
</style>
<path class="st0" d="M108.6,37.2c17.7,0,33.7,7.2,45.3,18.8c11.6,11.6,18.8,27.6,18.8,45.3v13.5c2.5,0.1,4.8,1.2,6.4,2.9
	c1.8,1.8,2.9,4.2,2.9,6.9v35.1c0,2.7-1.1,5.1-2.9,6.9l0,0c-1.8,1.8-4.2,2.9-6.9,2.9h-13.3v3.8c0,0.9-0.7,1.6-1.6,1.6h-14.5
	c-0.9,0-1.6-0.7-1.6-1.6v-62.3c0-0.9,0.7-1.6,1.6-1.6h14.5c0.1,0,0.3,0,0.4,0v-8.1c0-13.6-5.5-25.8-14.4-34.7
	c-8.9-8.9-21.1-14.4-34.7-14.4c-13.5,0-25.8,5.5-34.7,14.4c-8.9,8.9-14.4,21.1-14.4,34.7v8.1c0.1,0,0.3,0,0.4,0h14.4
	c0.9,0,1.6,0.7,1.6,1.6v62.3c0,0.9-0.7,1.6-1.6,1.6H60c-0.9,0-1.6-0.7-1.6-1.6v-3.8H45c-2.7,0-5.2-1.1-6.9-2.9
	c-1.8-1.8-2.9-4.2-2.9-6.9v-35.1c0-2.7,1.1-5.1,2.9-6.9l0,0v0l0,0c1.7-1.7,3.9-2.7,6.4-2.9v-13.5c0-17.7,7.2-33.7,18.8-45.3
	C74.9,44.4,90.9,37.2,108.6,37.2L108.6,37.2z M61.6,116.5v51.5v3.8h11.2v-59H61.6V116.5L61.6,116.5z M57.9,118.1H46.2H45
	c-1.8,0-3.4,0.7-4.6,1.9v0c-1.2,1.2-1.9,2.8-1.9,4.6v35.1c0,1.8,0.7,3.4,1.9,4.6c1.2,1.2,2.8,1.9,4.6,1.9h13.3v-48.2H57.9
	L57.9,118.1z M155.6,167.9v-51.5v-3.8h-11.2v59h11.2V167.9L155.6,167.9z M171.1,118.1h-11.7h-0.4v48.2h13.3c1.8,0,3.4-0.7,4.6-1.9
	l0,0c1.2-1.2,1.9-2.8,1.9-4.6v-35.1c0-1.8-0.7-3.4-1.9-4.6c-1.2-1.2-2.8-1.9-4.6-1.9H171.1L171.1,118.1z M151.6,58.3
	c-11-11-26.2-17.8-43-17.8c-16.8,0-32,6.8-43,17.8c-11,11-17.8,26.2-17.8,43v13.5h8.5v-13.5c0-14.5,5.9-27.5,15.3-37
	c9.5-9.5,22.6-15.3,37-15.3s27.5,5.9,37,15.3c9.5,9.5,15.3,22.5,15.3,37v13.5h8.5v-13.5C169.4,84.5,162.6,69.3,151.6,58.3z"/>
</svg>
