<?xml version="1.0" encoding="utf-8"?>
<!-- Generator: Adobe Illustrator 23.0.4, SVG Export Plug-In . SVG Version: 6.00 Build 0)  -->
<svg version="1.1" id="Layer_1" xmlns="http://www.w3.org/2000/svg" xmlns:xlink="http://www.w3.org/1999/xlink" x="0px" y="0px"
	 viewBox="0 0 216 216" style="enable-background:new 0 0 216 216;" xml:space="preserve">
<style type="text/css">
	.st0{fill-rule:evenodd;clip-rule:evenodd;fill:#ffffff;}
</style>
<path class="st0" d="M49.1,139.8c-2.3-9.1-1.6-18.9,1.5-27.9c2.3-6.6,5.9-12.7,10.7-17.7c4.8-5.1,10.7-9,17.4-11
	c13.4-4.1,30.3-1.1,48.7,14.3c0.8,0.7,0.9,1.9,0.3,2.7l0,0L117,113.8l62.1,4.3l-19.4-59.2l-9.6,12.3c-0.7,0.9-1.9,1-2.8,0.4
	l-15.2-11.8c-12.7-9.9-28.4-13.6-43.3-11.6c-15,2-29.3,9.6-39.3,22.4c-9.5,12.2-12.5,26.9-10.7,41.2
	C40.1,121.7,43.7,131.4,49.1,139.8L49.1,139.8z M54.3,113.2c-4.7,13.4-3.5,28.8,5.8,39.7c0.7,0.7,0.7,1.9,0,2.7
	c-0.7,0.8-2,0.9-2.8,0.1c-12.1-11-20.3-27-22.4-43.5C33,97,36.3,81.2,46.5,68.1c10.6-13.7,25.9-21.8,41.9-23.9
	c15.9-2.1,32.6,1.9,46.2,12.4l13.7,10.6l10.6-13.7l0,0c0.2-0.3,0.5-0.5,0.9-0.7c1-0.3,2.1,0.2,2.5,1.3l21.5,65.5
	c0.1,0.2,0.1,0.5,0.1,0.8c-0.1,1.1-1,1.9-2.1,1.8l-68.6-4.7c-0.4,0-0.9-0.1-1.2-0.4c-0.9-0.7-1-1.9-0.3-2.8l11.8-15.1
	c-16.7-13.3-31.7-16-43.6-12.3c-6.1,1.9-11.4,5.4-15.7,9.9C59.8,101.5,56.4,107.1,54.3,113.2z"/>
</svg>
