<?xml version="1.0" encoding="utf-8"?>
<!-- Generator: Adobe Illustrator 23.0.4, SVG Export Plug-In . SVG Version: 6.00 Build 0)  -->
<svg version="1.1" id="Layer_1" xmlns="http://www.w3.org/2000/svg" xmlns:xlink="http://www.w3.org/1999/xlink" x="0px" y="0px"
	 viewBox="0 0 216 216" style="enable-background:new 0 0 216 216;" xml:space="preserve">
<style type="text/css">
	.st0{fill-rule:evenodd;clip-rule:evenodd;fill:#ffffff;}
</style>
<path class="st0" d="M106,72.9c0-1,0.8-1.8,1.8-1.8c1,0,1.8,0.8,1.8,1.8v8.8h11.7c1,0,1.8,0.8,1.8,1.8c0,1-0.8,1.8-1.8,1.8h-11.7
	v19.4h9.1c2,0,3.9,0.8,5.2,2.2l0,0c1.3,1.3,2.2,3.2,2.2,5.2v11.8c0,2-0.8,3.9-2.2,5.2l0,0c-1.3,1.3-3.2,2.2-5.2,2.2h-9.1v8.8
	c0,1-0.8,1.8-1.8,1.8c-1,0-1.8-0.8-1.8-1.8v-8.8H91.4c-1,0-1.8-0.8-1.8-1.8c0-1,0.8-1.8,1.8-1.8H106v-19.4H97c-2,0-3.9-0.8-5.2-2.2
	l0,0c-1.3-1.3-2.2-3.2-2.2-5.2V89c0-2,0.8-3.9,2.2-5.2l0,0c1.3-1.3,3.2-2.2,5.2-2.2h9.1V72.9L106,72.9z M98.1,174.8
	c-1,0-1.8-0.8-1.8-1.8c0-1,0.8-1.8,1.8-1.8l19.5,0c1,0,1.8,0.8,1.8,1.8c0,1-0.8,1.8-1.8,1.8L98.1,174.8L98.1,174.8z M71.4,33.4
	c-3,0-5.7,1.2-7.6,3.2c-1.9,2-3.2,4.6-3.2,7.6v131.8c0,2.9,1.2,5.6,3.1,7.6l0,0h0v0c2,1.9,4.6,3.2,7.6,3.2h72.9c3,0,5.7-1.2,7.6-3.2
	c1.9-1.9,3.2-4.6,3.2-7.6V44.1c0-3-1.2-5.7-3.2-7.6l0,0c-2-1.9-4.6-3.2-7.6-3.2H71.4L71.4,33.4z M144.3,36.9H71.4
	c-2,0-3.8,0.8-5.1,2.1c-1.3,1.3-2.1,3.1-2.1,5.1v131.8c0,2,0.8,3.8,2.1,5.1l0,0c1.3,1.3,3.1,2.1,5.1,2.1h72.9c2,0,3.8-0.8,5.1-2.1
	c1.3-1.3,2.1-3.1,2.1-5.1V44.1c0-2-0.8-3.8-2.1-5.1l0,0C148.1,37.8,146.3,36.9,144.3,36.9L144.3,36.9z M71.5,47.9
	c-1,0-1.8,0.8-1.8,1.8v113.3c0,1,0.8,1.8,1.8,1.8h72.6c1,0,1.8-0.8,1.8-1.8V49.7c0-1-0.8-1.8-1.8-1.8H71.5L71.5,47.9z M142.3,51.5
	h-69v109.8h69V51.5L142.3,51.5z M109.6,108.2v19.4h9.1c1,0,2-0.4,2.7-1.1h0c0.7-0.7,1.1-1.6,1.1-2.7V112c0-1-0.4-2-1.1-2.7l0,0
	c-0.7-0.7-1.6-1.1-2.7-1.1H109.6L109.6,108.2z M106,104.6V85.3H97c-1,0-2,0.4-2.7,1.1h0c-0.7,0.7-1.1,1.6-1.1,2.7v11.8
	c0,1,0.4,2,1.1,2.7h0c0.7,0.7,1.6,1.1,2.7,1.1H106z"/>
</svg>
