<?xml version="1.0" encoding="utf-8"?>
<!-- Generator: Adobe Illustrator 23.0.4, SVG Export Plug-In . SVG Version: 6.00 Build 0)  -->
<svg version="1.1" id="Layer_1" xmlns="http://www.w3.org/2000/svg" xmlns:xlink="http://www.w3.org/1999/xlink" x="0px" y="0px"
	 viewBox="0 0 216 216" style="enable-background:new 0 0 216 216;" xml:space="preserve">
<style type="text/css">
	.st0{fill-rule:evenodd;clip-rule:evenodd;fill:#ffffff;}
</style>
<path class="st0" d="M121.5,69.5H141c1.1,0,2.2,0.3,3.1,0.9c0.9,0.6,1.7,1.4,2.2,2.5l14.3,28.1c0.4,0.8,0.1,1.8-0.7,2.2
	c-0.2,0.1-0.5,0.2-0.8,0.2v0h-37.6c-0.9,0-1.7-0.7-1.7-1.7V71.2C119.8,70.3,120.6,69.5,121.5,69.5L121.5,69.5z M82.7,103.4
	c0.9,0,1.7,0.7,1.7,1.7c0,0.9-0.7,1.7-1.7,1.7H38.8c-0.9,0-1.7-0.7-1.7-1.7c0-0.9,0.8-1.7,1.7-1.7H82.7L82.7,103.4z M61.1,138.8
	c-1.4,0-2.6,0.6-3.5,1.4l-0.1,0.1c-0.8,0.9-1.4,2.1-1.4,3.4c0,1.4,0.6,2.6,1.4,3.5l0,0l0,0c0.9,0.9,2.1,1.4,3.5,1.4
	c1.4,0,2.6-0.6,3.5-1.4l0.1-0.1c0.8-0.9,1.4-2.1,1.4-3.4c0-1.4-0.6-2.6-1.4-3.5C63.7,139.4,62.5,138.8,61.1,138.8L61.1,138.8z
	 M55.3,137.9c1.5-1.5,3.6-2.4,5.8-2.4c2.3,0,4.4,0.9,5.8,2.4c1.5,1.5,2.4,3.6,2.4,5.8c0,2.2-0.9,4.2-2.3,5.7l-0.1,0.1
	c-1.5,1.5-3.6,2.4-5.8,2.4c-2.3,0-4.3-0.9-5.8-2.4l0,0c-1.5-1.5-2.4-3.6-2.4-5.8c0-2.2,0.9-4.3,2.3-5.7L55.3,137.9L55.3,137.9z
	 M157.2,138.8c-1.4,0-2.6,0.6-3.5,1.4l0,0h0c-0.9,0.9-1.4,2.1-1.4,3.5c0,1.4,0.6,2.6,1.4,3.5l0.1,0.1c0.9,0.8,2.1,1.4,3.4,1.4
	c1.4,0,2.6-0.6,3.5-1.4c0.9-0.9,1.4-2.1,1.4-3.5c0-1.4-0.5-2.6-1.4-3.5l-0.1-0.1C159.7,139.3,158.5,138.8,157.2,138.8L157.2,138.8z
	 M151.4,137.9c1.5-1.5,3.6-2.4,5.8-2.4c2.2,0,4.2,0.9,5.7,2.3l0.1,0.1c1.5,1.5,2.4,3.6,2.4,5.8c0,2.3-0.9,4.3-2.4,5.8
	c-1.5,1.5-3.6,2.4-5.8,2.4c-2.2,0-4.3-0.9-5.7-2.3l-0.1-0.1c-1.5-1.5-2.4-3.6-2.4-5.8C148.9,141.5,149.9,139.4,151.4,137.9
	L151.4,137.9L151.4,137.9z M157.2,131.9c3.2,0,6.1,1.3,8.3,3.4l0.1,0.1c2.1,2.1,3.5,5.1,3.5,8.3c0,3.3-1.3,6.2-3.5,8.3
	c-2.1,2.1-5.1,3.5-8.3,3.5c-3.3,0-6.2-1.3-8.3-3.5h0h0c-2.1-2.1-3.4-5.1-3.4-8.3c0-3.3,1.3-6.2,3.5-8.3
	C151,133.3,154,131.9,157.2,131.9L157.2,131.9z M146.5,133c2.7-2.7,6.5-4.4,10.7-4.4c4.1,0,7.9,1.7,10.6,4.3l0.1,0.1
	c2.7,2.7,4.4,6.5,4.4,10.7c0,4.2-1.7,8-4.4,10.7c-2.7,2.7-6.5,4.4-10.7,4.4c-4.2,0-8-1.7-10.7-4.4l0,0c-2.7-2.7-4.4-6.5-4.4-10.7
	C142.1,139.6,143.8,135.8,146.5,133L146.5,133z M61.1,131.9c3.2,0,6.1,1.3,8.3,3.4l0.1,0.1c2.1,2.1,3.5,5.1,3.5,8.3
	c0,3.3-1.3,6.2-3.5,8.3c-2.1,2.1-5.1,3.5-8.3,3.5c-3.2,0-6.1-1.3-8.3-3.4l-0.1-0.1c-2.1-2.1-3.5-5.1-3.5-8.3c0-3.3,1.3-6.2,3.5-8.3
	l0,0l0,0C54.9,133.3,57.9,131.9,61.1,131.9L61.1,131.9z M50.4,133c2.7-2.7,6.5-4.4,10.7-4.4c4.1,0,7.9,1.7,10.6,4.3l0.1,0.1
	c2.7,2.7,4.4,6.5,4.4,10.7c0,4.2-1.7,8-4.4,10.7c-2.7,2.7-6.5,4.4-10.7,4.4c-4.1,0-7.9-1.7-10.6-4.3l-0.1-0.1
	c-2.7-2.7-4.4-6.5-4.4-10.7C46,139.6,47.7,135.8,50.4,133L50.4,133L50.4,133z M38.6,61.3c-2.7,0-5.2,1.1-7.1,2.9l0,0h0l0,0
	c-1.8,1.8-2.9,4.3-2.9,7.1v48.8h-1c-0.9,0-1.7,0.7-1.7,1.7v11.1c0,2.8,1.1,5.3,2.9,7.1c1.8,1.8,4.3,2.9,7.1,2.9h4.6l0,0
	c0.8,0,1.6-0.6,1.7-1.5c0.6-4.7,2.9-9,6.3-12c3.4-3,7.8-4.8,12.6-4.8c4.9,0,9.3,1.8,12.6,4.8c3.4,3,5.7,7.2,6.3,11.9
	c0.1,0.9,0.8,1.5,1.7,1.5h55l0,0c0.8,0,1.6-0.6,1.7-1.5c0.6-4.7,2.9-9,6.3-12c3.4-3,7.8-4.8,12.6-4.8c4.8,0,9.3,1.8,12.6,4.8
	c3.4,3,5.7,7.2,6.3,11.9c0.1,0.9,0.8,1.5,1.7,1.5h4.2c1.6,0,3.1-0.7,4.1-1.7c1.1-1.1,1.7-2.5,1.7-4.1v-15.2c0-0.9-0.8-1.7-1.7-1.7
	h-1v-8.9c0-2.5-0.9-4.8-2.4-6.5c-1.5-1.8-3.6-3-6.1-3.4l-7.2-1.1l-16.5-33.1c-0.9-1.8-2.2-3.3-3.7-4.3c-1.5-1-3.4-1.6-5.3-1.6H38.6
	L38.6,61.3z M143.8,64.7H38.6c-1.8,0-3.5,0.7-4.7,2l0,0c-1.2,1.2-2,2.9-2,4.7v50.5c0,0.9-0.8,1.7-1.7,1.7h-1v9.4
	c0,1.8,0.8,3.5,2,4.7c1.2,1.2,2.9,2,4.7,2h3.2c0.9-5,3.5-9.4,7.2-12.6c4-3.5,9.1-5.6,14.8-5.6c5.7,0,10.9,2.1,14.8,5.6
	c3.6,3.2,6.2,7.6,7.2,12.6h52.1c0.9-5,3.5-9.4,7.2-12.6c4-3.5,9.1-5.6,14.8-5.6c5.7,0,10.9,2.1,14.8,5.6c3.6,3.2,6.2,7.6,7.2,12.6
	h2.7c0.7,0,1.3-0.3,1.8-0.7c0.5-0.5,0.7-1.1,0.7-1.8v-13.6h-1c-0.9,0-1.7-0.7-1.7-1.7v-10.6c0-1.7-0.6-3.2-1.6-4.4
	c-1-1.2-2.4-2-4-2.3l-8-1.3v0c-0.5-0.1-1-0.4-1.2-0.9L150,68.6c-0.6-1.2-1.5-2.3-2.6-2.9C146.4,65,145.2,64.7,143.8,64.7L143.8,64.7
	z M141,72.9h-17.8v27.2h33.2l-13.1-25.7c-0.3-0.5-0.6-0.9-1-1.2C141.9,73,141.5,72.9,141,72.9z"/>
</svg>
