<?xml version="1.0" encoding="utf-8"?>
<!-- Generator: Adobe Illustrator 23.0.4, SVG Export Plug-In . SVG Version: 6.00 Build 0)  -->
<svg version="1.1" id="Layer_1" xmlns="http://www.w3.org/2000/svg" xmlns:xlink="http://www.w3.org/1999/xlink" x="0px" y="0px"
	 viewBox="0 0 216 216" style="enable-background:new 0 0 216 216;" xml:space="preserve">
<style type="text/css">
	.st0{fill-rule:evenodd;clip-rule:evenodd;fill:#ffffff;}
</style>
<path class="st0" d="M60,152.9h80.5c1,0,1.7,0.8,1.7,1.7v15.2l45.2-30.4L142.2,109v15.2c0,0.9-0.8,1.7-1.7,1.7H60
	c-1.9,0-3.6,0.8-4.9,2l0,0c-1.2,1.3-2,3-2,4.9V146c0,1.9,0.8,3.6,2,4.9C56.4,152.1,58.1,152.9,60,152.9L60,152.9z M156,90.3H77.3
	v16.7c0,1-0.8,1.7-1.7,1.7c-0.4,0-0.8-0.1-1.1-0.4L24.6,74.8c-0.8-0.5-1-1.6-0.5-2.4c0.1-0.2,0.3-0.4,0.5-0.5l50-33.7
	c0.8-0.5,1.9-0.3,2.4,0.5c0.2,0.3,0.3,0.6,0.3,1h0v16.7H156c2.9,0,5.5,1.2,7.3,3c1.9,1.9,3,4.5,3,7.3V80c0,2.8-1.2,5.4-3,7.3l0,0
	C161.5,89.2,158.9,90.3,156,90.3L156,90.3z M75.6,86.9H156c1.9,0,3.6-0.8,4.9-2l0,0c1.2-1.3,2-3,2-4.9V66.8c0-1.9-0.8-3.6-2-4.9
	c-1.3-1.2-3-2-4.9-2H75.6c-1,0-1.7-0.8-1.7-1.7V43L28.6,73.4l45.2,30.4V88.6C73.8,87.6,74.6,86.9,75.6,86.9L75.6,86.9z M138.8,156.4
	H60c-2.9,0-5.5-1.2-7.3-3c-1.9-1.9-3-4.5-3-7.3v-13.2c0-2.8,1.2-5.4,3-7.3l0,0v0l0,0c1.9-1.9,4.5-3,7.3-3h78.7v-16.7h0
	c0-0.3,0.1-0.7,0.3-1c0.5-0.8,1.6-1,2.4-0.5l50,33.7c0.2,0.1,0.3,0.3,0.5,0.5c0.5,0.8,0.3,1.9-0.5,2.4l-49.9,33.6
	c-0.3,0.2-0.7,0.4-1.1,0.4c-1,0-1.7-0.8-1.7-1.7V156.4z"/>
</svg>
