<?xml version="1.0" encoding="utf-8"?>
<!-- Generator: Adobe Illustrator 23.0.4, SVG Export Plug-In . SVG Version: 6.00 Build 0)  -->
<svg version="1.1" id="Layer_1" xmlns="http://www.w3.org/2000/svg" xmlns:xlink="http://www.w3.org/1999/xlink" x="0px" y="0px"
	 viewBox="0 0 216 216" style="enable-background:new 0 0 216 216;" xml:space="preserve">
<style type="text/css">
	.st0{fill-rule:evenodd;clip-rule:evenodd;fill:#ffffff;}
</style>
<path class="st0" d="M166.4,87.7l-24.8,12.5c0.4,1.8,0.7,3.6,0.8,5.5c0.1,2.4,0,4.8-0.3,7.2c-1.4,9.3-6.4,17.2-13.4,22.4
	c-7,5.2-15.9,7.8-25.2,6.5l0,0l-3.6-0.5c-1.1-0.2-1.8-1.2-1.7-2.2l0,0l0,0l2.7-18.3l-17.6,8.8c-0.1,0-0.1,0.1-0.2,0.1L56,143.3
	l-7.5,3.8L91,187.5l2.6-17.6c0.2-1.1,1.2-1.8,2.3-1.7l0.2,0l3.4,0.5c16.8,2.4,33-2.1,45.6-11.5c12.6-9.4,21.7-23.6,24.2-40.3
	c0.8-5.3,0.9-10.7,0.3-15.9C168.9,96.5,167.9,92,166.4,87.7L166.4,87.7z M50.1,128c-1.5-4.3-2.5-8.8-3-13.3
	c-0.6-5.2-0.5-10.6,0.3-15.9C49.9,82,58.9,67.8,71.5,58.5c12.6-9.4,28.8-14,45.6-11.5l3.4,0.5l0.2,0c1.1,0.2,2.1-0.6,2.3-1.7
	l2.6-17.6L168,68.7l-7.5,3.8l-27.2,13.7c-0.1,0-0.1,0.1-0.2,0.1L115.6,95l2.7-18.3l0,0l0,0c0.2-1.1-0.6-2.1-1.7-2.2L113,74l0,0
	c-9.3-1.3-18.3,1.2-25.2,6.5c-7,5.2-12,13.1-13.4,22.4c-0.4,2.4-0.5,4.8-0.3,7.2c0.1,1.8,0.4,3.7,0.8,5.5L50.1,128L50.1,128z
	 M78.1,118.3l-28.2,14.2l0,0c-0.1,0-0.1,0.1-0.2,0.1c-1,0.4-2.2-0.1-2.6-1.1c-2-5.3-3.4-10.8-4-16.4c-0.6-5.6-0.5-11.3,0.3-16.9
	c2.7-17.8,12.3-32.9,25.7-42.9c13.4-10,30.7-14.8,48.5-12.2l1.6,0.2l2.9-19.4l0,0c0.1-0.4,0.2-0.8,0.5-1.1c0.8-0.8,2-0.8,2.8-0.1
	l47.2,45.1c0.2,0.2,0.3,0.3,0.4,0.5c0.5,1,0.1,2.2-0.9,2.7l-10,5L135,89.7l0,0c-0.1,0.1-0.2,0.1-0.3,0.1L114,100.2
	c-0.4,0.2-0.8,0.3-1.3,0.2c-1.1-0.2-1.8-1.2-1.7-2.3l3-20.1l-1.6-0.2l0,0c-8.2-1.2-16.2,1.1-22.3,5.7c-6.2,4.6-10.6,11.6-11.8,19.8
	c-0.3,2.1-0.4,4.3-0.3,6.4c0.1,2.1,0.5,4.2,1,6.2C79.4,116.9,79,117.9,78.1,118.3L78.1,118.3z M138.4,97.4l28.2-14.2l0,0
	c0.1,0,0.1-0.1,0.2-0.1c1-0.4,2.2,0.1,2.6,1.1c2.1,5.3,3.4,10.8,4,16.4c0.6,5.6,0.5,11.3-0.3,16.9c-2.7,17.8-12.3,32.9-25.7,42.9
	c-13.4,10-30.7,14.8-48.5,12.2l-1.6-0.2l-2.9,19.4l0,0c-0.1,0.4-0.2,0.8-0.5,1.1c-0.8,0.8-2,0.8-2.8,0.1l-47.3-45.1
	c-0.2-0.2-0.3-0.3-0.4-0.6c-0.5-1-0.1-2.2,0.9-2.6l10-5L81.5,126l0,0c0.1-0.1,0.2-0.1,0.3-0.1l20.7-10.4c0.4-0.2,0.8-0.3,1.3-0.3
	c1.1,0.2,1.8,1.2,1.7,2.3l-3,20.1l1.6,0.2l0,0c8.2,1.2,16.1-1.1,22.3-5.7c6.2-4.6,10.6-11.6,11.8-19.8c0.3-2.1,0.4-4.3,0.3-6.4
	c-0.1-2.1-0.5-4.1-1-6.2C137.1,98.9,137.5,97.8,138.4,97.4z"/>
</svg>
