<?xml version="1.0" encoding="utf-8"?>
<!-- Generator: Adobe Illustrator 23.0.4, SVG Export Plug-In . SVG Version: 6.00 Build 0)  -->
<svg version="1.1" id="Layer_1" xmlns="http://www.w3.org/2000/svg" xmlns:xlink="http://www.w3.org/1999/xlink" x="0px" y="0px"
	 viewBox="0 0 216 216" style="enable-background:new 0 0 216 216;" xml:space="preserve">
<style type="text/css">
	.st0{fill-rule:evenodd;clip-rule:evenodd;fill:#1D1933;}
</style>
<g>
	<path class="st0" d="M51.2,52.4c7.3-7.3,16-13.2,25.7-17.2c1.6-0.6,3.2-1.3,4.8-1.8l0.1,0c1.4-0.5,2.7-0.9,4.1-1.3l0.1,0l0.2-0.1
		l0.2,0l0,0l0.2-0.1l0.2-0.1l0.1,0l0.1,0l0.2-0.1l0.1,0l0.1,0l0.2-0.1l0.2,0l0,0l0.2,0l0.2-0.1l0.1,0l0.1,0l0.2,0l0.2,0h0l0.2,0
		l0.2,0l0.1,0l0.1,0l0.2,0l0.1,0l0.1,0l0.2,0c4-0.9,8.2-1.5,12.4-1.7l0.2,0l0.4,0l0.2,0l0.1,0l0.1,0l0.2,0l0.4,0l0.2,0h0.1h0.1
		l0.2,0h0.2h0.1l0.2,0l0.2,0h0h0.2l0.2,0h0.1l0.1,0h0.2h0.2h0l0.5,0h0.1h0.2h0.2h0.2h0.2h0.1l0.5,0h0h0.2h0.2l0.1,0h0.1l0.2,0h0.2h0
		l0.2,0l0.2,0h0h0.2l0.2,0c0.3,0,0.7,0,1,0l0.1,0l0.1,0l0.2,0l0.4,0l0.2,0c4.6,0.3,9.1,0.9,13.4,2l0.2,0h0l0.2,0l0.2,0.1l0.2,0
		l0.2,0.1l0.2,0l0,0l0.2,0.1l0.2,0l0,0l0.2,0l0.2,0.1l0.1,0l0.1,0l0.2,0l0.2,0.1l0,0l0.2,0l0.2,0.1l0.1,0l0.1,0l0.3,0.1l0,0
		c0.4,0.1,0.9,0.3,1.3,0.4h0c0.8,0.2,1.5,0.5,2.3,0.7l0.1,0c1.6,0.6,3.2,1.2,4.8,1.8c9.7,4,18.4,9.9,25.7,17.2s13.2,16,17.2,25.7
		c0.6,1.6,1.2,3.1,1.8,4.8l0,0.1c0.8,2.3,1.4,4.6,2,6.9v0c0.1,0.5,0.2,0.9,0.3,1.4l0,0l0,0.2l0,0.2l0,0.1l0,0.1l0,0.2l0,0.2l0,0
		l0,0.2l0,0.2l0,0.1l0,0.2l0,0.2l0,0.1l0,0.1l0,0.2l0,0.2l0,0l0,0.2l0,0.2l0,0.1l0,0.1l0,0.2l0,0.2l0,0l0,0.2l0,0.2v0l0,0.2
		c0.3,1.9,0.6,3.8,0.7,5.8l0,0.2c0,0.5,0.1,0.9,0.1,1.4l0,0.2l0,0l0,0.2l0,0.2l0,0.1l0,0.1l0,0.2l0,0.2v0l0,0.2l0,0.2v0.1l0,0.1
		l0,0.2l0,0.2l0,0v0.2l0,0.2v0.1l0,0.1c0,0.9,0.1,1.9,0.1,2.9c0,1,0,1.9-0.1,2.9l0,0.1v0.1l0,0.2v0.2l0,0l0,0.2l0,0.2l0,0.1v0.1
		l0,0.2l0,0.2v0l0,0.2l0,0.2l0,0.1l0,0.1l0,0.2l0,0.2l0,0.2c-0.3,4.1-0.9,8.1-1.8,12l0,0.2l0,0.1l0,0.1l-0.1,0.2l-0.1,0.4l-0.1,0.2
		l0,0.1l0,0.1l-0.1,0.2l0,0l-0.1,0.3l0,0.1l-0.1,0.2l0,0.1l0,0.1l-0.1,0.2l0,0.1l0,0.1l-0.1,0.4l0,0l-0.1,0.4l0,0.1l-0.1,0.3l0,0.1
		l-0.1,0.2l-0.1,0.2l0,0l0,0.2c-0.2,0.7-0.4,1.4-0.6,2.1l0,0c-0.1,0.3-0.2,0.6-0.3,0.9l0,0.1c-0.5,1.6-1.2,3.2-1.8,4.8
		c-4,9.7-9.9,18.4-17.2,25.7s-16,13.2-25.7,17.2c-1.6,0.7-3.2,1.3-4.8,1.8l-0.1,0c-0.8,0.3-1.5,0.5-2.3,0.7h0
		c-0.4,0.1-0.9,0.3-1.3,0.4l0,0l-0.3,0.1l-0.1,0l-0.1,0l-0.2,0.1l-0.2,0.1l0,0l-0.2,0.1l-0.2,0.1l-0.1,0l-0.1,0l-0.2,0.1l-0.2,0l0,0
		l-0.2,0.1l-0.2,0.1h0l-0.2,0l-0.2,0l-0.2,0.1l-0.2,0l-0.2,0l-0.2,0c-4.5,1.1-9.2,1.8-14,2l-0.2,0h-0.1l-0.1,0l-1,0l-0.2,0h-0.2l0,0
		h-0.2l-0.2,0h0h-0.2l-0.2,0l-0.1,0h-0.1h-0.2h-0.2h0l-0.5,0h-0.1h-0.2h-0.2H107h-0.2h-0.1l-0.5,0h0H106h-0.2h-0.1l-0.1,0l-0.2,0
		h-0.2h0l-0.2,0h-0.2l-0.1,0h-0.2l-0.2,0l-0.1,0l-0.1,0H104l-0.4,0l-0.2,0l-0.1,0h-0.1l-0.2,0l-0.4,0l-0.2,0c-3.1-0.2-6.1-0.5-9-1.1
		l-0.2,0l-0.8-0.1l-0.2,0l-0.6-0.1l-0.2,0l-0.2,0l-0.2,0l-0.2,0l-0.2,0l-0.2,0l-0.2,0l0,0l-0.2,0l-0.2,0l-0.1,0l-0.1,0l-0.2,0
		l-0.1,0l-0.1,0l-0.4-0.1h0l-0.5-0.1l-0.1,0c-2.2-0.5-4.3-1.1-6.3-1.8l-0.1,0c-1.6-0.6-3.2-1.1-4.8-1.8c-9.7-4-18.4-9.9-25.7-17.2
		c-7.3-7.3-13.2-16-17.2-25.7c-0.7-1.6-1.3-3.2-1.8-4.8l0-0.1l-0.3-0.9l0,0l0,0l-0.1-0.2l-0.1-0.2l0-0.1l0-0.1l-0.1-0.2l0-0.1
		l-0.1-0.3l-0.1-0.2v0l-0.1-0.2l-0.1-0.2l0-0.1l0-0.1l-0.1-0.2l0-0.2l0,0l-0.1-0.2l-0.1-0.2l0,0l0-0.1l-0.1-0.2
		c-1.5-5.5-2.5-11.2-2.8-17.1l0-0.2v-0.1c0-0.4,0-0.8-0.1-1.1l0-0.2V111l0-0.1l0-0.2v-0.2l0,0v-0.2l0-0.2V110v-0.1v-0.2l0-0.2v0
		l0-0.5v-0.1v-0.2v-0.2l0,0v-0.2v-0.2V108l0-0.5v0l0-0.2V107V107v-0.1l0-0.2v-0.2l0,0v-0.2l0-0.2l0,0v-0.2l0-0.2v-0.1l0-0.1l0-0.2
		l0-0.4l0-0.2l0-0.1v-0.1l0-0.2l0-0.4l0-0.2l0-0.1l0-0.1c0-0.5,0.1-1.1,0.1-1.6l0-0.2c0.2-2.2,0.5-4.3,0.8-6.4l0-0.2l0-0.2l0,0
		l0-0.2l0-0.2l0-0.1l0-0.1l0-0.2l0.1-0.4l0-0.2l0-0.1l0-0.1l0-0.2l0-0.2l0-0.1l0-0.2l0-0.2v0l0-0.2l0.1-0.2l0-0.1l0-0.1l0-0.2l0-0.2
		v0l0-0.2l0-0.2l0-0.1l0-0.1l0.1-0.3l0-0.1l0.1-0.4v0l0.2-0.9l0,0c0.5-2,1.1-4,1.8-6l0-0.1c0.6-1.6,1.2-3.2,1.8-4.8
		C38,68.4,43.9,59.7,51.2,52.4L51.2,52.4z M59.6,126.6l-23.2,7.9c0.4,0.9,0.7,1.9,1.1,2.8c3.8,9.2,9.4,17.5,16.4,24.5
		c7,7,15.3,12.6,24.5,16.4c0.9,0.4,1.9,0.8,2.8,1.1l7.9-23.2c-0.5-0.2-0.9-0.3-1.3-0.5c-3.1-1.3-6-2.9-8.8-4.7
		c-2.7-1.8-5.3-3.9-7.6-6.3l-0.1-0.1c-2.4-2.4-4.5-4.9-6.4-7.8c-1.8-2.8-3.4-5.7-4.7-8.8C60,127.5,59.8,127.1,59.6,126.6L59.6,126.6
		z M36.4,82.5l23.2,7.9c0.2-0.5,0.3-0.9,0.5-1.3c1.3-3.1,2.9-6,4.7-8.8c1.9-2.8,4-5.4,6.4-7.7l0,0c2.4-2.4,5-4.5,7.7-6.4
		c2.8-1.9,5.7-3.4,8.8-4.7l0,0h0c0.4-0.2,0.9-0.4,1.3-0.5l-7.9-23.2c-1,0.4-1.9,0.7-2.8,1.1c-9.2,3.8-17.5,9.4-24.5,16.4
		c-7,7-12.6,15.3-16.4,24.5C37.1,80.5,36.8,81.5,36.4,82.5L36.4,82.5z M35.2,130.8l23.2-7.8c-0.2-0.5-0.3-1-0.4-1.5v0l-0.1-0.3l0,0
		l0-0.1l0-0.1l-0.1-0.3v0l0-0.1l0-0.1l0-0.1l0,0l0-0.1l0,0l0-0.1l0-0.1l0-0.1l0-0.1l0,0l0-0.1v0l0-0.1l0-0.1l0,0l0-0.1l0,0l0-0.1
		l0-0.1v0l0-0.1l0,0l0-0.1l0-0.1l0,0l0-0.1l0-0.1l0,0l0-0.1v0l0-0.1l0-0.2l-0.1-0.3l0,0l0-0.1l0-0.1v0c-0.4-2.1-0.7-4.3-0.8-6.5h0
		l0-0.3v-0.1v-0.1l0-0.1v0l0-0.1v0l0-0.1l0,0v-0.1v0v-0.1v-0.1l0-0.1l0-0.1v0v-0.1v0l0-0.1v0v-0.1l0,0v-0.1v-0.1v-0.1v-0.1v0l0-0.1
		v0v-0.1v0V109v-0.1v-0.1v-0.1v-0.1v-0.1v0v-0.1l0,0v-0.1v0v-0.1v-0.1v-0.1V108v-0.1v-0.1v0v-0.1v0l0-0.1v0v-0.1v-0.1v-0.1v-0.1l0,0
		V107v0l0-0.1v0v-0.1v0l0-0.1l0-0.1v-0.1v-0.1v0v-0.1l0,0l0-0.1v0l0-0.1v0l0-0.1v-0.1v-0.1l0-0.1v0l0-0.1l0,0l0-0.3l0-0.1l0-0.1V105
		l0-0.1l0-0.1v0l0-0.1l0,0l0-0.1v0l0-0.5v0l0-0.1l0,0l0-0.5l0-0.1c0-0.4,0.1-0.8,0.1-1.2l0,0c0-0.4,0.1-0.8,0.2-1.2v0l0-0.1l0,0
		l0-0.3l0,0l0-0.1l0-0.1l0-0.1l0-0.1v0l0-0.1l0,0l0-0.1l0-0.1l0,0l0-0.1l0,0l0-0.1l0-0.1v0l0-0.1l0,0l0-0.1l0-0.1l0,0l0-0.1l0-0.1
		l0-0.1l0-0.1v0l0-0.1l0-0.1l0,0l0-0.1l0,0l0-0.1l0-0.1v0l0-0.1l0,0l0-0.1l0-0.1v0l0-0.1l0,0l0-0.1l0-0.1l0,0l0-0.1l0,0l0,0l0-0.1v0
		l0-0.2l0-0.1l0,0l0-0.1l0-0.1v0l0.1-0.4l0,0l0,0l0-0.1l0,0c0.2-0.9,0.4-1.7,0.7-2.6l-23.2-7.8l0,0.2l-0.1,0.2l0,0l0,0.1l0,0.2
		l0,0.1v0l0,0.2l0,0.2l0,0.1l0,0l0,0.2l0,0.2l0,0.1l0,0l0,0.2l0,0.2l0,0.1l0,0.1l0,0.1L34.3,89v0l0,0.1c-1.3,4.9-2.1,10.1-2.4,15.4
		l0,0.1v0.1l0,0.4l0,0l0,0.5l0,0.1v0.2l0,0.2l0,0.4v0.1v0.1l0,0.2l0,0.1v0.1v0.2l0,0.2v0v0.2v0.2v0.1v0.1v0.2v0.2l0,0v0.2v0.2v0.1
		v0.1v0.2v0.2v0l0,0.2v0.2v0.1l0,0.1l0,0.2v0.1v0l0,0.4v0l0,0.2v0.2l0,0.1v0.1l0,0.2l0,0.2v0l0,0.2l0,0.2v0.1l0,0.1l0,0.2l0,0.2v0
		c0.2,3.4,0.6,6.8,1.2,10.1l0,0.1l0,0.1l0,0.2l0,0.2l0,0.1l0,0.1l0,0.2l0,0.2l0,0.1l0,0.1l0,0.2l0,0.2l0,0l0,0.1l0,0.2l0,0.1l0,0
		l0,0.2l0,0.2l0,0.1l0,0l0,0.2l0,0.2l0,0.1l0,0.1l0,0.2l0,0.2l0,0.1l0,0.1l0,0.2l0,0.2C34.3,127.9,34.7,129.4,35.2,130.8L35.2,130.8
		z M156.1,123l23.2,7.8c0.2-0.8,0.5-1.5,0.7-2.3l0-0.2l0-0.1l0-0.1l0-0.1l0.1-0.3l0-0.2l0-0.2l0,0l0-0.2l0-0.2l0-0.1v0l0-0.2l0-0.1
		l0-0.1l0-0.1l0-0.2l0-0.2l0-0.1l0-0.1l0-0.2l0-0.2l0-0.1l0-0.1l0-0.2l0-0.2v0l0-0.1l0.2-0.8l0,0c0.9-4,1.4-8.1,1.6-12.3l0-0.2v0
		c0-0.6,0-1.3,0.1-1.9v-0.1c0-0.5,0-0.9,0-1.4c0-1.1,0-2.2-0.1-3.3v0c-0.3-5.7-1.1-11.2-2.6-16.5l0-0.1l-0.2-0.6l0-0.2l0,0l0-0.1
		l0-0.2l0-0.2l0,0l-0.1-0.3l0-0.2l0,0l0-0.1l-0.1-0.2l0-0.1l0,0l-0.1-0.2l0-0.2l-23.2,7.8c0.4,1.5,0.8,3,1.1,4.6
		c0.6,2.8,0.9,5.6,1,8.5v0l0,0.8v0l0,0.6l0,0.6v0l0,0.8v0c-0.1,2.9-0.4,5.8-1,8.5C157,120,156.6,121.5,156.1,123L156.1,123z
		 M178.1,134.5l-23.2-7.9c-0.2,0.5-0.3,0.9-0.5,1.3c-1.3,3.1-2.9,6.1-4.7,8.8c-1.9,2.8-4,5.4-6.4,7.8c-2.3,2.3-4.9,4.5-7.7,6.4
		c-2.8,1.8-5.7,3.4-8.8,4.7c-0.4,0.2-0.9,0.4-1.3,0.5l7.8,23.2c1-0.3,1.9-0.7,2.9-1.1c9.2-3.8,17.5-9.4,24.5-16.4
		c7-7,12.6-15.3,16.4-24.5C177.4,136.4,177.7,135.4,178.1,134.5L178.1,134.5z M154.4,109.1v-0.6v-0.6v0v-0.1l0,0v-0.3l0,0v-0.1v-0.1
		l0,0v-0.1v0V107l0,0l0-0.1v0l0-0.1v0v-0.1l0-0.1v-0.1v-0.1v0l0-0.1l0-0.1v0l0-0.1V106v-0.1l0-0.1l0,0v-0.1v0l0-0.1l0,0v-0.1v0
		l0-0.1l0-0.1v-0.1l0-0.1l0,0v-0.1l0,0l0-0.1l0,0l0-0.1v0l0-0.1l0-0.1l0-0.1v0l0-0.4l0,0l0-0.1c-0.2-1.6-0.4-3.1-0.7-4.6
		c-0.2-0.9-0.4-1.7-0.6-2.5l0,0l-0.1-0.2l0-0.1l0-0.1l0,0l0-0.1v0l-0.1-0.6l0,0l-0.2-0.5v0l0-0.1v0l0-0.1l-0.1-0.5l0,0l0-0.1l0,0
		l0-0.1l0,0l-0.1-0.2l0-0.1l0,0l0-0.1l0,0l-0.1-0.2l0-0.1l0,0l0,0l0-0.1c-0.3-0.9-0.7-1.9-1.1-2.8c-1.2-2.9-2.7-5.6-4.4-8.1
		c-1.7-2.6-3.7-5-5.9-7.2l0,0c-2.2-2.2-4.6-4.2-7.2-5.9c-2.5-1.7-5.3-3.2-8.1-4.4l-0.1,0c-2.8-1.1-5.7-2-8.7-2.6
		c-2.1-0.4-4.3-0.7-6.5-0.8h0l-0.1,0l-0.2,0l0,0l-0.1,0l0,0h-0.1h-0.1h0l-0.1,0l-0.1,0H109h-0.1h0l-0.1,0l0,0l-0.1,0h0h-0.1h-0.1
		h-0.1h-0.1l0,0h-0.1h0H108l0,0h-0.1h0h-0.1h0l-0.1,0h-0.1h-0.1h-0.1h0h-0.1h-0.1h0H107H107h-0.1l-0.1,0h0h-0.1h0h-0.1l0,0h-0.1h0
		h-0.1l-0.1,0h-0.1h-0.1H106h-0.1h0l-0.1,0l0,0l-0.1,0h0h-0.1h0l-0.6,0l0,0l-0.2,0l-0.1,0h0l-0.1,0h0l-0.1,0h0
		c-2.1,0.1-4.2,0.4-6.3,0.8c-2,0.4-4,0.9-5.9,1.6l0,0c-1,0.3-1.9,0.7-2.9,1.1l0,0c-2.9,1.2-5.6,2.7-8.1,4.4c-2.6,1.7-5,3.7-7.2,5.9
		h0c-2.2,2.2-4.2,4.6-5.9,7.2c-1.7,2.5-3.2,5.3-4.3,8.1c-1.2,2.8-2.1,5.8-2.7,8.8c-0.4,2.2-0.7,4.5-0.8,6.9l0,0l0,0.7v0l0,0.2v0v0.1
		l0,0.1v0.1v0.1l0,0v0.1v0v0.1l0,0v0.1v0v0.1v0l0,0.1v0.1v0v0.1v0v0.1l0,0v0.1v0v0.1v0v0.1l0,0.1v0.1v0.1v0v0.1v0.1v0v0.1l0,0.1v0.1
		v0.1l0,0v0.1v0v0.1l0,0l0,0.1v0v0.1v0.1l0,0.1v0.1v0.1l0,0.1l0,0.2l0,0v0.1l0,0l0,0.2l0,0.1v0c0.1,2.2,0.4,4.4,0.8,6.5
		c0.6,3.1,1.5,6,2.7,8.8c1.2,2.9,2.6,5.6,4.3,8.1c1.7,2.6,3.7,5,5.9,7.2l0.1,0.1c2.2,2.2,4.5,4.1,7.1,5.8c2.5,1.7,5.3,3.2,8.1,4.3
		c0.9,0.4,1.9,0.8,2.9,1.1l0,0l0,0l0.4,0.1l0,0c1.8,0.6,3.6,1.1,5.5,1.4c2.1,0.4,4.1,0.7,6.3,0.8l0,0l0.6,0h0l0.1,0l0,0h0.2l0.1,0
		l0.2,0l0.1,0h0l0.1,0l0,0h0.1h0h0.1h0.1l0.1,0h0.1h0.1h0.1h0h0.1l0.1,0h0h0.1h0h0.1h0.1h0.1l0.1,0h0h0.1h0.1h0l0.1,0h0.1h0.1h0.1h0
		h0.1h0l0.1,0l0,0h0.1h0h0.1h0h0.1l0.1,0h0.1h0.1h0h0.1l0.1,0h0l0.1,0h0.1h0.1l0.1,0h0l0.1,0h0.2l0,0l0.1,0h0l0.2,0l0.1,0h0h0.1h0
		l0.1,0h0c2.1-0.1,4.2-0.4,6.3-0.8c1.8-0.4,3.6-0.8,5.3-1.4l0,0l0.1,0h0l0.3-0.1l0.1,0c1-0.3,2-0.7,3-1.1c2.9-1.2,5.6-2.6,8.1-4.3
		c2.6-1.7,5-3.7,7.2-5.9c2.2-2.2,4.2-4.6,5.9-7.2c1.7-2.5,3.2-5.3,4.4-8.1c0.4-0.9,0.7-1.9,1.1-2.9h0l0-0.1l0,0l0-0.1l0-0.1l0-0.1
		l0-0.1l0,0l0-0.1v0l0-0.1l0,0l0-0.1l0,0l0-0.1l0-0.1l0-0.1l0-0.1v0l0-0.1v0l0.1-0.2l0,0l0-0.1l0-0.1l0-0.1l0,0l0-0.1v0l0-0.1l0,0
		l0-0.1l0,0l0-0.1l0-0.1l0,0l0-0.1l0,0l0-0.1l0,0l0-0.1l0,0l0-0.1l0,0l0-0.1l0-0.1l0,0l0-0.1l0,0l0-0.1v0l0-0.1l0,0l0-0.1l0-0.1
		l0-0.1l0-0.1l0,0l0-0.1v0l0-0.1v0l0-0.1l0,0l0-0.1l0-0.1l0-0.1l0-0.1l0,0l0-0.1v0l0-0.1v0l0-0.1l0,0l0-0.1l0-0.1l0,0l0-0.1l0,0
		l0-0.1l0,0l0-0.1l0,0l0-0.1l0-0.1l0-0.1l0-0.1l0,0l0-0.1l0,0l0-0.1v0l0-0.1l0,0l0-0.1l0,0l0-0.1l0-0.1l0,0l0-0.1v0l0-0.1l0,0l0-0.1
		l0,0l0-0.1l0,0l0-0.1l0-0.1l0-0.1l0-0.1l0,0l0-0.1l0,0l0-0.1v0l0-0.2v-0.1l0-0.1l0-0.1l0,0l0-0.1l0,0l0-0.3l0-0.1l0-0.1l0-0.1l0,0
		l0-0.1v0l0.1-0.6v0l0-0.1l0,0l0-0.1v0l0-0.1v-0.1l0-0.1l0-0.1l0,0l0-0.1v0l0-0.1v0l0-0.1l0-0.1l0-0.1v-0.1l0-0.1l0,0l0-0.1v0l0-0.1
		v0l0-0.1v0l0-0.1l0-0.1l0-0.1l0-0.1v0l0-0.1v0l0-0.1l0,0v-0.1l0,0l0-0.1v-0.1l0-0.1l0-0.1v0v-0.1v0l0-0.1v0v-0.1l0,0l0-0.1V111
		v-0.1l0-0.1v0l0-0.1v0l0-0.1v0v-0.1v0l0-0.1v-0.1l0-0.4v0v-0.1l0,0v-0.1v-0.1l0-0.1V109.1L154.4,109.1L154.4,109.1z M154.9,90.3
		l23.2-7.8c-0.4-1-0.7-1.9-1.1-2.9c-3.8-9.2-9.4-17.5-16.4-24.5c-7-7-15.3-12.6-24.5-16.4c-0.9-0.4-1.9-0.8-2.9-1.1l-7.8,23.2
		c0.4,0.2,0.8,0.3,1.2,0.5l0.1,0c3.1,1.3,6,2.9,8.8,4.7c2.8,1.9,5.4,4,7.7,6.3l0,0h0c2.4,2.4,4.5,5,6.4,7.7c1.8,2.8,3.4,5.7,4.7,8.8
		C154.6,89.4,154.7,89.9,154.9,90.3L154.9,90.3z M129.6,180.5l-7.9-23.2c-1.5,0.5-3,0.8-4.6,1.1c-2.4,0.5-4.8,0.8-7.3,0.9l-0.1,0h0
		l-0.1,0h0h-0.1h0l-0.1,0l0,0h-0.1h-0.1l-0.1,0H109h0l-0.1,0h0h-0.1h0l-0.1,0h0h-0.1h-0.1l-0.1,0h-0.1h0l-0.1,0h0h-0.1h0h-0.1h0
		h-0.1h-0.1h-0.1h-0.1h0h-0.1h-0.1h0H107h-0.1h-0.1h-0.1h0h-0.1h0h-0.1h0l-0.1,0h0h-0.1l-0.1,0h-0.1H106h0l-0.1,0h0h-0.1h0l-0.1,0h0
		h-0.1l-0.1,0h-0.1h-0.1l0,0l-0.1,0l0,0h-0.1h0l-0.1,0h0l-0.1,0l-0.1,0h-0.1l-0.5,0l-0.1,0h-0.1c-2.2-0.2-4.4-0.4-6.6-0.9
		c-1.3-0.3-2.6-0.6-3.8-0.9h0l-0.4-0.1l-0.1,0l0,0l-0.1,0l0,0l-0.1,0l-0.1,0h0l-7.9,23.2l0.1,0.1l0.2,0l0,0l0.1,0l0.2,0l0.2,0.1h0
		l0.2,0l0.2,0.1l0.1,0h0l0.2,0.1l0.2,0l0.1,0l0.4,0.1l0.1,0l0.1,0l0.2,0l0.2,0.1l0.1,0c5.3,1.4,10.8,2.3,16.4,2.5h0l0.2,0l0.3,0h0.1
		l0.2,0l0.2,0l0.4,0h0.1h0.1h0.2l0.1,0h0.1l0.2,0h0.2h0h0.2h0.2h0.1h0.1l0.2,0h0.2h0.2l0.2,0h0.1h0.1h0.2h0.2h0h0.2l0.2,0h0.1l0.1,0
		h0.2h0.1h0.1l0.4,0l0.2,0l0.2,0h0.1l0.3,0l0.2,0h0l0.2,0l0.8,0h0c3.9-0.2,7.7-0.7,11.4-1.5l0.2,0l0,0l0.8-0.2l0.1,0l0,0l0.2,0
		l0.2,0l0.8-0.2l0.1,0l0,0l0.1,0l0.2,0l0.2,0h0l0.1,0l0.1,0l0.2,0v0l0.2,0l0.2,0l0.1,0l0,0l0.2,0l0.5-0.1l0.2,0l0.1,0l0.1,0l0.2,0
		l0.3-0.1l0.2,0c0.4-0.1,0.8-0.2,1.2-0.4L129.6,180.5L129.6,180.5z M121.8,59.6l7.9-23.2l-0.2,0c-0.4-0.1-0.8-0.3-1.2-0.4l-0.2,0
		l-0.3-0.1l-0.2,0l-0.1,0l-0.1,0l-0.2,0l-0.5-0.1l-0.2,0l0,0l-0.1,0l-0.2,0l-0.2,0l0,0l-0.2,0l-0.1,0l-0.1,0l0,0l-0.2,0l-0.2,0
		l-0.1,0l0,0l-0.1,0l-0.8-0.2l-0.2,0l-0.2,0l0,0l-0.1,0l-0.8-0.2l0,0l-0.2,0c-3.7-0.8-7.5-1.3-11.4-1.5h0l-0.8,0l-0.2,0h0l-0.2,0
		l-0.3,0l-0.1,0l-0.2,0l-0.2,0l-0.4,0h-0.1H109h-0.2l-0.1,0h-0.1h-0.2l-0.2,0h0H108l-0.2,0h-0.1h-0.1h-0.2h-0.2h-0.2h-0.2h-0.1h-0.1
		l-0.2,0h-0.2h0l-0.2,0h-0.2h-0.1l-0.1,0h-0.2h-0.1h-0.1l-0.4,0l-0.2,0l-0.2,0l-0.1,0l-0.3,0l-0.2,0h0c-5.1,0.2-10,0.9-14.7,2.1
		l-0.1,0l-0.6,0.2l-0.2,0h0L88,35.5l-0.1,0l0,0l-0.2,0l-0.2,0.1l-0.1,0l-0.1,0l-0.1,0l-0.2,0l-0.1,0l-0.1,0l-0.2,0l-0.2,0l-0.1,0
		l-0.1,0l-0.2,0l-0.2,0l0,0l-0.1,0l-0.2,0.1l-0.2,0h0l-0.2,0.1l-0.2,0l-0.1,0l0,0l-0.2,0l-0.1,0l7.9,23.2h0l0.1,0l0.1,0h0l0.1,0l0,0
		l0.1,0l0.1,0h0l0.1,0l0,0l0.1,0l0.1,0l0,0l0.1,0l0.3-0.1l0.1,0h0l0.3-0.1h0l0.1,0l0,0l0.1,0l0.1,0l0,0c0.9-0.2,1.8-0.4,2.8-0.6
		c2.1-0.4,4.3-0.7,6.5-0.9l0.1,0l0.6,0h0.1h0.1l0.1,0l0,0h0.1h0l0.1,0h0l0.1,0h0l0.1,0h0.1h0.1l0.1,0h0h0.1h0l0.1,0h0h0.1l0,0h0.1
		h0.1h0.1h0.1h0l0.1,0h0h0.1h0l0.1,0h0h0.1h0.1h0.1h0.1h0h0.1h0.1h0h0.1h0.1h0.1h0.1h0l0.1,0h0h0.1h0l0.1,0h0h0.1h0.1h0.1h0.1l0,0
		h0.1h0l0.1,0h0h0.1h0l0.1,0h0.1h0.1l0.1,0h0l0.1,0h0l0.1,0h0h0.1l0,0l0.1,0l0.4,0l0,0c2.4,0.1,4.7,0.4,6.9,0.9
		c1.3,0.3,2.6,0.6,3.9,0.9h0l0.1,0l0.1,0l0,0L121.8,59.6L121.8,59.6L121.8,59.6L121.8,59.6L121.8,59.6z M125.2,64.8l-1.1-1.3
		C124.3,64.1,124.6,64.6,125.2,64.8z"/>
</g>
</svg>
