<?xml version="1.0" encoding="utf-8"?>
<!-- Generator: Adobe Illustrator 23.0.4, SVG Export Plug-In . SVG Version: 6.00 Build 0)  -->
<svg version="1.1" id="Layer_1" xmlns="http://www.w3.org/2000/svg" xmlns:xlink="http://www.w3.org/1999/xlink" x="0px" y="0px"
	 viewBox="0 0 216 216" style="enable-background:new 0 0 216 216;" xml:space="preserve">
<style type="text/css">
	.st0{fill-rule:evenodd;clip-rule:evenodd;fill:#1D1933;}
</style>
<path class="st0" d="M189.4,106.3l3.8-8.5l-27.2,0c-1.6,0-3.1,0.5-4.4,1.3c-1.2,0.8-2.2,1.9-2.8,3.3l-1.7,3.9H189.4L189.4,106.3z
	 M153.8,110l2.6,5.8c0.9,2,2.3,3.6,4,4.8c1.6,1.1,3.6,1.7,5.7,1.7l2.6,0c-3.2,16.3-11.9,30.5-24.1,40.9c-12.5,10.6-28.7,17-46.4,17
	c-19.8,0-37.8-8-50.8-21c-13-13-21-31-21-50.8c0-19.8,8.1-37.8,21-50.8c13-13,31-21,50.8-21c17.7,0,33.9,6.4,46.4,17
	c12.2,10.3,20.9,24.6,24.1,40.9H166c-2.1,0-4,0.6-5.7,1.7c-1.7,1.1-3.1,2.7-4,4.7l-2.6,5.7h-9.2c0.2-0.3,0.3-0.6,0.2-1
	c-0.7-12.3-6.2-23.3-14.6-31.2c-8.4-7.9-19.7-12.7-32.1-12.7c-12.9,0-24.6,5.2-33.1,13.7c-8.5,8.5-13.7,20.2-13.7,33.1
	c0,12.9,5.2,24.6,13.7,33.1c8.5,8.5,20.2,13.7,33.1,13.7c12.4,0,23.7-4.8,32-12.7c8.4-7.9,13.9-19,14.7-31.2c0-0.4-0.1-0.7-0.2-1
	H153.8L153.8,110z M141.4,110l-23.2,0c0.2,0.3,0.3,0.7,0.2,1.2c-0.7,5-3.3,9.4-6.9,12.5c-3.6,3.1-8.3,5-13.4,5
	c-5.7,0-10.8-2.3-14.5-6v0c-3.7-3.7-6-8.8-6-14.5c0-5.7,2.3-10.8,6-14.5c3.7-3.7,8.8-6,14.5-6c5.1,0,9.8,1.9,13.4,5
	c3.6,3.1,6.2,7.5,6.9,12.5c0.1,0.4,0,0.8-0.2,1.2l23.2,0c-0.1-0.2-0.2-0.5-0.2-0.8c-0.7-11.3-5.7-21.5-13.5-28.8
	c-7.7-7.3-18.1-11.7-29.5-11.7c-11.9,0-22.7,4.8-30.5,12.6c-7.8,7.8-12.6,18.6-12.6,30.5c0,11.9,4.8,22.7,12.6,30.5
	c7.8,7.8,18.6,12.6,30.5,12.6c11.4,0,21.8-4.4,29.5-11.7c7.8-7.3,12.8-17.5,13.5-28.8C141.2,110.5,141.3,110.2,141.4,110L141.4,110z
	 M115,110l-18,0c-1,0-1.8-0.8-1.8-1.8c0-1,0.8-1.8,1.8-1.8l18,0c-0.1-0.2-0.2-0.4-0.2-0.6c-0.6-4.1-2.7-7.7-5.7-10.3
	c-2.9-2.5-6.8-4.1-11-4.1c-4.7,0-8.9,1.9-11.9,4.9c-3,3-4.9,7.2-4.9,11.9c0,4.6,1.9,8.8,4.9,11.9v0l0,0c3,3,7.2,4.9,11.9,4.9
	c4.2,0,8-1.5,11-4.1c3-2.6,5.1-6.2,5.7-10.3C114.8,110.4,114.9,110.2,115,110L115,110z M191.9,108.1l5,11.2c0.4,0.9,0.2,2-0.5,2.5
	c-0.3,0.2-0.5,0.3-0.8,0.2l-23.2,0c-3.3,17.4-12.5,32.7-25.5,43.7c-13.2,11.1-30.2,17.9-48.8,17.9c-20.8,0-39.7-8.5-53.4-22.1
	c-13.7-13.7-22.1-32.6-22.1-53.4c0-20.9,8.5-39.8,22.1-53.4c13.7-13.7,32.6-22.1,53.4-22.1c18.6,0,35.6,6.7,48.8,17.9
	c13,11,22.2,26.3,25.5,43.7l23.2,0c0.3,0,0.5,0.1,0.8,0.2c0.7,0.5,0.9,1.6,0.5,2.5L191.9,108.1L191.9,108.1z M166.1,118.5l27.1-0.1
	l-3.8-8.4l-32.3,0l1.7,3.9c0.6,1.4,1.6,2.5,2.8,3.3C162.9,118,164.4,118.5,166.1,118.5z"/>
</svg>
