<?xml version="1.0" encoding="utf-8"?>
<!-- Generator: Adobe Illustrator 23.0.4, SVG Export Plug-In . SVG Version: 6.00 Build 0)  -->
<svg version="1.1" id="Layer_1" xmlns="http://www.w3.org/2000/svg" xmlns:xlink="http://www.w3.org/1999/xlink" x="0px" y="0px"
	 viewBox="0 0 216 216" style="enable-background:new 0 0 216 216;" xml:space="preserve">
<style type="text/css">
	.st0{fill-rule:evenodd;clip-rule:evenodd;fill:#1D1933;}
</style>
<g>
	<path class="st0" d="M168.2,157.5h-10.6h-98H48.9v13.4h119.3V157.5L168.2,157.5z M154.6,151.7l-3.5-12.5H65.9L61.8,154h93.5
		L154.6,151.7L154.6,151.7z M150.2,135.8l-6.5-23.4H73.4l-6.5,23.4H150.2L150.2,135.8z M154.2,137l3.6,13l1.1,3.9h11.1
		c1,0,1.7,0.8,1.7,1.7v16.8c0,1-0.8,1.7-1.7,1.7H47.2c-1,0-1.7-0.8-1.7-1.7v-16.8c0-1,0.8-1.7,1.7-1.7h11.1l4.7-16.8v0
		c0-0.1,0-0.2,0.1-0.3l12.8-45.9c0-0.1,0-0.2,0.1-0.3L87,50.7l0-0.1v0l0-0.1l0,0l0-0.1l0,0l0-0.1l0,0l0-0.1l0,0l0-0.1l0,0l0-0.1l0,0
		l0-0.1l0,0l0.1-0.3l0,0l0-0.1l0,0l0-0.1h0l0-0.1l0,0l0-0.1l0,0l0.1-0.2l0,0l0-0.1l0.1-0.3l0,0l0.1-0.1l0,0l0-0.1l0,0l0.1-0.2l0,0
		l0.1-0.1l0.1-0.1l0,0l0.1-0.2l0,0l0.1-0.1l0,0l0.1-0.1l0,0l0.1-0.2l0.1-0.1l0,0l0.1-0.1l0,0l0.1-0.1l0,0l0.1-0.1l0,0l0.1-0.1
		l0.1-0.1l0.1-0.1l0.1-0.1l0,0l0.1-0.1l0.1-0.1l0.1-0.2l0.1-0.1l0.1-0.1l0,0l0.1-0.1l0.1-0.1l0.1-0.1l0.1-0.1l0.1-0.1l0.1-0.1
		l0.1-0.1l0.1-0.1l0.1-0.1v0l0.1-0.1l0.1-0.1l0.1-0.1l0.1-0.1l0.1-0.1l0.1-0.1l0.1-0.1c1.8-1.3,3.9-2.1,6.3-2.1v0h23v0
		c2.4,0,4.5,0.8,6.3,2.1c1.8,1.3,3.1,3.2,3.7,5.5l3.7,13.2l0,0c0,0.1,0.1,0.2,0.1,0.3l12.8,45.9c0,0.1,0.1,0.2,0.1,0.3L154.2,137
		L154.2,137L154.2,137z M142.5,108.2l-4.2-15.1H78.8l-4.4,15.7h68.3L142.5,108.2L142.5,108.2z M137.3,89.7l-6.5-23.4H86.3l-6.5,23.4
		H137.3L137.3,89.7z M130.8,66.2l-4.1-14.6c-0.4-1.5-1.3-2.8-2.5-3.7c-1.2-0.9-2.6-1.4-4.2-1.4v0h-23v0c-1.6,0-3.1,0.5-4.2,1.4
		l-0.1,0l-0.1,0l0,0l-0.1,0l-0.1,0l-0.1,0l0,0l-0.1,0l0,0l0,0l-0.1,0l0,0.1l0,0l0,0l0,0l-0.1,0l0,0.1l0,0.1l0,0l0,0l0,0.1l0,0l0,0.1
		l0,0.1l0,0.1l0,0.1l0,0l0,0.1l0,0.1l0,0l0,0.1l0,0l0,0.1l0,0l0,0.1l0,0l0,0.1l0,0.1l0,0l0,0.1l0,0.1l0,0l0,0.1l0,0l0,0.1l0,0l0,0.1
		l0,0l0,0.1l0,0.1l0,0.1l0,0l0,0.1l0,0l0,0.1l0,0l0,0.1l0,0l0,0.1l0,0l0,0.1l0,0l0,0.1l0,0l0,0.1l0,0l0,0.1l0,0l0,0.1l0,0l0,0.1l0,0
		l0,0.1l0,0l0,0.1v0l0,0.1l0,0l0,0.1l0,0l0,0.1l0,0l0,0.1l0,0l0,0.1l0,0l0,0.1l0,0l0,0.1l0,0l0,0.1l0,0l0,0.1l0,0l0,0.1l0,0l0,0.1
		l0,0l-3.1,11.1h42.6L130.8,66.2z"/>
</g>
</svg>
