<?xml version="1.0" encoding="utf-8"?>
<!-- Generator: Adobe Illustrator 23.0.4, SVG Export Plug-In . SVG Version: 6.00 Build 0)  -->
<svg version="1.1" id="Layer_1" xmlns="http://www.w3.org/2000/svg" xmlns:xlink="http://www.w3.org/1999/xlink" x="0px" y="0px"
	 viewBox="0 0 216 216" style="enable-background:new 0 0 216 216;" xml:space="preserve">
<style type="text/css">
	.st0{fill-rule:evenodd;clip-rule:evenodd;fill:#1D1933;}
</style>
<path class="st0" d="M108,56.7c13,0,24.9,5.3,33.4,13.8c8.5,8.6,13.8,20.4,13.8,33.4c0,7.3-1.7,14.3-4.7,20.5
	c-3,6.2-7.3,11.6-12.5,16v12.8c0,2.7-1.1,5.1-2.9,6.9c-0.9,0.9-2,1.7-3.3,2.2v16.2c0,2.7-1.1,5.1-2.9,6.9c-1.8,1.8-4.2,2.9-6.9,2.9
	h-3.7v6.2c0,0.9-0.7,1.6-1.6,1.6H99.2c-0.9,0-1.6-0.7-1.6-1.6v-6.2h-3.8c-2.7,0-5.1-1.1-6.9-2.9v0h0l0,0c-1.8-1.8-2.9-4.2-2.9-6.9
	v-4.3v-11.9c-1.2-0.5-2.3-1.2-3.3-2.2v0h0l0,0c-1.8-1.8-2.8-4.2-2.8-6.9v-12.8c-5.3-4.3-9.6-9.8-12.5-16c-3-6.2-4.7-13.1-4.7-20.5
	c0-13,5.3-24.9,13.8-33.4C83.1,62,94.9,56.7,108,56.7L108,56.7z M64.2,57.8L50.8,44.4c-0.6-0.6-1.7-0.6-2.3,0
	c-0.6,0.6-0.6,1.7,0,2.3l13.4,13.4c0.6,0.6,1.7,0.6,2.3,0C64.8,59.5,64.8,58.5,64.2,57.8L64.2,57.8z M154.1,60.1l13.4-13.4
	c0.6-0.6,0.6-1.7,0-2.3c-0.6-0.6-1.7-0.6-2.3,0l-13.4,13.4c-0.6,0.6-0.6,1.7,0,2.3C152.5,60.8,153.5,60.8,154.1,60.1L154.1,60.1z
	 M44.4,102.3c0.9,0,1.6,0.7,1.6,1.6c0,0.9-0.7,1.6-1.6,1.6h-19c-0.9,0-1.6-0.7-1.6-1.6c0-0.9,0.7-1.6,1.6-1.6H44.4L44.4,102.3z
	 M171.6,105.6c-0.9,0-1.6-0.7-1.6-1.6c0-0.9,0.7-1.6,1.6-1.6h19c0.9,0,1.6,0.7,1.6,1.6c0,0.9-0.7,1.6-1.6,1.6H171.6L171.6,105.6z
	 M109.6,40.4c0,0.9-0.7,1.6-1.6,1.6c-0.9,0-1.6-0.7-1.6-1.6v-19c0-0.9,0.7-1.6,1.6-1.6c0.9,0,1.6,0.7,1.6,1.6V40.4L109.6,40.4z
	 M87.3,172.6h41.3V163h-0.4h-6H93.7h-6h-0.4V172.6L87.3,172.6z M128.7,175.9H87.3v2.7c0,1.8,0.7,3.4,1.9,4.6l0,0
	c1.2,1.2,2.8,1.9,4.6,1.9h5.4h17.5h5.4c1.8,0,3.4-0.7,4.6-1.9c1.2-1.2,1.9-2.8,1.9-4.6V175.9L128.7,175.9z M120.7,122.2L120.7,122.2
	v-8.6h-11v8.5c0,0.9-0.7,1.6-1.6,1.6c-0.9,0-1.6-0.7-1.6-1.6v-8.5h-11v8.5l0,0.1v37.6h25.3V122.2L120.7,122.2z M120.7,110.4v-8.5
	c0-0.9,0.7-1.6,1.6-1.6c0.9,0,1.6,0.7,1.6,1.6v10l0,0.1v47.8h4.4c1.8,0,3.4-0.7,4.6-1.9c1.2-1.2,1.9-2.8,1.9-4.6v-13.6l0,0
	c0-0.5,0.2-1,0.6-1.3c5.1-4.1,9.4-9.3,12.2-15.3c2.8-5.8,4.3-12.2,4.3-19.1c0-12.1-4.9-23.2-12.9-31.1c-8-8-19-12.9-31.1-12.9
	c-12.2,0-23.2,4.9-31.1,12.9c-8,8-12.9,19-12.9,31.1c0,6.8,1.6,13.3,4.3,19.1c2.9,6,7.1,11.2,12.2,15.3c0.4,0.3,0.7,0.8,0.7,1.3
	v13.6c0,1.8,0.7,3.4,1.9,4.6l0,0c1.2,1.2,2.8,1.9,4.6,1.9h4.4V112v-0.1v-10c0-0.9,0.7-1.6,1.6-1.6c0.9,0,1.6,0.7,1.6,1.6v8.5h11
	v-8.5c0-0.9,0.7-1.6,1.6-1.6c0.9,0,1.6,0.7,1.6,1.6v8.5H120.7L120.7,110.4z M115.1,188.3h-14.3v4.5h14.3V188.3z"/>
</svg>
