<?xml version="1.0" encoding="utf-8"?>
<!-- Generator: Adobe Illustrator 23.0.4, SVG Export Plug-In . SVG Version: 6.00 Build 0)  -->
<svg version="1.1" id="Layer_1" xmlns="http://www.w3.org/2000/svg" xmlns:xlink="http://www.w3.org/1999/xlink" x="0px" y="0px"
	 viewBox="0 0 216 216" style="enable-background:new 0 0 216 216;" xml:space="preserve">
<style type="text/css">
	.st0{fill-rule:evenodd;clip-rule:evenodd;fill:#1D1933;}
</style>
<g>
	<path class="st0" d="M173.5,164.9H84.1v16.2c0,0.9-0.7,1.7-1.7,1.7c-0.4,0-0.8-0.1-1-0.4l-48.2-32.4c-0.8-0.5-1-1.6-0.5-2.3
		c0.1-0.2,0.3-0.3,0.5-0.5l48.3-32.5c0.8-0.5,1.8-0.3,2.3,0.5c0.2,0.3,0.3,0.6,0.3,0.9l0,0v16.1h89.5c2.8,0,5.3,1.1,7.1,2.9l0,0
		c1.8,1.8,2.9,4.3,2.9,7.1v12.8c0,2.8-1.1,5.3-2.9,7.1C178.8,163.8,176.3,164.9,173.5,164.9L173.5,164.9z M82.4,161.6h91.1
		c1.8,0,3.5-0.8,4.7-2c1.2-1.2,2-2.9,2-4.7v-12.8c0-1.8-0.7-3.5-2-4.7h0c-1.2-1.2-2.9-2-4.7-2H82.4c-0.9,0-1.7-0.7-1.7-1.7v-14.6
		l-43.7,29.4l43.7,29.4v-14.7C80.7,162.3,81.5,161.6,82.4,161.6z"/>
	<path class="st0" d="M173.5,84.7H84.1v16.2c0,0.9-0.7,1.7-1.7,1.7c-0.4,0-0.8-0.1-1-0.4L33.2,69.7c-0.8-0.5-1-1.6-0.5-2.3
		c0.1-0.2,0.3-0.3,0.5-0.5l48.3-32.5c0.8-0.5,1.8-0.3,2.3,0.5c0.2,0.3,0.3,0.6,0.3,0.9l0,0v16.1h89.5c2.8,0,5.3,1.1,7.1,2.9l0,0
		c1.8,1.8,2.9,4.3,2.9,7.1v12.8c0,2.8-1.1,5.3-2.9,7.1C178.8,83.6,176.3,84.7,173.5,84.7L173.5,84.7z M82.4,81.4h91.1
		c1.8,0,3.5-0.8,4.7-2c1.2-1.2,2-2.9,2-4.7V61.9c0-1.8-0.7-3.5-2-4.7h0c-1.2-1.2-2.9-2-4.7-2H82.4c-0.9,0-1.7-0.7-1.7-1.7V38.9
		L37.1,68.3l43.7,29.4V83C80.7,82.1,81.5,81.4,82.4,81.4z"/>
</g>
</svg>
