<?xml version="1.0" encoding="utf-8"?>
<!-- Generator: Adobe Illustrator 23.0.4, SVG Export Plug-In . SVG Version: 6.00 Build 0)  -->
<svg version="1.1" id="Layer_1" xmlns="http://www.w3.org/2000/svg" xmlns:xlink="http://www.w3.org/1999/xlink" x="0px" y="0px"
	 viewBox="0 0 216 216" style="enable-background:new 0 0 216 216;" xml:space="preserve">
<style type="text/css">
	.st0{fill-rule:evenodd;clip-rule:evenodd;fill:#1D1933;}
</style>
<path class="st0" d="M177.5,126.9c-0.3,9.8-4.4,18.8-10.8,25.2c-6.3,6.3-14.9,10.2-24.6,10.1l-44-0.4v18.8c0,1.1-0.9,2-2,2
	c-0.5,0-0.9-0.2-1.2-0.4l-56.4-37.9c-0.9-0.6-1.1-1.8-0.5-2.7c0.1-0.2,0.3-0.4,0.5-0.5l56.5-38c0.9-0.6,2.1-0.4,2.7,0.5
	c0.2,0.3,0.3,0.7,0.3,1.1h0v18.9H132c7.1,0,17.5-2.2,26.5-5.9c7.3-3,13.5-6.9,16-11.3c0.5-0.9,1.7-1.3,2.7-0.7c0.7,0.4,1,1.1,1,1.9
	L177.5,126.9L177.5,126.9z M38.5,89.1l-0.7,19.4c-0.1,0.7,0.3,1.5,1,1.9c0.9,0.5,2.1,0.2,2.7-0.7c2.5-4.4,8.8-8.3,16.1-11.3
	c9-3.7,19.4-5.9,26.5-5.9h33.9v18.9h0c0,0.4,0.1,0.7,0.3,1.1c0.6,0.9,1.8,1.1,2.7,0.5l56.5-38c0.2-0.1,0.4-0.3,0.5-0.5
	c0.6-0.9,0.4-2.1-0.5-2.7l-56.4-38c-0.3-0.3-0.8-0.4-1.2-0.4c-1.1,0-2,0.9-2,2v18.8l-44-0.4c-9.7-0.1-18.3,3.8-24.6,10.1
	C42.9,70.3,38.9,79.3,38.5,89.1L38.5,89.1z M52.1,66.6c-5.8,5.8-9.4,13.8-9.7,22.6l-0.5,13.9c3.6-3.2,8.6-6.1,14.1-8.3
	c9.4-3.9,20.4-6.2,28-6.2h35.9c1.1,0,2,0.9,2,2v17.2l51-34.4l-51-34.4v17.1h0v0c0,1.1-0.9,1.9-2,1.9l-45.9-0.4
	C65.4,57.6,57.7,61,52.1,66.6L52.1,66.6z M163.9,149.4c5.8-5.8,9.4-13.8,9.7-22.6l0.5-13.9c-3.6,3.2-8.6,6.1-14.1,8.3
	c-9.4,3.9-20.4,6.2-28,6.2H96.2c-1.1,0-2-0.9-2-2v-17.2l-51.1,34.4L94.2,177v-17.1l0,0v0c0-1.1,0.9-1.9,2-1.9l45.9,0.4
	C150.7,158.4,158.3,155,163.9,149.4z"/>
</svg>
