<?xml version="1.0" encoding="utf-8"?>
<!-- Generator: Adobe Illustrator 23.0.4, SVG Export Plug-In . SVG Version: 6.00 Build 0)  -->
<svg version="1.1" id="Layer_1" xmlns="http://www.w3.org/2000/svg" xmlns:xlink="http://www.w3.org/1999/xlink" x="0px" y="0px"
	 viewBox="0 0 216 216" style="enable-background:new 0 0 216 216;" xml:space="preserve">
<style type="text/css">
	.st0{fill-rule:evenodd;clip-rule:evenodd;fill:#1D1933;}
</style>
<path class="st0" d="M182.5,87h-52.4c-0.7,0-1.3,0.3-1.7,0.7l0,0l0,0c-0.4,0.4-0.7,1-0.7,1.7v5h46.5h10.6v-5c0-0.7-0.3-1.2-0.7-1.7
	l-0.1-0.1C183.7,87.3,183.1,87,182.5,87L182.5,87z M175.8,97.6v17.5h6.7c0.6,0,1.2-0.3,1.7-0.7v0c0.4-0.4,0.7-1,0.7-1.7V97.6H175.8
	L175.8,97.6z M174.3,118.2L174.3,118.2L174.3,118.2h-36.9c-0.7,0-1.4-0.1-2.1-0.4c-0.6-0.3-1.2-0.6-1.7-1.1l-0.1-0.1l-7.3-7.3h0h0
	c-0.5-0.5-0.9-1.1-1.2-1.8c-0.3-0.7-0.4-1.4-0.4-2.1V96v0v0v-6.5c0-1.5,0.6-2.9,1.6-3.9l0,0c1-1,2.4-1.6,3.9-1.6h52.4
	c1.5,0,2.8,0.6,3.8,1.5c0,0,0.1,0.1,0.1,0.1c1,1,1.6,2.4,1.6,3.9v23.3c0,1.5-0.6,2.9-1.6,3.9l0,0h0c-1,1-2.4,1.6-3.9,1.6H174.3
	L174.3,118.2z M172.7,115.1V97.6h-45v7.8c0,0.3,0.1,0.7,0.2,0.9c0.1,0.3,0.3,0.5,0.5,0.8l0,0l7.3,7.3l0.1,0.1
	c0.2,0.2,0.4,0.4,0.7,0.5c0.3,0.1,0.6,0.2,0.9,0.2H172.7L172.7,115.1z M175.8,128.2v18.1c0,0.9-0.7,1.6-1.6,1.6
	c-0.9,0-1.6-0.7-1.6-1.6v-18.1h-37.8c-1.3,0-2.5-0.2-3.6-0.7c-1.1-0.5-2.1-1.2-3.1-2.1l-10.9-10.9c-0.9-0.9-1.6-1.9-2.1-3.1
	c-0.5-1.1-0.7-2.3-0.7-3.6V97.6h-13.1v10.3c0,1.3-0.2,2.5-0.7,3.6c-0.5,1.1-1.2,2.1-2.1,3.1l-10.9,10.9c-0.9,0.9-1.9,1.6-3.1,2.1
	c-1.1,0.5-2.3,0.7-3.6,0.7H43.4v18.1c0,0.9-0.7,1.6-1.6,1.6c-0.9,0-1.6-0.7-1.6-1.6v-18.1H27.5c-2.6,0-5-1.1-6.7-2.8
	c-1.7-1.7-2.8-4.1-2.8-6.7V83.4c0-2.6,1.1-5,2.8-6.7l0,0l0,0l0,0c1.7-1.7,4.1-2.8,6.7-2.8h161c2.6,0,5,1.1,6.7,2.8
	c1.7,1.7,2.8,4.1,2.8,6.7v35.4c0,2.6-1.1,5-2.8,6.7l0,0c-1.7,1.7-4.1,2.8-6.7,2.8H175.8L175.8,128.2z M101.5,94.4h13.1v-1.1
	c0-1.7-0.7-3.3-1.9-4.5c-1.1-1.1-2.7-1.8-4.5-1.8h-0.5c-1.7,0-3.3,0.7-4.4,1.8l0,0c-1.1,1.1-1.8,2.7-1.8,4.5V94.4L101.5,94.4z
	 M43.4,97.6v17.5h35.3c0.3,0,0.6-0.1,0.9-0.2c0.3-0.1,0.5-0.3,0.8-0.5l7.3-7.3c0.2-0.2,0.4-0.5,0.5-0.8c0.1-0.3,0.2-0.6,0.2-0.9
	v-7.8H43.4L43.4,97.6z M41.9,118.2h36.8c0.7,0,1.4-0.1,2.1-0.4c0.7-0.3,1.3-0.7,1.8-1.2l7.3-7.3c0.5-0.5,0.9-1.1,1.2-1.8
	c0.3-0.7,0.4-1.4,0.4-2.1V96v0v0v-6.5c0-1.5-0.6-2.9-1.6-3.9l0,0h0c-1-1-2.4-1.6-3.9-1.6H33.6c-1.5,0-2.9,0.6-3.9,1.6l0,0
	c-1,1-1.6,2.4-1.6,3.9V96v16.7c0,1.5,0.6,2.8,1.5,3.8c0,0,0.1,0.1,0.1,0.1c1,1,2.4,1.6,3.9,1.6H41.9L41.9,118.2L41.9,118.2
	L41.9,118.2z M40.3,115.1V97.6h-9v15.1c0,0.6,0.2,1.2,0.6,1.6l0.1,0.1c0.4,0.4,1,0.7,1.7,0.7H40.3L40.3,115.1z M31.2,94.4h10.6h46.6
	v-5c0-0.7-0.3-1.2-0.7-1.7l0,0c-0.4-0.4-1-0.7-1.7-0.7H33.6c-0.7,0-1.2,0.3-1.7,0.7c-0.4,0.4-0.7,1-0.7,1.7V94.4L31.2,94.4z
	 M194.8,118.8c0,1.7-0.7,3.3-1.8,4.4v0c-1.1,1.1-2.7,1.8-4.5,1.8h-14.3h-39.4c-0.9,0-1.7-0.2-2.4-0.5c-0.7-0.3-1.4-0.8-2-1.4
	l-10.9-10.9c-0.6-0.6-1.1-1.3-1.4-2c-0.3-0.7-0.5-1.5-0.5-2.4V96v-2.7c0-2.6-1.1-5-2.8-6.7c-1.7-1.7-4.1-2.8-6.7-2.8h-0.5
	c-2.6,0-5,1.1-6.7,2.8v0l0,0l0,0c-1.7,1.7-2.8,4.1-2.8,6.7v14.6c0,0.9-0.2,1.7-0.5,2.4c-0.3,0.7-0.8,1.4-1.4,2l-10.9,10.9
	c-0.6,0.6-1.3,1.1-2,1.4c-0.7,0.3-1.5,0.5-2.4,0.5H41.8H27.5c-1.7,0-3.3-0.7-4.5-1.9c-1.1-1.1-1.8-2.7-1.8-4.4V83.4
	c0-1.7,0.7-3.3,1.8-4.4v0c1.1-1.1,2.7-1.8,4.5-1.8h161c1.7,0,3.3,0.7,4.5,1.9c1.1,1.1,1.8,2.7,1.8,4.4V118.8z"/>
</svg>
