<?xml version="1.0" encoding="utf-8"?>
<!-- Generator: Adobe Illustrator 23.0.4, SVG Export Plug-In . SVG Version: 6.00 Build 0)  -->
<svg version="1.1" id="Layer_1" xmlns="http://www.w3.org/2000/svg" xmlns:xlink="http://www.w3.org/1999/xlink" x="0px" y="0px"
	 viewBox="0 0 216 216" style="enable-background:new 0 0 216 216;" xml:space="preserve">
<style type="text/css">
	.st0{fill-rule:evenodd;clip-rule:evenodd;fill:#1D1933;}
</style>
<path class="st0" d="M124.1,68c-3.8-3.8-8.3-6.9-13.4-8.9c-4.9-2-10.2-3.1-15.8-3.1S84,57.1,79.2,59.1c-5,2.1-9.6,5.1-13.4,8.9
	c-3.8,3.8-6.9,8.3-8.9,13.4c-2,4.8-3.1,10.2-3.1,15.8c0,5.6,1.1,10.9,3.1,15.8c2.1,5,5.1,9.6,8.9,13.4h0l0,0c3.8,3.8,8.3,6.9,13.4,9
	c4.8,2,10.2,3.1,15.8,3.1s10.9-1.1,15.8-3.1c5-2.1,9.6-5.1,13.4-8.9l0,0h0c3.8-3.8,6.9-8.3,8.9-13.4c2-4.8,3.1-10.2,3.1-15.8
	c0-5.6-1.1-10.9-3.1-15.8C130.9,76.4,127.9,71.8,124.1,68L124.1,68z M145.5,129l30.4,30.4l0.1,0.1c2,2,3,4.7,3,7.3
	c0,2.7-1,5.4-3.1,7.4l-3.8,3.8c-2,2-4.7,3.1-7.4,3.1c-2.7,0-5.4-1-7.4-3.1v0l0,0l-30.4-30.4c-9.2,5.8-20.2,9.2-31.9,9.2
	c-16.5,0-31.4-6.7-42.3-17.5c-10.8-10.8-17.5-25.8-17.5-42.3c0-16.5,6.7-31.4,17.5-42.2c10.8-10.8,25.8-17.5,42.3-17.5
	c16.5,0,31.4,6.7,42.3,17.5c10.8,10.8,17.5,25.8,17.5,42.2C154.7,108.9,151.3,119.8,145.5,129L145.5,129z M126.1,144L126.1,144
	L126.1,144L126.1,144c-8.9,5.9-19.6,9.4-31.1,9.4c-15.5,0-29.6-6.3-39.8-16.5C45,126.7,38.7,112.7,38.7,97.1
	c0-15.5,6.3-29.6,16.5-39.8c10.2-10.2,24.2-16.5,39.8-16.5c15.5,0,29.6,6.3,39.8,16.5c10.2,10.2,16.5,24.2,16.5,39.8
	c0,13.8-5,26.5-13.2,36.3l0,0l-0.1,0.1c-0.4,0.5-0.8,1-1.2,1.4l0,0c-0.6,0.6-1.2,1.3-1.8,1.9l-0.1,0.1
	C132.1,139.5,129.2,141.9,126.1,144L126.1,144L126.1,144z M173.4,161.9L173.4,161.9c1.4,1.4,2,3.2,2,5c0,1.8-0.7,3.6-2,5l-3.8,3.8
	c-1.4,1.4-3.2,2-5,2c-1.8,0-3.6-0.7-5-2h0l-29.9-29.9c2.6-1.9,5.1-4,7.4-6.3c2.3-2.3,4.4-4.8,6.3-7.4L173.4,161.9L173.4,161.9z
	 M112,55.8c5.5,2.3,10.4,5.6,14.5,9.7c4.1,4.1,7.4,9,9.7,14.5c2.2,5.3,3.4,11,3.4,17.1c0,6.1-1.2,11.8-3.4,17.1
	c-2.3,5.5-5.6,10.4-9.7,14.5v0c-4.1,4.1-9,7.4-14.5,9.7c-5.3,2.2-11,3.4-17.1,3.4c-6,0-11.8-1.2-17.1-3.4
	c-5.5-2.3-10.4-5.6-14.5-9.7l0,0c-4.1-4.1-7.4-9-9.7-14.5c-2.2-5.3-3.4-11-3.4-17.1c0-6,1.2-11.8,3.4-17.1
	c2.3-5.5,5.6-10.4,9.7-14.5c4.1-4.1,9-7.4,14.5-9.7c5.3-2.2,11-3.4,17.1-3.4C101,52.5,106.8,53.7,112,55.8z"/>
</svg>
