<?xml version="1.0" encoding="utf-8"?>
<!-- Generator: Adobe Illustrator 23.0.4, SVG Export Plug-In . SVG Version: 6.00 Build 0)  -->
<svg version="1.1" id="Layer_1" xmlns="http://www.w3.org/2000/svg" xmlns:xlink="http://www.w3.org/1999/xlink" x="0px" y="0px"
	 viewBox="0 0 216 216" style="enable-background:new 0 0 216 216;" xml:space="preserve">
<style type="text/css">
	.st0{fill-rule:evenodd;clip-rule:evenodd;fill:#1D1933;}
</style>
<g>
	<path class="st0" d="M137.3,77.8l-33.5,24.1l9.5,9.5L137.3,77.8L137.3,77.8z M45.1,111.9l7.1-3.9l-7.1-3.9
		c-0.1,1.3-0.1,2.6-0.1,3.9C45,109.3,45.1,110.6,45.1,111.9L45.1,111.9z M45.5,99.9c0.2-1.4,0.4-2.7,0.7-4c0.8-4,2-7.9,3.5-11.6l0,0
		v0c1.6-3.8,3.5-7.4,5.7-10.7c2.3-3.4,4.9-6.5,7.7-9.4c2.9-2.9,6-5.5,9.4-7.7c3.3-2.2,6.9-4.2,10.7-5.7l0,0
		c3.7-1.5,7.6-2.7,11.6-3.5c1.3-0.3,2.7-0.5,4-0.7l6.4,11.6c0.5,0.9,1.7,1.3,2.6,0.8c0.3-0.2,0.6-0.5,0.8-0.8l6.4-11.6
		c1.4,0.2,2.7,0.4,4,0.7c4,0.8,7.9,2,11.5,3.5l0.1,0c3.8,1.6,7.4,3.5,10.7,5.7c3.4,2.3,6.5,4.9,9.4,7.7v0c2.9,2.9,5.5,6,7.8,9.4
		c2.2,3.4,4.2,6.9,5.7,10.7c1.5,3.7,2.7,7.6,3.5,11.6c0.3,1.3,0.5,2.7,0.7,4l-11.6,6.4c-0.9,0.5-1.3,1.7-0.8,2.6
		c0.2,0.3,0.5,0.6,0.8,0.8l11.6,6.4c-0.2,1.4-0.4,2.7-0.7,4c-0.8,4-2,7.9-3.5,11.6c-1.6,3.8-3.5,7.4-5.7,10.7
		c-2.2,3.4-4.8,6.5-7.6,9.3l-0.1,0.1c-2.9,2.9-6.1,5.5-9.4,7.8c-3.3,2.2-6.9,4.2-10.7,5.7c-3.7,1.5-7.6,2.7-11.6,3.5
		c-1.3,0.3-2.7,0.5-4,0.7l-6.4-11.6c-0.5-0.9-1.7-1.3-2.6-0.8c-0.3,0.2-0.6,0.5-0.8,0.8L99,169.5c-1.4-0.2-2.7-0.4-4-0.7
		c-4-0.8-7.9-2-11.6-3.5c-3.8-1.6-7.4-3.5-10.7-5.7c-3.4-2.3-6.5-4.9-9.4-7.7c-2.9-2.9-5.5-6-7.8-9.4c-2.2-3.4-4.2-6.9-5.7-10.7
		c-1.5-3.7-2.7-7.6-3.5-11.6c-0.3-1.3-0.5-2.7-0.7-4l11.6-6.4c0.9-0.5,1.3-1.7,0.8-2.6c-0.2-0.3-0.5-0.6-0.8-0.8L45.5,99.9
		L45.5,99.9z M111,169.9l-3.9-7.1l-3.9,7.1c1.3,0.1,2.6,0.1,3.9,0.1C108.4,170.1,109.7,170,111,169.9L111,169.9z M169,104.1l-7,3.9
		l7,3.9c0.1-1.3,0.1-2.6,0.1-3.9C169.2,106.7,169.1,105.4,169,104.1L169,104.1z M103.2,46l3.9,7.1L111,46c-1.3-0.1-2.6-0.1-3.9-0.1
		C105.8,45.9,104.5,46,103.2,46L103.2,46z M143.7,53.1c3.6,2.4,7,5.2,10,8.2l0,0h0c3,3,5.8,6.4,8.2,10c2.4,3.6,4.4,7.4,6.1,11.4
		c1.6,3.9,2.9,8.1,3.7,12.3c0.8,4.2,1.2,8.5,1.2,12.9c0,4.4-0.4,8.7-1.2,12.9c-0.9,4.3-2.1,8.4-3.7,12.3c-1.7,4-3.7,7.8-6.1,11.4
		c-2.4,3.6-5.1,6.9-8.1,9.9l-0.1,0.1c-3,3-6.4,5.8-10,8.2c-3.6,2.4-7.4,4.4-11.4,6.1c-3.9,1.6-8.1,2.9-12.3,3.7
		c-4.2,0.8-8.5,1.3-12.9,1.3c-4.4,0-8.7-0.4-12.9-1.3c-4.3-0.8-8.4-2.1-12.3-3.7c-4-1.7-7.8-3.7-11.4-6.1c-3.6-2.4-7-5.2-10-8.2l0,0
		c-3.1-3.1-5.8-6.4-8.2-10c-2.4-3.6-4.4-7.4-6.1-11.4c-1.6-3.9-2.9-8.1-3.7-12.3c-0.8-4.2-1.3-8.5-1.3-12.9s0.4-8.7,1.3-12.9
		c0.8-4.3,2.1-8.4,3.7-12.3l0,0c1.7-4,3.7-7.8,6.1-11.4c2.4-3.6,5.2-7,8.2-10l0,0c3.1-3,6.4-5.8,10-8.2c3.6-2.4,7.4-4.4,11.4-6.1v0
		l0,0c3.9-1.6,8.1-2.9,12.3-3.7c4.2-0.8,8.5-1.3,12.9-1.3c4.4,0,8.7,0.4,12.9,1.3c4.2,0.8,8.3,2.1,12.2,3.7l0.1,0
		C136.3,48.7,140.1,50.7,143.7,53.1L143.7,53.1z M130.7,50.6l-1-2.5C129.4,49,129.8,50.1,130.7,50.6L130.7,50.6z M50.4,51.3
		c7.4-7.4,16.2-13.3,26-17.4c9.5-3.9,19.8-6.1,30.7-6.1c10.8,0,21.2,2.2,30.7,6.1c9.8,4.1,18.6,10,26,17.4
		c7.4,7.4,13.3,16.2,17.4,26c3.9,9.5,6.1,19.8,6.1,30.7s-2.2,21.2-6.1,30.7c-4.1,9.8-10,18.6-17.4,26c-7.4,7.4-16.2,13.3-26,17.4
		c-9.5,3.9-19.8,6.1-30.7,6.1c-10.8,0-21.2-2.2-30.7-6.1c-9.8-4.1-18.7-10-26-17.4c-7.4-7.4-13.3-16.2-17.4-26
		c-3.9-9.5-6.1-19.8-6.1-30.7s2.2-21.2,6.1-30.7C37.1,67.5,43,58.7,50.4,51.3L50.4,51.3z M77.9,37.5c9-3.7,18.8-5.8,29.2-5.8
		c10.3,0,20.2,2.1,29.2,5.8c9.3,3.9,17.7,9.5,24.8,16.6c7,7,12.7,15.4,16.6,24.8c3.7,9,5.8,18.8,5.8,29.2c0,10.3-2.1,20.2-5.8,29.2
		c-3.9,9.3-9.5,17.7-16.6,24.8c-7,7-15.4,12.7-24.8,16.6c-9,3.7-18.8,5.8-29.2,5.8c-10.3,0-20.2-2-29.2-5.8
		c-9.3-3.9-17.7-9.5-24.8-16.6c-7-7-12.7-15.4-16.6-24.8c-3.7-9-5.8-18.8-5.8-29.2c0-10.3,2.1-20.2,5.8-29.2
		c3.9-9.3,9.5-17.7,16.6-24.8C60.2,47,68.6,41.4,77.9,37.5L77.9,37.5z M101,104.6l9.5,9.5l-33.6,24.2L101,104.6L101,104.6z
		 M99.1,100.6c0.1-0.1,0.2-0.3,0.3-0.4c0.1-0.1,0.2-0.2,0.4-0.3l44.9-32.2c0.7-0.5,1.6-0.5,2.3,0c0.9,0.6,1.1,1.8,0.4,2.7
		l-32.2,44.9c-0.1,0.1-0.2,0.3-0.3,0.4c-0.1,0.1-0.2,0.2-0.4,0.3l-45,32.3c-0.7,0.5-1.6,0.5-2.3,0c-0.9-0.6-1.1-1.8-0.4-2.7
		L99.1,100.6z"/>
</g>
</svg>
