<?xml version="1.0" encoding="utf-8"?>
<!-- Generator: Adobe Illustrator 23.0.4, SVG Export Plug-In . SVG Version: 6.00 Build 0)  -->
<svg version="1.1" id="Layer_1" xmlns="http://www.w3.org/2000/svg" xmlns:xlink="http://www.w3.org/1999/xlink" x="0px" y="0px"
	 viewBox="0 0 216 216" style="enable-background:new 0 0 216 216;" xml:space="preserve">
<style type="text/css">
	.st0{fill-rule:evenodd;clip-rule:evenodd;fill:#1D1933;}
</style>
<path class="st0" d="M117.2,66.1c4.9,1.5,9.3,4.2,12.8,7.8c5.7,5.7,9.2,13.5,9.2,22.2c0,1-0.8,1.9-1.9,1.9h-59c-1,0-1.9-0.8-1.9-1.9
	c0-8.7,3.5-16.5,9.2-22.2c3.5-3.5,7.9-6.2,12.8-7.7c-1.8-0.9-3.4-2.1-4.7-3.5c-3.6-3.6-5.9-8.6-5.9-14.1s2.3-10.5,5.9-14.1
	c3.6-3.6,8.6-5.9,14.1-5.9c5.5,0,10.5,2.2,14.1,5.9c3.6,3.6,5.9,8.6,5.9,14.1s-2.3,10.5-5.9,14.1l0,0v0
	C120.6,64,119,65.1,117.2,66.1L117.2,66.1z M105.9,103.5c0-1,0.8-1.9,1.9-1.9c1,0,1.9,0.8,1.9,1.9v12.7c3.7,0.4,7,2.1,9.5,4.6l0,0
	c2.9,2.9,4.7,7,4.7,11.4c0,3.4-1,6.5-2.8,9.1l10.2,10.3c0.7,0.7,0.7,1.9,0,2.7c-0.7,0.7-1.9,0.7-2.7,0l-10-10.1
	c-2.9,2.6-6.7,4.2-10.9,4.2c-4,0-7.7-1.5-10.5-3.9l-9.8,9.8c-0.7,0.7-1.9,0.7-2.7,0c-0.7-0.7-0.7-1.9,0-2.7l9.9-9.9
	c-1.9-2.7-3.1-6-3.1-9.5c0-4.5,1.8-8.5,4.7-11.5c2.5-2.5,5.8-4.2,9.6-4.6V103.5L105.9,103.5z M98.6,140.6L98.6,140.6
	c0.1,0.1,0.1,0.1,0.2,0.2c0.1,0.1,0.2,0.2,0.3,0.3l0,0c2.2,2.2,5.3,3.6,8.8,3.6c3.4,0,6.5-1.4,8.8-3.6c2.2-2.2,3.6-5.3,3.6-8.8
	c0-3.4-1.4-6.5-3.6-8.8c-2.2-2.2-5.3-3.6-8.8-3.6h0c-3.4,0-6.5,1.4-8.8,3.6c-2.2,2.2-3.6,5.3-3.6,8.8
	C95.4,135.5,96.6,138.4,98.6,140.6L98.6,140.6z M54,117.5c-5.5,0-10.5,2.2-14.1,5.9c-3.6,3.6-5.9,8.6-5.9,14.1
	c0,5.5,2.2,10.5,5.9,14.1c1.4,1.4,3,2.6,4.8,3.5c-4.9,1.5-9.3,4.2-12.8,7.7c-5.7,5.7-9.2,13.5-9.2,22.2c0,1,0.8,1.9,1.9,1.9h59
	c1,0,1.9-0.8,1.9-1.9c0-8.7-3.5-16.5-9.2-22.2c-3.5-3.5-7.9-6.2-12.8-7.8c1.8-0.9,3.3-2.1,4.7-3.5v0l0,0c3.6-3.6,5.9-8.6,5.9-14.1
	c0-5.5-2.2-10.5-5.9-14.1C64.5,119.7,59.5,117.5,54,117.5L54,117.5z M65.4,126c2.9,2.9,4.8,7,4.8,11.5c0,4.5-1.8,8.5-4.8,11.5h0
	c-2.9,2.9-7,4.7-11.5,4.8h0c-4.5,0-8.5-1.8-11.5-4.8c-2.9-2.9-4.8-7-4.8-11.5c0-4.5,1.8-8.5,4.8-11.5c2.9-2.9,7-4.8,11.5-4.8
	C58.4,121.2,62.5,123,65.4,126L65.4,126z M73.5,165.5c4.6,4.6,7.6,10.7,8,17.6h-55c0.5-6.9,3.4-13,8-17.6c5-5,11.9-8.1,19.5-8.1h0
	C61.6,157.5,68.5,160.6,73.5,165.5L73.5,165.5z M161.7,117.5c-5.5,0-10.5,2.2-14.1,5.9c-3.6,3.6-5.9,8.6-5.9,14.1
	c0,5.5,2.2,10.5,5.9,14.1c1.4,1.4,3,2.6,4.7,3.5c-4.9,1.5-9.2,4.2-12.8,7.7c-5.7,5.7-9.2,13.5-9.2,22.2c0,1,0.8,1.9,1.9,1.9h59
	c1,0,1.9-0.8,1.9-1.9c0-8.7-3.5-16.5-9.2-22.2c-3.5-3.5-7.9-6.2-12.8-7.8c1.8-0.9,3.3-2.1,4.7-3.5l0,0h0c3.6-3.6,5.9-8.6,5.9-14.1
	c0-5.5-2.2-10.5-5.9-14.1C172.2,119.7,167.2,117.5,161.7,117.5L161.7,117.5z M173.1,126c2.9,2.9,4.8,7,4.8,11.5
	c0,4.5-1.8,8.5-4.8,11.5h0c-2.9,2.9-7,4.7-11.5,4.8h0c-4.5,0-8.5-1.8-11.5-4.8c-2.9-2.9-4.7-7-4.7-11.5c0-4.5,1.8-8.5,4.7-11.5
	c2.9-2.9,7-4.8,11.5-4.8C166.2,121.2,170.2,123,173.1,126L173.1,126z M181.2,165.5c4.6,4.6,7.6,10.7,8,17.6h-55
	c0.5-6.9,3.4-13,8-17.6c5-5,11.9-8.1,19.5-8.1h0C169.3,157.5,176.2,160.6,181.2,165.5L181.2,165.5z M107.8,64.6L107.8,64.6
	c4.5,0,8.5-1.8,11.5-4.8v0c2.9-2.9,4.7-7,4.7-11.5c0-4.5-1.8-8.5-4.7-11.5c-2.9-2.9-7-4.8-11.5-4.8c-4.5,0-8.5,1.8-11.5,4.8
	c-2.9,2.9-4.7,7-4.7,11.5s1.8,8.5,4.7,11.5C99.3,62.8,103.3,64.6,107.8,64.6L107.8,64.6z M127.3,76.5c-5-5-11.9-8.1-19.5-8.1h0
	c-7.6,0-14.5,3.1-19.5,8.1c-4.6,4.6-7.6,10.8-8,17.6h55.1C134.9,87.3,131.9,81.1,127.3,76.5z"/>
</svg>
