<?xml version="1.0" encoding="utf-8"?>
<!-- Generator: Adobe Illustrator 23.0.4, SVG Export Plug-In . SVG Version: 6.00 Build 0)  -->
<svg version="1.1" id="Layer_1" xmlns="http://www.w3.org/2000/svg" xmlns:xlink="http://www.w3.org/1999/xlink" x="0px" y="0px"
	 viewBox="0 0 216 216" style="enable-background:new 0 0 216 216;" xml:space="preserve">
<style type="text/css">
	.st0{fill-rule:evenodd;clip-rule:evenodd;fill:#1D1933;}
</style>
<path class="st0" d="M106.9,60.4H64.1c-0.7,0-1.4,0.3-1.9,0.8c-0.5,0.5-0.8,1.2-0.8,1.9v5.1v50.5v5.1c0,0.7,0.3,1.4,0.8,1.9l0,0
	c0.5,0.5,1.1,0.8,1.9,0.8h8.5h25.8h7.7h0.8c0.7,0,1.4-0.3,1.9-0.8c0.5-0.5,0.8-1.1,0.8-1.9v-7.1V68.1V63c0-0.7-0.3-1.4-0.8-1.9
	l-0.1-0.1C108.2,60.6,107.6,60.4,106.9,60.4L106.9,60.4z M100.2,146.2h1.5c0.7,0,1.4-0.3,1.9-0.8c0.5-0.5,0.8-1.2,0.8-1.9V130h-4.1
	V146.2L100.2,146.2z M107.9,129.9v13.6c0,1.7-0.7,3.3-1.8,4.4c-1.1,1.1-2.7,1.8-4.4,1.8h-1.5v15.7c0,2.9-1.2,5.6-3.1,7.5l0,0
	c-1.9,1.9-4.6,3.1-7.5,3.1h-8c-2.9,0-5.6-1.2-7.5-3.1c-1.9-1.9-3.1-4.6-3.1-7.5V130h-6.7c-1.7,0-3.3-0.7-4.4-1.8v0l0,0
	c-1.1-1.1-1.8-2.7-1.8-4.4v-3.3h-6.7c-1.7,0-3.3-0.7-4.4-1.8l0,0l0,0c-1.1-1.1-1.8-2.7-1.8-4.4v-6.7h-4.7c-1.7,0-3.3-0.7-4.4-1.8
	l0,0l0,0c-1.1-1.1-1.8-2.7-1.8-4.4V85.5c0-1.7,0.7-3.3,1.8-4.4l0,0c1.1-1.1,2.7-1.8,4.4-1.8H45v-6.7c0-1.7,0.7-3.3,1.8-4.4l0,0
	c1.1-1.1,2.7-1.8,4.4-1.8h6.7V63c0-1.7,0.7-3.3,1.8-4.4l0,0c1.1-1.1,2.7-1.8,4.4-1.8h42.8c1.7,0,3.2,0.7,4.3,1.7
	c0,0,0.1,0.1,0.1,0.1c1.1,1.1,1.8,2.7,1.8,4.4v3.3h9.6c0.9,0,1.6-0.2,2.4-0.5c0.9-0.4,1.7-0.9,2.6-1.5l39.5-25.2
	c0.3-0.2,0.7-0.4,1.1-0.4c1,0,1.8,0.8,1.8,1.8v38.7h4.7c1.7,0,3.2,0.7,4.3,1.7c0,0,0.1,0.1,0.1,0.1c1.1,1.1,1.8,2.7,1.8,4.4v15.8
	c0,1.7-0.7,3.3-1.8,4.4c-1.1,1.1-2.7,1.8-4.4,1.8h-4.7v36.7h0c0,0.3-0.1,0.7-0.3,1c-0.5,0.8-1.6,1.1-2.4,0.5l-39.7-25.3
	c-0.9-0.6-1.7-1.1-2.6-1.5c-0.8-0.3-1.5-0.5-2.4-0.5h-9.6v5.3c0,1.7-0.7,3.3-1.8,4.4C110.4,129.1,109.2,129.7,107.9,129.9
	L107.9,129.9z M166.5,43.8l-36.9,23.6c-1,0.7-2,1.3-3.1,1.7c-1.2,0.5-2.4,0.8-3.8,0.8h-9.6v45h9.6c1.4,0,2.6,0.3,3.8,0.8
	c1,0.4,2,1.1,3.1,1.7l36.9,23.6v-35.3V81V43.8L166.5,43.8z M45,82.8h-4.7c-0.7,0-1.4,0.3-1.9,0.8c-0.5,0.5-0.8,1.2-0.8,1.9v15.8
	c0,0.7,0.3,1.4,0.8,1.9l0,0c0.5,0.5,1.2,0.8,1.9,0.8H45V82.8L45,82.8z M174.8,82.8h-4.7V104h4.7c0.7,0,1.4-0.3,1.9-0.8
	c0.5-0.5,0.8-1.1,0.8-1.9V85.5c0-0.7-0.3-1.4-0.8-1.9l-0.1-0.1C176.1,83.1,175.5,82.8,174.8,82.8L174.8,82.8z M74.4,130v35.5
	c0,2,0.8,3.8,2.1,5c1.3,1.3,3.1,2.1,5,2.1h8c2,0,3.7-0.8,5-2.1l0,0c1.3-1.3,2.1-3.1,2.1-5V148V130H74.4L74.4,130z M57.9,69.9h-6.7
	c-0.7,0-1.4,0.3-1.9,0.8c-0.5,0.5-0.8,1.1-0.8,1.9V81v24.7v8.5c0,0.7,0.3,1.4,0.8,1.9l0,0c0.5,0.5,1.2,0.8,1.9,0.8h6.7V69.9z"/>
</svg>
