<?xml version="1.0" encoding="utf-8"?>
<!-- Generator: Adobe Illustrator 23.0.4, SVG Export Plug-In . SVG Version: 6.00 Build 0)  -->
<svg version="1.1" id="Layer_1" xmlns="http://www.w3.org/2000/svg" xmlns:xlink="http://www.w3.org/1999/xlink" x="0px" y="0px"
	 viewBox="0 0 216 216" style="enable-background:new 0 0 216 216;" xml:space="preserve">
<style type="text/css">
	.st0{fill-rule:evenodd;clip-rule:evenodd;fill:#1D1933;}
</style>
<path class="st0" d="M90.9,85.8L83.7,89l0,0l-9.3,4.1c-0.1,0-0.2,0.1-0.2,0.1l-32.8,14.4c-1.1,0.5-2,1.2-2.6,2.1
	c-0.6,0.9-0.9,2-0.9,3.1v13.1l53.1-9.8V85.8L90.9,85.8z M116.2,47.8l-4.2-5.2c-0.6-0.7-1.3-1.3-2.1-1.7c-0.8-0.4-1.7-0.6-2.7-0.6
	h-4.3c-1,0-1.9,0.2-2.7,0.6c-0.8,0.4-1.5,0.9-2.1,1.7L94,47.8v1.7l1.5-1.8c0.9-1.1,2-2,3.3-2.5c1.3-0.6,2.7-0.9,4.1-0.9h4.4
	c1.5,0,2.9,0.3,4.1,0.9c1.3,0.6,2.4,1.4,3.3,2.5l1.5,1.8V47.8L116.2,47.8z M96.6,39.8c0.7-0.6,1.4-1.1,2.2-1.5
	c1.2-0.6,2.6-0.9,4.1-0.9h4.3c1.5,0,2.8,0.3,4.1,0.9c0.8,0.4,1.6,0.9,2.2,1.5l-2-4.8l0,0l0,0c-0.5-1.2-1.3-2.1-2.3-2.7l-0.1,0
	c-1-0.6-2.2-0.9-3.5-0.9h-1.4c-1.3,0-2.5,0.4-3.5,1v0c-1,0.6-1.8,1.6-2.3,2.7l-0.1,0.1L96.6,39.8L96.6,39.8z M116.2,54.3v29.3v33.7
	l-6.5,54.2l-0.7,5.6l-0.7,5.6h-1.7v-35.2c0-0.8-0.7-1.5-1.6-1.5c-0.9,0-1.6,0.7-1.6,1.5v35.2h-1.7l-0.7-5.5c0-0.1,0-0.1,0-0.2
	L94,117.2V83.5V54.3l4-4.9c0.6-0.7,1.3-1.3,2.2-1.7c0.8-0.4,1.7-0.6,2.8-0.6h4.4c1,0,1.9,0.2,2.8,0.6c0.8,0.4,1.6,1,2.2,1.7
	L116.2,54.3L116.2,54.3z M127.1,78.4h9.4c0.9,0,1.6,0.7,1.6,1.5v11.1l32,14c1.7,0.7,3,1.8,3.9,3.2c0.9,1.4,1.4,3,1.4,4.7v14.8
	c0,0.8-0.7,1.5-1.6,1.5c-0.1,0-0.3,0-0.4,0L119.1,119l-4.1,33.8l18.4,11.6c1.3,0.8,2.4,1.9,3,3.1c0.7,1.2,1.1,2.6,1.1,4.1v5.5
	c0,0.8-0.7,1.5-1.6,1.5h-24.1l-0.7,5.5c0,0.8-0.7,1.4-1.6,1.4h-4.6h-4.6v0c-0.8,0-1.5-0.6-1.5-1.3l-0.7-5.6H74.2
	c-0.9,0-1.6-0.7-1.6-1.5v-5.5c0-1.5,0.4-2.9,1.1-4.1c0.7-1.2,1.7-2.3,3-3.1l18.4-11.6L91.1,119l-54.4,10.1c-0.1,0-0.2,0-0.4,0
	c-0.9,0-1.6-0.7-1.6-1.5v-14.8c0-1.7,0.5-3.3,1.4-4.7c0.9-1.4,2.3-2.5,3.9-3.2l32-14V79.8c0-0.8,0.7-1.5,1.6-1.5H83
	c0.9,0,1.6,0.7,1.6,1.5v5.6l6.3-2.8V47.4c0-0.5,0-1.1,0.2-1.6c0.1-0.5,0.3-1,0.5-1.5h0l0,0l4.2-10.1l0-0.1c0.7-1.7,1.9-3.1,3.4-4.1
	l0,0l0,0c1.5-1,3.3-1.5,5.3-1.5h1.4c1.9,0,3.7,0.5,5.2,1.5l0.1,0.1c1.5,1,2.7,2.4,3.4,4.1h0l4.2,10.3c0.2,0.5,0.4,1,0.5,1.5
	c0.1,0.5,0.2,1,0.2,1.6v35.2l6.3,2.8v-5.6C125.6,79,126.3,78.4,127.1,78.4L127.1,78.4z M136,93.2c-0.1,0-0.2-0.1-0.2-0.1l-9.3-4.1
	l0,0l-7.2-3.1v30.2l53.1,9.8v-13.1c0-1.2-0.3-2.2-0.9-3.1c-0.6-0.9-1.5-1.6-2.6-2.1L136,93.2L136,93.2z M135,81.3h-6.3v5.5l6.3,2.8
	V81.3L135,81.3z M114.3,159.1l-2,16.7h22.2v-4.1c0-1-0.2-1.9-0.7-2.8c-0.5-0.8-1.2-1.5-2-2.1l-17.1-10.8L114.3,159.1L114.3,159.1z
	 M95.5,156.1l-17.1,10.8c-0.9,0.6-1.6,1.3-2,2.1c-0.5,0.8-0.7,1.7-0.7,2.8v4.1h22.2l-0.5-4.4L95.5,156.1L95.5,156.1z M81.5,81.3v5.5
	l-6.3,2.8v-8.2H81.5z"/>
</svg>
