<?xml version="1.0" encoding="utf-8"?>
<!-- Generator: Adobe Illustrator 23.0.4, SVG Export Plug-In . SVG Version: 6.00 Build 0)  -->
<svg version="1.1" id="Layer_1" xmlns="http://www.w3.org/2000/svg" xmlns:xlink="http://www.w3.org/1999/xlink" x="0px" y="0px"
	 viewBox="0 0 216 216" style="enable-background:new 0 0 216 216;" xml:space="preserve">
<style type="text/css">
	.st0{fill-rule:evenodd;clip-rule:evenodd;fill:#1D1933;}
</style>
<path class="st0" d="M33,84.5h151.4v-7.4l-75.7-36.5L33,77.1V84.5L33,84.5z M31.3,164.8h10.3v-64h-3c-1,0-1.7-0.8-1.7-1.7V88h-5.5
	c-1,0-1.7-0.8-1.7-1.8V76l0,0c0-0.6,0.4-1.3,1-1.6L108,37.1c0.5-0.2,1-0.2,1.5,0l77.3,37.3c0.6,0.3,1.1,0.9,1.1,1.6v10.3
	c0,1-0.8,1.8-1.8,1.8h-5.5v11.1c0,1-0.8,1.7-1.7,1.7h-3v64h10.2c1,0,1.8,0.8,1.8,1.8v10.8c0,1-0.8,1.8-1.8,1.8H31.3
	c-1,0-1.7-0.8-1.7-1.8v-10.8C29.5,165.6,30.3,164.8,31.3,164.8L31.3,164.8z M76.5,88v11.1c0,1-0.8,1.7-1.7,1.7h-3v64h21.9v-64h-3
	c-1,0-1.7-0.8-1.7-1.7V88H76.5L76.5,88z M128.6,88v11.1c0,1-0.8,1.7-1.7,1.7h-3v64h21.9v-64h-3c-1,0-1.7-0.8-1.7-1.7V88H128.6
	L128.6,88z M177.2,88h-32.7v9.3h32.7V88L177.2,88z M125.1,88H92.4v9.3h32.7V88L125.1,88z M73,88H40.3v9.3H73V88L73,88z M45,164.8
	h23.2v-64H45V164.8L45,164.8z M97.1,164.8h23.2v-64H97.1V164.8L97.1,164.8z M149.2,164.8h23.2v-64h-23.2V164.8L149.2,164.8z
	 M184.4,168.3H33v7.3h151.4V168.3z"/>
</svg>
