<?xml version="1.0" encoding="utf-8"?>
<!-- Generator: Adobe Illustrator 23.0.4, SVG Export Plug-In . SVG Version: 6.00 Build 0)  -->
<svg version="1.1" id="Layer_1" xmlns="http://www.w3.org/2000/svg" xmlns:xlink="http://www.w3.org/1999/xlink" x="0px" y="0px"
	 viewBox="0 0 216 216" style="enable-background:new 0 0 216 216;" xml:space="preserve">
<style type="text/css">
	.st0{fill-rule:evenodd;clip-rule:evenodd;fill:#1D1933;}
</style>
<path class="st0" d="M37.4,49.5h50.2V28.3c0-1.1,0.9-2,2-2c0.5,0,0.9,0.2,1.2,0.4L153.6,69c0.9,0.6,1.1,1.8,0.5,2.7
	c-0.1,0.2-0.3,0.4-0.5,0.5l-62.9,42.4c-0.9,0.6-2.1,0.4-2.7-0.5c-0.2-0.3-0.3-0.7-0.3-1.1h0V91.8H37.4c-3.3,0-6.2-1.3-8.3-3.5l0,0
	c-2.1-2.1-3.5-5.1-3.5-8.3V61.3c0-3.3,1.3-6.2,3.5-8.3C31.2,50.8,34.2,49.5,37.4,49.5L37.4,49.5z M89.6,53.4H37.4
	c-2.2,0-4.1,0.9-5.6,2.3c-1.4,1.4-2.3,3.4-2.3,5.6V80c0,2.2,0.9,4.1,2.3,5.6v0c1.4,1.4,3.4,2.3,5.6,2.3h52.1c1.1,0,2,0.9,2,2v19.5
	L149,70.6L91.5,32v19.5C91.5,52.6,90.6,53.4,89.6,53.4z"/>
<path class="st0" d="M75.5,124h50.2v-21.3c0-1.1,0.9-2,2-2c0.5,0,0.9,0.2,1.2,0.4l62.8,42.3c0.9,0.6,1.1,1.8,0.5,2.7
	c-0.1,0.2-0.3,0.4-0.5,0.5l-62.9,42.4c-0.9,0.6-2.1,0.4-2.7-0.5c-0.2-0.3-0.3-0.7-0.3-1.1h0v-21.2H75.5c-3.3,0-6.2-1.3-8.3-3.5l0,0
	c-2.1-2.1-3.5-5.1-3.5-8.3v-18.7c0-3.3,1.3-6.2,3.5-8.3C69.3,125.3,72.2,124,75.5,124L75.5,124z M127.6,127.9H75.5
	c-2.2,0-4.1,0.9-5.6,2.3c-1.4,1.4-2.3,3.4-2.3,5.6v18.7c0,2.2,0.9,4.1,2.3,5.6v0c1.4,1.4,3.4,2.3,5.6,2.3h52.1c1.1,0,2,0.9,2,2v19.5
	l57.5-38.7l-57.5-38.7v19.5C129.5,127,128.7,127.9,127.6,127.9z"/>
</svg>
