<?xml version="1.0" encoding="utf-8"?>
<!-- Generator: Adobe Illustrator 23.0.4, SVG Export Plug-In . SVG Version: 6.00 Build 0)  -->
<svg version="1.1" id="Layer_1" xmlns="http://www.w3.org/2000/svg" xmlns:xlink="http://www.w3.org/1999/xlink" x="0px" y="0px"
	 viewBox="0 0 216 216" style="enable-background:new 0 0 216 216;" xml:space="preserve">
<style type="text/css">
	.st0{fill-rule:evenodd;clip-rule:evenodd;fill:#1D1933;}
</style>
<g>
	<path class="st0" d="M42.5,52h89.5V35.8c0-0.9,0.7-1.7,1.7-1.7c0.4,0,0.8,0.1,1,0.4L182.8,67c0.8,0.5,1,1.6,0.5,2.3
		c-0.1,0.2-0.3,0.3-0.5,0.5l-48.3,32.5c-0.8,0.5-1.8,0.3-2.3-0.5c-0.2-0.3-0.3-0.6-0.3-0.9l0,0V84.8H42.5c-2.8,0-5.3-1.1-7.1-2.9
		l0,0c-1.8-1.8-2.9-4.3-2.9-7.1V62c0-2.8,1.1-5.3,2.9-7.1C37.2,53.1,39.7,52,42.5,52L42.5,52z M133.6,55.3H42.5
		c-1.8,0-3.5,0.8-4.7,2c-1.2,1.2-2,2.9-2,4.7v12.8c0,1.8,0.7,3.5,2,4.7h0c1.2,1.2,2.9,2,4.7,2h91.1c0.9,0,1.7,0.7,1.7,1.7v14.6
		l43.7-29.4l-43.7-29.4v14.7C135.2,54.6,134.5,55.3,133.6,55.3z"/>
	<path class="st0" d="M42.5,132.2h89.5V116c0-0.9,0.7-1.7,1.7-1.7c0.4,0,0.8,0.1,1,0.4l48.2,32.4c0.8,0.5,1,1.6,0.5,2.3
		c-0.1,0.2-0.3,0.3-0.5,0.5l-48.3,32.5c-0.8,0.5-1.8,0.3-2.3-0.5c-0.2-0.3-0.3-0.6-0.3-0.9l0,0V165H42.5c-2.8,0-5.3-1.1-7.1-2.9l0,0
		c-1.8-1.8-2.9-4.3-2.9-7.1v-12.8c0-2.8,1.1-5.3,2.9-7.1C37.2,133.3,39.7,132.2,42.5,132.2L42.5,132.2z M133.6,135.5H42.5
		c-1.8,0-3.5,0.8-4.7,2c-1.2,1.2-2,2.9-2,4.7v12.8c0,1.8,0.7,3.5,2,4.7h0c1.2,1.2,2.9,2,4.7,2h91.1c0.9,0,1.7,0.7,1.7,1.7v14.6
		l43.7-29.4l-43.7-29.4v14.7C135.2,134.7,134.5,135.5,133.6,135.5z"/>
</g>
</svg>
