<?xml version="1.0" encoding="utf-8"?>
<!-- Generator: Adobe Illustrator 23.0.4, SVG Export Plug-In . SVG Version: 6.00 Build 0)  -->
<svg version="1.1" id="Layer_1" xmlns="http://www.w3.org/2000/svg" xmlns:xlink="http://www.w3.org/1999/xlink" x="0px" y="0px"
	 viewBox="0 0 216 216" style="enable-background:new 0 0 216 216;" xml:space="preserve">
<style type="text/css">
	.st0{fill-rule:evenodd;clip-rule:evenodd;fill:#1D1933;}
</style>
<path class="st0" d="M41.4,87.8L82.2,84l0,0c0.5-0.1,1-0.2,1.5-0.5c0.4-0.3,0.7-0.7,1-1.2l16.3-37.7c0.5-1.2,1.3-2.2,2.4-2.8
	c0,0,0.1-0.1,0.1-0.1c1-0.6,2.2-1,3.4-1c1.3,0,2.5,0.4,3.5,1c1,0.7,1.8,1.6,2.4,2.8l16.3,37.7c0.2,0.5,0.5,0.9,0.9,1.2
	c0.4,0.3,0.9,0.5,1.5,0.5l40.8,3.9l0.1,0c1.3,0.1,2.4,0.6,3.3,1.4c0.9,0.8,1.7,1.8,2.1,3h0c0.4,1.2,0.4,2.5,0.1,3.7
	c-0.3,1.2-1,2.3-2,3.1L145,126.1c-0.4,0.4-0.7,0.8-0.9,1.3c-0.2,0.5-0.2,1-0.1,1.5l9,40c0.3,1.3,0.2,2.5-0.2,3.7
	c-0.4,1.1-1.2,2.2-2.2,2.9c-1,0.8-2.2,1.2-3.5,1.2c-1.2,0.1-2.4-0.2-3.6-0.9L108.2,155c-0.5-0.3-1-0.4-1.5-0.4v0
	c-0.5,0-1,0.1-1.5,0.4l-35.3,20.9c-1.1,0.7-2.3,1-3.6,0.9c-1.2-0.1-2.4-0.5-3.5-1.2c-1-0.8-1.8-1.8-2.2-2.9
	c-0.4-1.1-0.5-2.4-0.2-3.7l9-40l0,0c0.1-0.5,0.1-1-0.1-1.5c-0.2-0.5-0.4-0.9-0.9-1.3L37.7,99c-1-0.9-1.6-1.9-2-3.1
	c-0.3-1.2-0.3-2.4,0.1-3.7c0.4-1.2,1.1-2.3,2.1-3C38.9,88.4,40.1,87.9,41.4,87.8L41.4,87.8z M82.5,87.4l-40.8,3.8
	c-0.6,0-1.1,0.3-1.6,0.6c-0.4,0.3-0.7,0.8-0.9,1.4c-0.2,0.6-0.2,1.2-0.1,1.7c0.1,0.5,0.5,1,0.9,1.4l30.8,27.1
	c0.9,0.8,1.5,1.8,1.9,2.8c0.3,1,0.4,2.2,0.2,3.3l0,0.1l-9,40c-0.1,0.6-0.1,1.2,0.1,1.7c0.2,0.5,0.5,1,1,1.3c0.5,0.4,1,0.6,1.6,0.6
	c0.5,0,1.1-0.1,1.6-0.4l35.3-20.9c1-0.6,2.1-0.9,3.3-0.9v0c1.1,0,2.2,0.3,3.3,0.9l35.3,20.9c0.5,0.3,1.1,0.5,1.6,0.4
	c0.5,0,1.1-0.2,1.6-0.6c0.5-0.4,0.8-0.8,1-1.3c0.2-0.5,0.2-1.1,0.1-1.7l-8.9-40c-0.3-1.2-0.2-2.3,0.1-3.4c0.3-1.1,1-2,1.9-2.8
	l30.8-27.1c0.5-0.4,0.8-0.9,0.9-1.4c0.1-0.5,0.1-1.1-0.1-1.7l0,0v0c-0.2-0.6-0.5-1-0.9-1.4c-0.4-0.3-0.9-0.6-1.5-0.6l0,0L131,87.5
	c-1.2-0.1-2.3-0.5-3.2-1.2c-0.9-0.7-1.6-1.6-2.1-2.7L109.4,46c-0.2-0.6-0.6-1-1.1-1.3c-0.4-0.3-1-0.5-1.6-0.5
	c-0.6,0-1.1,0.1-1.5,0.4l-0.1,0.1c-0.5,0.3-0.8,0.7-1.1,1.3L87.8,83.6c-0.5,1.1-1.2,2-2.1,2.7C84.8,86.9,83.7,87.3,82.5,87.4
	L82.5,87.4L82.5,87.4z"/>
</svg>
