<?xml version="1.0" encoding="utf-8"?>
<!-- Generator: Adobe Illustrator 23.0.4, SVG Export Plug-In . SVG Version: 6.00 Build 0)  -->
<svg version="1.1" id="Layer_1" xmlns="http://www.w3.org/2000/svg" xmlns:xlink="http://www.w3.org/1999/xlink" x="0px" y="0px"
	 viewBox="0 0 216 216" style="enable-background:new 0 0 216 216;" xml:space="preserve">
<style type="text/css">
	.st0{fill-rule:evenodd;clip-rule:evenodd;fill:#1D1933;}
</style>
<path class="st0" d="M62.3,32.6l63.2,0l0.2,0c0.6,0,1,0.3,1.4,0.6l38.4,38.4c0.4,0.3,0.6,0.8,0.6,1.4l0,0.2l0,99.3
	c0,3-1.2,5.7-3.2,7.7c-2,2-4.7,3.2-7.7,3.2H62.3h0v0c-3,0-5.7-1.2-7.7-3.2c-2-2-3.2-4.7-3.2-7.7h0v0v-129v0c0-3,1.2-5.7,3.2-7.7
	C56.6,33.8,59.3,32.6,62.3,32.6L62.3,32.6L62.3,32.6L62.3,32.6L62.3,32.6z M72.3,128.9h54.2c1,0,1.8-0.8,1.8-1.8
	c0-1-0.8-1.8-1.8-1.8H72.3c-1,0-1.8,0.8-1.8,1.8C70.5,128,71.3,128.9,72.3,128.9L72.3,128.9z M72.3,108.8h68.9c1,0,1.8-0.8,1.8-1.8
	c0-1-0.8-1.8-1.8-1.8H72.3c-1,0-1.8,0.8-1.8,1.8C70.5,107.9,71.3,108.8,72.3,108.8L72.3,108.8z M72.3,89.8H136c1,0,1.8-0.8,1.8-1.8
	c0-1-0.8-1.8-1.8-1.8H72.3c-1,0-1.8,0.8-1.8,1.8C70.5,89,71.3,89.8,72.3,89.8L72.3,89.8z M138.2,135.3c-3,0-5.7,1.2-7.7,3.2
	l-0.1,0.1c-1.9,2-3.1,4.6-3.1,7.6c0,3,1.2,5.7,3.2,7.7c2,2,4.7,3.2,7.7,3.2c3,0,5.7-1.2,7.7-3.2v0v0c2-2,3.2-4.7,3.2-7.7
	c0-3-1.2-5.7-3.2-7.7l0,0C144,136.5,141.3,135.3,138.2,135.3L138.2,135.3z M128,135.9l-0.1,0.1c-2.6,2.6-4.2,6.2-4.2,10.2
	c0,4,1.6,7.7,4.3,10.3c2.6,2.6,6.3,4.3,10.3,4.3c4,0,7.7-1.6,10.3-4.3l0,0c2.6-2.6,4.3-6.3,4.3-10.3c0-4-1.6-7.6-4.3-10.3l0,0v0l0,0
	c-2.6-2.6-6.3-4.3-10.3-4.3C134.2,131.6,130.6,133.3,128,135.9L128,135.9z M162.5,74.8h-27.7c-3,0-5.7-1.2-7.7-3.2h0l0,0l0,0
	c-2-2-3.2-4.7-3.2-7.7V36.2H62.3v0h0v0c-2,0-3.8,0.8-5.1,2.1c-1.3,1.3-2.1,3.1-2.1,5.1v0v129v0h0c0,2,0.8,3.8,2.1,5.1
	c1.3,1.3,3.1,2.1,5.1,2.1v0h0h92.8c2,0,3.8-0.8,5.1-2.1c1.3-1.3,2.1-3.1,2.1-5.1L162.5,74.8L162.5,74.8z M127.5,38.8v25.1
	c0,2,0.8,3.8,2.1,5.2h0c1.3,1.3,3.1,2.1,5.1,2.1h25.1L127.5,38.8z"/>
</svg>
