<?xml version="1.0" encoding="utf-8"?>
<!-- Generator: Adobe Illustrator 23.0.4, SVG Export Plug-In . SVG Version: 6.00 Build 0)  -->
<svg version="1.1" id="Layer_1" xmlns="http://www.w3.org/2000/svg" xmlns:xlink="http://www.w3.org/1999/xlink" x="0px" y="0px"
	 viewBox="0 0 216 216" style="enable-background:new 0 0 216 216;" xml:space="preserve">
<style type="text/css">
	.st0{fill-rule:evenodd;clip-rule:evenodd;fill:#1D1933;}
</style>
<path class="st0" d="M74,125.9l26.1-33.8c0.4-0.5,0.9-0.7,1.4-0.7l30.6,0l9.2-16.3l-3,1.5c-0.9,0.4-1.9,0.1-2.3-0.8l-6.4-13.1
	c-0.4-0.8-0.1-1.9,0.7-2.3v0L172,38.1c0.8-0.5,1.9-0.1,2.4,0.7c0.1,0.3,0.2,0.5,0.2,0.8h0v47.3c0,1-0.8,1.7-1.7,1.7h-0.1l-14.4,0.5
	c-1,0-1.8-0.7-1.8-1.7l-0.1-2.5L143,108.6c-0.3,0.6-1,0.9-1.6,0.9l-32,0.1L88.2,137c-1,1.3-2.5,2.1-4.1,2.3
	c-1.5,0.2-3.2-0.2-4.5-1.2l-4.6-3.6l0,0c-1.3-1-2.1-2.5-2.3-4.1C72.6,128.9,72.9,127.3,74,125.9L74,125.9L74,125.9z M175.9,151.9
	h-116v-116c0-1-0.8-1.7-1.7-1.7c-1,0-1.7,0.8-1.7,1.7v116H37.7c-1,0-1.7,0.8-1.7,1.7c0,1,0.8,1.7,1.7,1.7h18.7v18.7
	c0,1,0.8,1.7,1.7,1.7c1,0,1.7-0.8,1.7-1.7v-18.7h116c1,0,1.7-0.8,1.7-1.7C177.7,152.7,176.9,151.9,175.9,151.9L175.9,151.9z
	 M102.3,95L76.8,128l0,0c-0.4,0.6-0.6,1.3-0.5,1.9c0.1,0.7,0.4,1.3,1,1.7l0,0l4.6,3.6c0.6,0.4,1.3,0.6,1.9,0.5
	c0.7-0.1,1.3-0.4,1.7-1l21.7-28.1h0c0.3-0.4,0.8-0.7,1.4-0.7l31.9-0.1l16-28.1c0.3-0.5,0.8-0.9,1.5-0.9c1,0,1.8,0.7,1.8,1.7l0.2,6.9
	l11.1-0.4V42.6l-37.5,20.2l4.9,10l6.4-3.2l0,0c0.5-0.2,1.1-0.2,1.6,0c0.8,0.5,1.1,1.5,0.7,2.4l-12.4,22c-0.3,0.6-0.9,1-1.6,1
	L102.3,95z"/>
</svg>
