<?xml version="1.0" encoding="utf-8"?>
<!-- Generator: Adobe Illustrator 23.0.4, SVG Export Plug-In . SVG Version: 6.00 Build 0)  -->
<svg version="1.1" id="Layer_1" xmlns="http://www.w3.org/2000/svg" xmlns:xlink="http://www.w3.org/1999/xlink" x="0px" y="0px"
	 viewBox="0 0 216 216" style="enable-background:new 0 0 216 216;" xml:space="preserve">
<style type="text/css">
	.st0{fill-rule:evenodd;clip-rule:evenodd;fill:#1D1933;}
</style>
<g>
	<path class="st0" d="M106.2,66.7c0-1,0.8-1.8,1.8-1.8c1,0,1.8,0.8,1.8,1.8v8.8h11.7c1,0,1.8,0.8,1.8,1.8c0,1-0.8,1.8-1.8,1.8h-11.7
		v19.4h9.1c2,0,3.9,0.8,5.2,2.2l0,0c1.3,1.3,2.2,3.2,2.2,5.2v11.8c0,2-0.8,3.9-2.2,5.2l0,0c-1.3,1.3-3.2,2.2-5.2,2.2h-9.1v8.8
		c0,1-0.8,1.8-1.8,1.8c-1,0-1.8-0.8-1.8-1.8V125H91.6c-1,0-1.8-0.8-1.8-1.8c0-1,0.8-1.8,1.8-1.8h14.6v-19.4h-9.1
		c-2,0-3.9-0.8-5.2-2.2l0,0c-1.3-1.3-2.2-3.2-2.2-5.2V82.9c0-2,0.8-3.9,2.2-5.2l0,0c1.3-1.3,3.2-2.2,5.2-2.2h9.1V66.7L106.2,66.7z
		 M109.8,102.1v19.4h9.1c1,0,2-0.4,2.7-1.1h0c0.7-0.7,1.1-1.6,1.1-2.7v-11.8c0-1-0.4-2-1.1-2.7l0,0c-0.7-0.7-1.6-1.1-2.7-1.1H109.8
		L109.8,102.1z M106.2,98.5V79.1h-9.1c-1,0-2,0.4-2.7,1.1h0c-0.7,0.7-1.1,1.6-1.1,2.7v11.8c0,1,0.4,2,1.1,2.7h0
		c0.7,0.7,1.6,1.1,2.7,1.1H106.2z"/>
	<path class="st0" d="M22.6,161.3h170.8c0.7,0,1.3-0.3,1.7-0.7c0.4-0.4,0.7-1,0.7-1.7v-3.5c0-0.7-0.3-1.3-0.7-1.7l-0.1-0.1
		c-0.4-0.4-1-0.7-1.7-0.7h-8.7H31.3h-8.7c-0.7,0-1.3,0.3-1.7,0.7c-0.4,0.4-0.7,1-0.7,1.7v3.5c0,0.7,0.3,1.3,0.7,1.7l0,0
		C21.3,161,21.9,161.3,22.6,161.3L22.6,161.3z M35.3,47.7h145.4c1.6,0,3,0.6,4,1.7c1,1,1.7,2.5,1.7,4v96.3h7.1
		c1.5,0,2.9,0.6,3.9,1.6c0,0,0.1,0.1,0.1,0.1c1,1,1.7,2.5,1.7,4v3.5c0,1.6-0.6,3-1.7,4c-1,1-2.5,1.7-4,1.7H22.6c-1.6,0-3-0.6-4-1.7
		l0,0h0c-1-1-1.7-2.5-1.7-4v-3.5c0-1.6,0.6-3,1.7-4h0c1-1,2.5-1.7,4-1.7h7.1V53.4c0-1.6,0.6-3,1.7-4l0,0l0,0
		C32.3,48.3,33.8,47.7,35.3,47.7L35.3,47.7z M180.7,50.9H35.3c-0.7,0-1.3,0.3-1.7,0.7h0c-0.4,0.4-0.7,1.1-0.7,1.7v96.3h150.2V53.4
		c0-0.7-0.3-1.3-0.7-1.7C182,51.2,181.4,50.9,180.7,50.9L180.7,50.9z M80.7,158.4c-0.9,0-1.6-0.7-1.6-1.6c0-0.9,0.7-1.6,1.6-1.6
		h53.6c0.9,0,1.6,0.7,1.6,1.6c0,0.9-0.7,1.6-1.6,1.6H80.7L80.7,158.4z M39.5,55.5c-0.9,0-1.6,0.7-1.6,1.6v86.4
		c0,0.9,0.7,1.6,1.6,1.6h137.1c0.9,0,1.6-0.7,1.6-1.6V57.1c0-0.9-0.7-1.6-1.6-1.6H39.5L39.5,55.5z M174.9,58.7H41.1v83.1h133.8V58.7
		z"/>
</g>
</svg>
