<?xml version="1.0" encoding="utf-8"?>
<!-- Generator: Adobe Illustrator 23.0.4, SVG Export Plug-In . SVG Version: 6.00 Build 0)  -->
<svg version="1.1" id="Layer_1" xmlns="http://www.w3.org/2000/svg" xmlns:xlink="http://www.w3.org/1999/xlink" x="0px" y="0px"
	 viewBox="0 0 216 216" style="enable-background:new 0 0 216 216;" xml:space="preserve">
<style type="text/css">
	.st0{fill-rule:evenodd;clip-rule:evenodd;fill:#1D1933;}
</style>
<path class="st0" d="M35.8,39h144.4c2.9,0,5.5,1.2,7.4,3.1l0,0c1.9,1.9,3.1,4.5,3.1,7.4v107.2c0,2.9-1.2,5.5-3.1,7.4
	c-1.9,1.9-4.5,3.1-7.4,3.1h-4.7v8.1c0,0.9-0.8,1.6-1.7,1.6H42.3c-1,0-1.8-0.7-1.8-1.6v-8.1h-4.7c-2.9,0-5.5-1.2-7.4-3.1l0,0l0,0l0,0
	c-1.9-1.9-3.1-4.5-3.1-7.4V49.5c0-2.9,1.2-5.5,3.1-7.4C30.3,40.2,32.9,39,35.8,39L35.8,39z M109.7,76.7v-3.4c0-1-0.8-1.7-1.7-1.7
	c-1,0-1.7,0.8-1.7,1.7v3.4c0,1,0.8,1.8,1.7,1.8C109,78.5,109.7,77.7,109.7,76.7L109.7,76.7z M37.3,67.8c-1,0-1.7,0.8-1.7,1.8v23.6
	c0,1,0.8,1.7,1.7,1.7h3.2v16.5h-3.2c-1,0-1.7,0.8-1.7,1.8v23.6c0,1,0.8,1.8,1.7,1.8h3.2v11.8c0,1,0.8,1.8,1.8,1.8h131.5
	c1,0,1.7-0.8,1.7-1.8V55.9c0-1-0.8-1.7-1.7-1.7H42.3c-1,0-1.8,0.8-1.8,1.7v11.8H37.3L37.3,67.8z M42.3,71.3h-3.2v20.1h3.2h3.2V71.3
	H42.3L42.3,71.3z M42.3,114.9h-3.2v20.1h3.2h3.2v-20.1H42.3L42.3,114.9z M81.6,101.4h-3.3c-1,0-1.7,0.8-1.7,1.7c0,1,0.8,1.7,1.7,1.7
	h3.3c1,0,1.8-0.8,1.8-1.7C83.3,102.2,82.5,101.4,81.6,101.4L81.6,101.4z M106.3,129.6v3.3c0,1,0.8,1.7,1.7,1.7c1,0,1.7-0.8,1.7-1.7
	v-3.3c0-1-0.8-1.8-1.7-1.8C107,127.8,106.3,128.6,106.3,129.6L106.3,129.6z M134.4,104.9h3.4c1,0,1.7-0.8,1.7-1.7
	c0-1-0.8-1.7-1.7-1.7h-3.4c-1,0-1.7,0.8-1.7,1.7C132.7,104.1,133.5,104.9,134.4,104.9L134.4,104.9z M108,112.2c2.5,0,4.7-1,6.4-2.6
	l0.1-0.1c1.6-1.6,2.6-3.9,2.6-6.3c0-2.5-1-4.7-2.6-6.4c-1.6-1.6-3.9-2.6-6.4-2.6c-2.5,0-4.7,1-6.4,2.6h0c-1.6,1.6-2.6,3.9-2.6,6.4
	c0,2.5,1,4.7,2.6,6.4C103.3,111.2,105.5,112.2,108,112.2L108,112.2z M116.4,111.6L116.4,111.6c2.2-2.2,3.5-5.2,3.5-8.4
	c0-3.3-1.3-6.3-3.5-8.4c-2.2-2.2-5.1-3.5-8.4-3.5c-3.3,0-6.3,1.3-8.4,3.5l0,0v0c-2.2,2.2-3.5,5.1-3.5,8.4c0,3.3,1.3,6.3,3.5,8.4l0,0
	l0,0c2.1,2.1,5.1,3.5,8.4,3.5C111.3,115.1,114.3,113.7,116.4,111.6L116.4,111.6z M108,120.5c4.8,0,9.1-1.9,12.2-5.1l0.1-0.1
	c3.1-3.1,5-7.4,5-12.2c0-4.8-1.9-9.1-5.1-12.2c-3.1-3.1-7.5-5.1-12.2-5.1s-9.1,1.9-12.2,5.1l0,0c-3.1,3.1-5.1,7.5-5.1,12.2
	c0,4.8,1.9,9.1,5.1,12.2C98.9,118.5,103.2,120.5,108,120.5L108,120.5z M122.3,117.5L122.3,117.5c3.7-3.7,5.9-8.8,5.9-14.3
	c0-5.6-2.3-10.7-5.9-14.3c-3.7-3.7-8.7-5.9-14.3-5.9c-5.6,0-10.7,2.3-14.3,5.9l0,0v0c-3.7,3.7-5.9,8.7-5.9,14.3
	c0,5.6,2.3,10.7,5.9,14.3l0,0c3.7,3.7,8.7,5.9,14.3,5.9C113.6,123.4,118.7,121.1,122.3,117.5L122.3,117.5z M165.4,77.7h6.6v-20H44
	v10.1h3.2c1,0,1.8,0.8,1.8,1.8v23.6c0,1-0.8,1.7-1.8,1.7H44v16.5h3.2c1,0,1.8,0.8,1.8,1.8v23.6c0,1-0.8,1.8-1.8,1.8H44v10.1h128v-20
	h-6.6c-1,0-1.7-0.8-1.7-1.7V79.5C163.6,78.5,164.4,77.7,165.4,77.7L165.4,77.7z M172,81.2h-4.9V125h4.9V81.2L172,81.2z M172,167.2
	H44v6.5h128V167.2L172,167.2z M180.2,42.5H35.8c-1.9,0-3.7,0.8-4.9,2.1c-1.3,1.3-2.1,3-2.1,4.9v107.2c0,1.9,0.8,3.7,2.1,4.9l0,0
	c1.3,1.3,3,2,4.9,2h144.4c1.9,0,3.7-0.8,4.9-2.1c1.3-1.3,2-3,2-4.9V49.5c0-1.9-0.8-3.7-2-4.9l0,0C183.9,43.3,182.1,42.5,180.2,42.5z
	"/>
</svg>
