<?xml version="1.0" encoding="utf-8"?>
<!-- Generator: Adobe Illustrator 23.0.4, SVG Export Plug-In . SVG Version: 6.00 Build 0)  -->
<svg version="1.1" id="Layer_1" xmlns="http://www.w3.org/2000/svg" xmlns:xlink="http://www.w3.org/1999/xlink" x="0px" y="0px"
	 viewBox="0 0 216 216" style="enable-background:new 0 0 216 216;" xml:space="preserve">
<style type="text/css">
	.st0{fill-rule:evenodd;clip-rule:evenodd;fill:#1D1933;}
</style>
<path class="st0" d="M153.5,40.8H62c-1.9,0-3.6,0.8-4.8,2c-1.2,1.2-2,3-2,4.8v123.9c0,1.9,0.8,3.6,2,4.8l0,0c1.2,1.2,2.9,2,4.8,2
	h91.5c1.9,0,3.6-0.8,4.8-2c1.2-1.2,2-3,2-4.8V47.7c0-1.9-0.8-3.6-2-4.8h0C157.1,41.6,155.4,40.8,153.5,40.8L153.5,40.8z M133,156.4
	c0,0.9-0.8,1.7-1.7,1.7c-0.9,0-1.7-0.8-1.7-1.7v-3.7c0-0.9,0.8-1.7,1.7-1.7c0.9,0,1.7,0.8,1.7,1.7V156.4L133,156.4z M133,143.7
	c0,0.9-0.8,1.7-1.7,1.7c-0.9,0-1.7-0.8-1.7-1.7V140c0-0.9,0.8-1.7,1.7-1.7c0.9,0,1.7,0.8,1.7,1.7V143.7L133,143.7z M123.2,150.1
	c-0.9,0-1.7-0.8-1.7-1.7c0-0.9,0.8-1.7,1.7-1.7h16.3c0.9,0,1.7,0.8,1.7,1.7c0,0.9-0.8,1.7-1.7,1.7H123.2L123.2,150.1z M77.2,143.6
	c-0.7-0.7-0.7-1.8,0-2.4c0.7-0.7,1.7-0.7,2.4,0l4.5,4.5l4.5-4.5c0.7-0.7,1.7-0.7,2.4,0c0.7,0.7,0.7,1.8,0,2.4l-4.5,4.5l4.5,4.5
	c0.7,0.7,0.7,1.7,0,2.4c-0.7,0.7-1.7,0.7-2.4,0l-4.5-4.5l-4.5,4.5c-0.7,0.7-1.7,0.7-2.4,0c-0.7-0.7-0.7-1.7,0-2.4l4.5-4.5
	L77.2,143.6L77.2,143.6z M92.2,104.6c0.9,0,1.7,0.8,1.7,1.7c0,0.9-0.8,1.7-1.7,1.7h-6.4v6.6c0,0.9-0.8,1.7-1.7,1.7
	c-0.9,0-1.7-0.8-1.7-1.7V108h-6.4c-0.9,0-1.7-0.8-1.7-1.7c0-0.9,0.8-1.7,1.7-1.7h6.4v-6.1c0-0.9,0.8-1.7,1.7-1.7
	c0.9,0,1.7,0.8,1.7,1.7v6.1H92.2L92.2,104.6z M123.2,108.4c-0.9,0-1.7-0.8-1.7-1.7c0-0.9,0.8-1.7,1.7-1.7h16.3
	c0.9,0,1.7,0.8,1.7,1.7c0,0.9-0.8,1.7-1.7,1.7H123.2L123.2,108.4z M112.8,130h37c0.9,0,1.7,0.8,1.7,1.7V164c0,0.9-0.8,1.7-1.7,1.7
	h-37c-0.9,0-1.7-0.8-1.7-1.7v-32.3C111.1,130.7,111.9,130,112.8,130L112.8,130z M148.1,133.4v28.9h-33.6v-28.9H148.1L148.1,133.4z
	 M112.8,88.6h37c0.9,0,1.7,0.8,1.7,1.7v32.3c0,0.9-0.8,1.7-1.7,1.7h-37c-0.9,0-1.7-0.8-1.7-1.7V90.3
	C111.1,89.4,111.9,88.6,112.8,88.6L112.8,88.6z M148.1,92.1v28.9h-33.6V92.1H148.1L148.1,92.1z M65.6,130h37c0.9,0,1.7,0.8,1.7,1.7
	V164c0,0.9-0.8,1.7-1.7,1.7h-37c-0.9,0-1.7-0.8-1.7-1.7v-32.3C63.9,130.7,64.7,130,65.6,130L65.6,130z M100.9,133.4v28.9H67.3v-28.9
	H100.9L100.9,133.4z M65.6,88.6h37c0.9,0,1.7,0.8,1.7,1.7v32.3c0,0.9-0.8,1.7-1.7,1.7h-37c-0.9,0-1.7-0.8-1.7-1.7V90.3
	C63.9,89.4,64.7,88.6,65.6,88.6L65.6,88.6z M100.9,92.1v28.9H67.3V92.1H100.9L100.9,92.1z M65.6,51.8h84.2c0.9,0,1.7,0.8,1.7,1.7
	v25.8c0,0.9-0.8,1.7-1.7,1.7H65.6c-0.9,0-1.7-0.8-1.7-1.7V53.6C63.9,52.6,64.7,51.8,65.6,51.8L65.6,51.8z M148.1,55.3v22.3H67.3
	V55.3H148.1L148.1,55.3z M62,37.4h91.5c2.8,0,5.4,1.2,7.3,3v0c1.9,1.9,3,4.4,3,7.2v123.9c0,2.8-1.2,5.4-3,7.3c-1.9,1.9-4.4,3-7.3,3
	H62c-2.8,0-5.4-1.2-7.2-3l0,0l0,0h0c-1.9-1.9-3-4.4-3-7.2V47.7c0-2.8,1.2-5.4,3-7.3C56.6,38.5,59.2,37.4,62,37.4z"/>
</svg>
